<?xml version="1.0" encoding="UTF-8"?>
<svg width="800px" height="800px" viewBox="0 0 800 800" version="1.1" xmlns="http://www.w3.org/2000/svg" xmlns:xlink="http://www.w3.org/1999/xlink">
    <!-- Generator: Sketch 54.1 (76490) - https://sketchapp.com -->
    <title>校车</title>
    <desc>Created with Sketch.</desc>
    <g id="校车" stroke="none" stroke-width="1" fill="none" fill-rule="evenodd">
        <g id="School-bus" transform="translate(-1.000000, -1.000000)" fill-rule="nonzero">
            <g id="BG" transform="translate(0.197000, 0.383000)">
                <polygon id="bg-white" fill="#FFFFFF" points="0.803 0.617 800.803 0.617 800.803 800.617 0.803 800.617"></polygon>
                <path d="M0.8,796.379 C1.956,797.987 3.173,799.516 4.434,800.987 L800.8,800.987 L800.8,450.817 C791.4489,444.605297 780.956755,440.313535 769.933,438.191 C737.478,431.544 714.549,397.325 716.718,358.243 C721.118,278.99 679.453,192.908 614.595,198.818 C588.553,201.191 564.232,183.468 553.147,155.341 C509.906,45.616 342.828,48.835 281.876,133.86 C269.389,151.279 250.545,160.66 231.327,159.413 C165.475,155.134 100.603,224.769 99.056,330.166 C98.664,356.898 86.516,381.139 67.156,394.735 C34.877,417.407 3.407,473.47 19.662,556.474 C24.932,583.385 17.491,610.941 0.796,629.707 L0.8,796.379 Z" id="Path_1114" fill="#EDF2F9"></path>
                <path d="M800.8,642.8 C775.756,610.726 703.719,580.718 544.355,591.24 C274.361,609.066 115.655,617.823 115.655,617.823 C115.655,617.823 37.565,626.839 0.801,648.423 L0.801,701.852 C32.622,733.617 75.355,731.783 206.621,711.827 C357.585,688.875 338.231,721.798 331.457,735.765 C324.683,749.732 297.587,781.657 393.391,774.673 C489.195,767.689 464.035,745.958 432.1,726.894 C400.165,707.83 450.487,705.835 491.131,705.835 C531.775,705.835 763.314,727.516 798.509,699.715 C799.301667,699.089 800.065667,698.427333 800.801,697.73 L800.8,642.8 Z" id="Path_1115" fill="#C6DDFF"></path>
            </g>
            <path d="M152.416,664.496 C152.416,664.496 109.365,326.471 363.634,296.721 C667.919,261.121 682.697,577.89 672.776,627.273 C662.855,676.656 152.416,664.496 152.416,664.496 Z" id="Path_1116" fill="#013BFF"></path>
            <g id="plant" transform="translate(7.197000, 503.383000)">
                <g id="Group_427" transform="translate(33.000000, 1.000000)">
                    <g id="Group_425" fill="#3478F6">
                        <path d="M91.446,161.029 C90.263,161.814 102.536,130.429 94.108,92.329 C87.998,54.97 61.186,10.891 35.385,3.416 C-14.358,-11.528 -2.469,29.039 21.347,39.5 C44.614,51.961 5.123,65.686 31.364,78.492 C55.908,92.877 49.053,99.592 61.846,109.163 C76.377,118.852 93.026,160.946 91.446,161.029 Z" id="Path_1117"></path>
                    </g>
                    <g id="Group_426" transform="translate(26.000000, 16.000000)" fill="#FFFFFF">
                        <path d="M65.427,142.7 C65.274,141.617 49.571,33.975 0.408,1.286 L0.913,0.55 C26.798,17.761 43.205,55.477 52.413,84.087 C58.5235557,103.20379 63.1735914,122.757006 66.323,142.578 L65.427,142.7 Z" id="Path_1118"></path>
                    </g>
                </g>
                <g id="Group_430" transform="translate(0.000000, 72.000000)">
                    <g id="Group_428" fill="#98BEF7">
                        <path d="M126.249,87.358 C125.763,88.374 121.168,61.889 99.575,39.134 C79.882,15.953 43.192,-3.498 22.382,1.767 C-17.961,11.552 7.03,34.605 27.717,32.19 C48.856,31.368 27.446,56.7 50.769,54.917 C73.583,54.901 71.669,62.275 84.416,63.687 C98.408,64.481 127.3,86.665 126.249,87.358 Z" id="Path_1119"></path>
                    </g>
                    <g id="Group_429" transform="translate(29.000000, 12.000000)" fill="#FFFFFF">
                        <path d="M96.9,75.638 C96.34,74.955 40.482,7.316 0.835,1.484 L0.968,0.605 C40.962,6.487 97.04,74.394 97.602,75.079 L96.9,75.638 Z" id="Path_1120"></path>
                    </g>
                </g>
                <g id="Group_433" transform="translate(599.000000, 0.000000)">
                    <g id="Group_431" fill="#98BEF7">
                        <path d="M6.588,161.5 C7.772,162.285 -4.502,130.9 3.926,92.8 C10.036,55.441 36.848,11.362 62.649,3.887 C112.393,-11.057 100.503,29.509 76.687,39.971 C53.42,52.431 92.911,66.157 66.67,78.963 C42.126,93.348 48.981,100.063 36.188,109.634 C21.657,119.323 5.008,161.417 6.588,161.5 Z" id="Path_1121"></path>
                    </g>
                    <g id="Group_432" transform="translate(5.000000, 17.000000)" fill="#FFFFFF">
                        <path d="M1.607,142.17 C1.76,141.086 17.463,33.444 66.626,0.756 L66.121,0.019 C40.236,17.231 23.829,54.947 14.621,83.556 C8.51046199,102.673135 3.86042706,122.226682 0.711,142.048 L1.607,142.17 Z" id="Path_1122"></path>
                    </g>
                </g>
                <g id="Group_436" transform="translate(603.000000, 71.000000)">
                    <g id="Group_434" fill="#3478F6">
                        <path d="M0.785,86.687 C1.271,87.703 5.866,61.218 27.459,38.462 C47.152,15.282 83.842,-4.169 104.652,1.095 C144.995,10.881 120.004,33.934 99.317,31.519 C78.178,30.697 99.588,56.029 76.265,54.245 C53.451,54.23 55.365,61.603 42.618,63.016 C28.626,63.81 -0.266,85.994 0.785,86.687 Z" id="Path_1123"></path>
                    </g>
                    <g id="Group_435" transform="translate(0.000000, 11.000000)" fill="#FFFFFF">
                        <path d="M1.135,75.967 C1.695,75.284 57.553,7.645 97.2,1.813 L97.067,0.933 C57.073,6.816 0.995,74.723 0.433,75.408 L1.135,75.967 Z" id="Path_1124"></path>
                    </g>
                </g>
            </g>
            <g id="elements" transform="translate(77.197000, 65.383000)">
                <g id="Group_459" transform="translate(440.000000, 241.000000)">
                    <g id="Group_437" transform="translate(5.000000, 66.000000)" fill="#EF4923">
                        <path d="M7.268,14.46 C3.5124637,14.46 0.468,11.4155363 0.468,7.66 C0.468,3.9044637 3.5124637,0.86 7.268,0.86 C11.0235363,0.86 14.068,3.9044637 14.068,7.66 C14.0652425,11.4143935 11.0223935,14.4572425 7.268,14.46 L7.268,14.46 Z M7.268,2.998 C5.38118363,2.998 3.68015535,4.13459076 2.95810198,5.87778179 C2.23604862,7.62097282 2.63516621,9.62747248 3.96934687,10.9616531 C5.30352752,12.2958338 7.31002718,12.6949514 9.05321821,11.972898 C10.7964092,11.2508447 11.933,9.54981637 11.933,7.663 C11.9296922,5.08828683 9.84271435,3.00220367 7.268,3 L7.268,2.998 Z" id="Path_1125"></path>
                    </g>
                    <g id="Group_438" transform="translate(0.000000, 29.000000)" fill="#F3C04C">
                        <path d="M7.6,14.148 C3.8444637,14.148 0.8,11.1035363 0.8,7.348 C0.8,3.5924637 3.8444637,0.548 7.6,0.548 C11.3555363,0.548 14.4,3.5924637 14.4,7.348 C14.3972425,11.1023935 11.3543935,14.1452425 7.6,14.148 L7.6,14.148 Z M7.6,2.686 C5.02359164,2.686 2.935,4.77459164 2.935,7.351 C2.935,9.92740836 5.02359164,12.016 7.6,12.016 C10.1764084,12.016 12.265,9.92740836 12.265,7.351 C12.2622442,4.77573398 10.175266,2.68875577 7.6,2.686 Z" id="Path_1126"></path>
                    </g>
                    <g id="Group_446" transform="translate(31.000000, 37.000000)" fill="#F3C04C">
                        <g id="Group_441" transform="translate(7.000000, 0.000000)">
                            <g id="Group_439">
                                <path d="M1.405,7.584 C0.816264457,7.584 0.339,7.10673554 0.339,6.518 L0.339,1.818 C0.339,1.22926446 0.816264457,0.752 1.405,0.752 C1.99373554,0.752 2.471,1.22926446 2.471,1.818 L2.471,6.518 C2.471,7.10673554 1.99373554,7.584 1.405,7.584 Z" id="Path_1127"></path>
                            </g>
                            <g id="Group_440" transform="translate(0.000000, 8.000000)">
                                <path d="M1.405,7.813 C0.816102734,7.81244808 0.338999741,7.33489752 0.339,6.746 L0.339,2.046 C0.339,1.45726446 0.816264457,0.98 1.405,0.98 C1.99373554,0.98 2.471,1.45726446 2.471,2.046 L2.471,6.746 C2.47126538,7.028894 2.35907215,7.30029224 2.1591296,7.50042236 C1.95918705,7.70055247 1.68789412,7.81300012 1.405,7.813 Z" id="Path_1128"></path>
                            </g>
                        </g>
                        <g id="Group_445" transform="translate(0.000000, 7.000000)">
                            <g id="Group_443" transform="translate(9.000000, 0.000000)">
                                <g id="Group_442">
                                    <path d="M6.005,2.347 L1.781,2.347 C1.19226446,2.347 0.715,1.86973554 0.715,1.281 C0.715,0.692264457 1.19226446,0.215 1.781,0.215 L6.005,0.215 C6.59373554,0.215 7.071,0.692264457 7.071,1.281 C7.071,1.86973554 6.59373554,2.347 6.005,2.347 L6.005,2.347 Z" id="Path_1129"></path>
                                </g>
                            </g>
                            <g id="Group_444">
                                <path d="M6.029,2.347 L1.805,2.347 C1.21626446,2.347 0.739,1.86973554 0.739,1.281 C0.739,0.692264457 1.21626446,0.215 1.805,0.215 L6.029,0.215 C6.61773554,0.215 7.095,0.692264457 7.095,1.281 C7.095,1.86973554 6.61773554,2.347 6.029,2.347 L6.029,2.347 Z" id="Path_1130"></path>
                            </g>
                        </g>
                    </g>
                    <g id="Group_458" transform="translate(27.000000, 0.000000)" fill="#EF4923">
                        <g id="Group_457">
                            <g id="Group_451" transform="translate(6.000000, 0.000000)">
                                <g id="Group_448">
                                    <g id="Group_447">
                                        <path d="M1.917,7.687 C1.63410588,7.68700012 1.36281295,7.57455247 1.1628704,7.37442236 C0.962927847,7.17429224 0.850734621,6.902894 0.851,6.62 L0.851,1.92 C0.851,1.33126446 1.32826446,0.854 1.917,0.854 C2.50573554,0.854 2.983,1.33126446 2.983,1.92 L2.983,6.62 C2.98326538,6.902894 2.87107215,7.17429224 2.6711296,7.37442236 C2.47118705,7.57455247 2.19989412,7.68700012 1.917,7.687 Z" id="Path_1131"></path>
                                    </g>
                                </g>
                                <g id="Group_450" transform="translate(0.000000, 9.000000)">
                                    <g id="Group_449">
                                        <path d="M1.917,6.916 C1.32810273,6.91544808 0.850999741,6.43789752 0.851,5.849 L0.851,1.149 C0.851,0.560264457 1.32826446,0.083 1.917,0.083 C2.50573554,0.083 2.983,0.560264457 2.983,1.149 L2.983,5.849 C2.98300026,6.43789752 2.50589727,6.91544808 1.917,6.916 L1.917,6.916 Z" id="Path_1132"></path>
                                    </g>
                                </g>
                            </g>
                            <g id="Group_456" transform="translate(0.000000, 7.000000)">
                                <g id="Group_453" transform="translate(9.000000, 0.000000)">
                                    <g id="Group_452">
                                        <path d="M5.517,2.45 L1.293,2.45 C0.703988314,2.45 0.2265,1.97251169 0.2265,1.3835 C0.2265,0.794488314 0.703988314,0.317 1.293,0.317 L5.517,0.317 C6.10601169,0.317 6.5835,0.794488314 6.5835,1.3835 C6.5835,1.97251169 6.10601169,2.45 5.517,2.45 Z" id="Path_1133"></path>
                                    </g>
                                </g>
                                <g id="Group_455">
                                    <g id="Group_454">
                                        <path d="M5.541,2.45 L1.316,2.45 C0.726988314,2.45 0.2495,1.97251169 0.2495,1.3835 C0.2495,0.794488314 0.726988314,0.317 1.316,0.317 L5.541,0.317 C6.13001169,0.317 6.6075,0.794488314 6.6075,1.3835 C6.6075,1.97251169 6.13001169,2.45 5.541,2.45 L5.541,2.45 Z" id="Path_1134"></path>
                                    </g>
                                </g>
                            </g>
                        </g>
                    </g>
                </g>
                <path d="M18.566,103.245 C-5.271,103.245 -6.534,67.756 17.255,66.24 C17.48,66.225 17.706,66.212 17.932,66.2 C17.932,66.052 17.921,65.906 17.921,65.757 C17.9234986,49.5338743 26.4831069,34.5151057 40.4399915,26.2449675 C54.3968761,17.9748293 71.6810685,17.6798793 85.912,25.469 C96.2461809,6.2017594 118.357535,-3.57147532 139.562375,1.75549512 C160.767216,7.08246555 175.634524,26.1452891 175.636,48.009 C175.636,49.423 175.563,50.819 175.442,52.201 C198.629461,45.5207899 223.476979,54.5811618 236.922,74.619 C245.122,86.819 236.093,103.245 221.393,103.245 L18.566,103.245 Z" id="Path_1135" fill="#98BEF7"></path>
                <path d="M470.806,142.381 C456.952,142.381 456.219,121.755 470.044,120.874 C470.175,120.865 470.307,120.857 470.438,120.851 C470.438,120.765 470.432,120.679 470.432,120.593 C470.435235,111.165398 475.410027,102.438306 483.520577,97.6321986 C491.631128,92.826091 501.675075,92.6534562 509.946,97.178 C515.952159,85.9803581 528.802847,80.300467 541.126652,83.3964254 C553.450457,86.4923839 562.091044,97.5712643 562.092,110.278 C562.092,111.1 562.05,111.911 561.979,112.715 C575.455164,108.833373 589.89573,114.098448 597.711,125.743 C599.878997,129.050903 600.054912,133.282274 598.168967,136.758715 C596.283022,140.235156 592.640028,142.394796 588.685,142.381 L470.806,142.381 Z" id="Path_1136" fill="#B3D9FF"></path>
                <g id="Group_477" transform="translate(121.000000, 71.000000)">
                    <g id="Group_460" transform="translate(4.000000, 68.000000)" fill="#499D75">
                        <path d="M8.178,14.525 C5.31209432,14.6603001 2.65236199,13.0377404 1.46134482,10.4275297 C0.27032764,7.8173191 0.787832123,4.74501293 2.76820534,2.66899669 C4.74857856,0.592980452 7.79308033,-0.0687483522 10.4565236,0.997924696 C13.1199669,2.06459774 14.8660781,4.64490232 14.866,7.514 C14.9487496,11.2943782 11.9580772,14.4294864 8.178,14.525 L8.178,14.525 Z M8.178,2.702 C6.21124134,2.60921388 4.38600024,3.72273627 3.56865258,5.5140184 C2.75130492,7.30530054 3.1064101,9.41369744 4.46541255,10.8384294 C5.82441501,12.2631614 7.9137021,12.7173823 9.74156489,11.9854899 C11.5694277,11.2535974 12.7678563,9.48294613 12.768,7.514 C12.8261489,4.91859164 10.7732335,2.76549033 8.178,2.7 L8.178,2.702 Z" id="Path_1137"></path>
                    </g>
                    <g id="Group_461" transform="translate(0.000000, 30.000000)" fill="#2355F5">
                        <path d="M7.589,14.042 C4.72302678,14.177713 2.06299834,12.5554312 0.871661447,9.94527084 C-0.319675445,7.33511052 0.197565343,4.26265035 2.17784353,2.18642329 C4.15812171,0.110196227 7.20269092,-0.551731195 9.86625835,0.514865751 C12.5298258,1.5814627 14.2760588,4.16181536 14.276,7.031 C14.3587552,10.8109977 11.3686831,13.9459454 7.589,14.042 Z M7.589,2.219 C5.62217381,2.12580101 3.7966366,3.2390455 2.97896923,5.03027731 C2.16130186,6.82150912 2.51614335,8.93006002 3.87505077,10.3550028 C5.23395818,11.7799456 7.3233127,12.2343651 9.15129962,11.5025488 C10.9792866,10.7707325 12.1778369,9.00003309 12.178,7.031 C12.2350353,4.43674511 10.1830414,2.28503568 7.589,2.219 L7.589,2.219 Z" id="Path_1138"></path>
                    </g>
                    <g id="Group_469" transform="translate(31.000000, 38.000000)" fill="#2355F5">
                        <g id="Group_464" transform="translate(6.000000, 0.000000)">
                            <g id="Group_462">
                                <path d="M1.877,7.522 C1.28361777,7.50780883 0.814026795,7.0153874 0.828,6.422 L0.828,1.572 C0.828,0.992101013 1.29810101,0.522 1.878,0.522 C2.45789899,0.522 2.928,0.992101013 2.928,1.572 L2.928,6.422 C2.93470607,6.70729898 2.82769562,6.98355653 2.63055106,7.18989242 C2.43340649,7.39622831 2.1623084,7.51570758 1.877,7.522 Z" id="Path_1139"></path>
                            </g>
                            <g id="Group_463" transform="translate(0.000000, 9.000000)">
                                <path d="M1.877,7.009 C1.28361777,6.99480883 0.814026795,6.5023874 0.828,5.909 L0.828,1.06 C0.828,0.480101013 1.29810101,0.01 1.878,0.01 C2.45789899,0.01 2.928,0.480101013 2.928,1.06 L2.928,5.909 C2.93470607,6.19429898 2.82769562,6.47055653 2.63055106,6.67689242 C2.43340649,6.88322831 2.1623084,7.00270758 1.877,7.009 L1.877,7.009 Z" id="Path_1140"></path>
                            </g>
                        </g>
                        <g id="Group_468" transform="translate(0.000000, 7.000000)">
                            <g id="Group_466" transform="translate(9.000000, 0.000000)">
                                <g id="Group_465">
                                    <path d="M5.371,2.341 L1.215,2.341 C0.607486775,2.341 0.115,1.84851322 0.115,1.241 C0.115,0.633486775 0.607486775,0.141 1.215,0.141 L5.371,0.141 C5.97851322,0.141 6.471,0.633486775 6.471,1.241 C6.471,1.84851322 5.97851322,2.341 5.371,2.341 Z" id="Path_1141"></path>
                                </g>
                            </g>
                            <g id="Group_467">
                                <path d="M5.54,2.341 L1.384,2.341 C0.776486775,2.341 0.284,1.84851322 0.284,1.241 C0.284,0.633486775 0.776486775,0.141 1.384,0.141 L5.54,0.141 C6.14751322,0.141 6.64,0.633486775 6.64,1.241 C6.64,1.84851322 6.14751322,2.341 5.54,2.341 Z" id="Path_1142"></path>
                            </g>
                        </g>
                    </g>
                    <g id="Group_476" transform="translate(26.000000, 0.000000)" fill="#499D75">
                        <g id="Group_472" transform="translate(7.000000, 0.000000)">
                            <g id="Group_470">
                                <path d="M1.462,7.466 C1.17686685,7.45944614 0.906024937,7.33985241 0.709095412,7.13354529 C0.512165887,6.92723817 0.405291934,6.65112956 0.412,6.366 L0.412,1.516 C0.39514692,1.12993932 0.591508179,0.765768656 0.923319926,0.567708472 C1.25513167,0.369648287 1.66886833,0.369648287 2.00068007,0.567708472 C2.33249182,0.765768656 2.52885308,1.12993932 2.512,1.516 L2.512,6.366 C2.51870807,6.65112956 2.41183411,6.92723817 2.21490459,7.13354529 C2.01797506,7.33985241 1.74713315,7.45944614 1.462,7.466 L1.462,7.466 Z" id="Path_1143"></path>
                            </g>
                            <g id="Group_471" transform="translate(0.000000, 8.000000)">
                                <path d="M1.462,7.953 C1.17686685,7.94644614 0.906024937,7.82685241 0.709095412,7.62054529 C0.512165887,7.41423817 0.405291934,7.13812956 0.412,6.853 L0.412,2 C0.39514692,1.61393932 0.591508179,1.24976866 0.923319926,1.05170847 C1.25513167,0.853648287 1.66886833,0.853648287 2.00068007,1.05170847 C2.33249182,1.24976866 2.52885308,1.61393932 2.512,2 L2.512,6.85 C2.51951756,7.1356422 2.41300421,7.41252458 2.21598823,7.61948517 C2.01897225,7.82644576 1.74766611,7.94645376 1.462,7.953 Z" id="Path_1144"></path>
                            </g>
                        </g>
                        <g id="Group_475" transform="translate(0.000000, 7.000000)">
                            <g id="Group_473" transform="translate(9.000000, 0.000000)">
                                <path d="M5.955,2.285 L1.8,2.285 C1.19248678,2.285 0.7,1.79251322 0.7,1.185 C0.7,0.577486775 1.19248678,0.085 1.8,0.085 L5.956,0.085 C6.56351322,0.085 7.056,0.577486775 7.056,1.185 C7.056,1.79251322 6.56351322,2.285 5.956,2.285 L5.955,2.285 Z" id="Path_1145"></path>
                            </g>
                            <g id="Group_474">
                                <path d="M6.124,2.285 L1.968,2.285 C1.36048678,2.285 0.868,1.79251322 0.868,1.185 C0.868,0.577486775 1.36048678,0.085 1.968,0.085 L6.124,0.085 C6.73151322,0.085 7.224,0.577486775 7.224,1.185 C7.224,1.79251322 6.73151322,2.285 6.124,2.285 Z" id="Path_1146"></path>
                            </g>
                        </g>
                    </g>
                </g>
            </g>
            <path d="M87.056,658.538 L762.979,658.538 C764.989869,658.538 766.62,660.168131 766.62,662.179 L766.62,662.179 C766.62,664.189869 764.989869,665.82 762.979,665.82 L87.056,665.82 C85.0451312,665.82 83.415,664.189869 83.415,662.179 L83.415,662.179 C83.415,660.168131 85.0451312,658.538 87.056,658.538 Z" id="Line" fill="#8DBFFC"></path>
            <g id="bus" transform="translate(135.197000, 419.383000)">
                <path d="M434.77,159.413 C434.77,125.579 402.27,100.049 377.954,85.68 L377.954,29.109 C377.954265,21.455036 374.913857,14.1144823 369.501688,8.70231249 C364.089518,3.29014265 356.748964,0.249734767 349.095,0.25 L28.943,0.25 C13.0046144,0.25 0.084,13.1706144 0.084,29.109 L0.084,146.8 C0.084,183.906355 30.1646445,213.987 67.271,213.987 L377.954,213.987 L377.954,213.476 L434.77,213.476 L434.77,159.413 Z" id="Path_1147" fill="#FDBD28"></path>
                <path d="M433.881,203.037 L33.645,203.037 C31.1846488,203.070666 28.7840504,202.278447 26.827,200.787 C26.827,200.81 26.827,200.834 26.818,200.856 C30.5615733,203.727838 34.5187145,206.309992 38.655,208.58 C45.177,212.407 51.491,215.603 59.563,216.68 C68.6968139,217.829058 77.8895811,218.447429 87.095,218.532 C105.282,218.832 123.445,217.74 141.629,217.745 C173.215,217.753 204.800667,217.753 236.386,217.745 L433.881,217.745 C439.134,217.745 443.392,214.452 443.392,210.39 C443.392,206.328 439.134,203.037 433.881,203.037 Z" id="Path_1148" fill="#F97700"></path>
                <g id="Group_478" transform="translate(47.000000, 113.000000)" fill="#2C327E">
                    <path d="M4.078,20.787 C4.10039782,21.4222105 4.26729174,22.0439587 4.566,22.605 C5.00341694,23.2645257 5.84577728,23.5232627 6.578,23.223 C7.31651285,22.7986681 7.5887418,21.8672656 7.195,21.112 C6.6887651,20.2000501 6.12495703,19.3212711 5.507,18.481 C4.273,16.793 3.137,15.137 2.065,13.416 C0.970830382,11.891454 0.329229943,10.0890109 0.214,8.216 C0.180061915,6.43991956 0.91414185,4.73557111 2.228,3.54 C3.77508644,2.15441733 5.76851042,1.37081752 7.845,1.332 C10.637,1.332 13.528,2.761 13.43,5.91 C13.398,7.079 13.04,7.729 11.839,7.956 C10.41,8.216 9.598,6.593 9.306,5.424 C8.79199617,5.16247715 8.22645857,5.01801918 7.65,5.001 C6.059,5.001 4.208,6.235 4.143,7.859 C4.13245163,8.51346433 4.31317632,9.15677471 4.663,9.71 C5.63251764,11.3808047 6.69484773,12.9960005 7.845,14.548 C9.825,17.307 12.261,20.133 12.099,22.99 C11.936,26.01 9.112,27.568 6.384,27.568 C3.656,27.568 0.961,26.139 0.571,23.412 C0.312,21.594 0.734,18.996 2.65,18.996 C3.624,19 3.981,19.846 4.078,20.787 Z" id="Path_1149"></path>
                    <path d="M27.163,24.781 C24.6530925,25.0546031 22.1160509,24.6397714 19.824,23.581 C17.1023427,22.3695491 15.3742366,19.6423509 15.441,16.664 C15.2628518,14.0372917 15.7661019,11.4090934 16.902,9.034 C17.5070306,7.80106758 18.3187663,6.6808722 19.302,5.722 C20.96468,4.08276306 23.1454563,3.07244397 25.471,2.864 C27.327997,2.77183452 29.1119362,3.5970886 30.244,5.072 C30.9726436,6.10743837 31.3590294,7.34492199 31.349,8.611 C31.4446367,9.85895691 31.0480113,11.0947771 30.244,12.054 C28.844,13.612 27.906,13.612 27.063,13.06 C26.6895783,12.8331566 26.4346331,12.4537495 26.3657086,12.0222971 C26.296784,11.5908448 26.4208365,11.1508927 26.705,10.819 C27.2340346,9.96633619 27.4520133,8.95699233 27.322,7.962 C27.1306425,7.12085613 26.4257844,6.49436023 25.568,6.403 C23.978,6.303 22.517,7.638 21.51,8.611 C19.562,10.592 19.14,12.995 19.14,15.528 C19.24,18.775 20.601,20.009 23.75,20.756 C24.908287,21.0327744 26.1020169,21.1312402 27.29,21.048 C29.0246216,20.9052893 30.6713242,20.2242327 32,19.1 C32.2821818,18.8995284 32.6415191,18.841618 32.972394,18.9432901 C33.3032689,19.0449621 33.5680826,19.2946631 33.689,19.619 C34.1175853,20.6242887 33.8254661,21.7919481 32.974,22.477 C31.3766878,23.9181598 29.3138897,24.7360374 27.163,24.781 L27.163,24.781 Z" id="Path_1150"></path>
                    <path d="M41.868,16.7 C41.768,18.193 41.768,19.395 41.768,20.4 C41.768,21.634 41.801,22.9 41.735,24.069 C41.635,25.238 41.314,26.115 40.112,26.18 C38.424,26.28 37.872,25.08 37.512,23.68 C37.2844645,22.7753603 37.1428362,21.851261 37.089,20.92 C36.96,19.069 36.862,17.186 36.765,15.335 C36.635,12.635 36.537,9.978 36.537,7.25 C36.537,5.918 36.505,4.555 36.537,3.224 C36.4379763,1.93288365 37.3385389,0.778793995 38.615,0.561 C40.369,0.366 40.759,2.704 40.823,3.775 C40.923,6.048 41.051,8.321 41.213,10.627 C41.246,11.114 41.313,11.698 41.376,12.153 C42.6735155,12.082297 43.9587775,11.8642286 45.207,11.503 C44.9965686,9.48653594 44.9424071,7.45681688 45.045,5.432 C45.145,4.165 45.499,3.646 46.604,3.548 C48.422,3.321 49.136,5.691 49.331,6.958 C49.818,9.912 50.208,12.899 50.662,15.887 C50.954,17.835 51.279,19.751 51.604,21.699 C51.804,22.868 51.993,24.399 50.435,24.751 C49.5490088,24.925792 48.6465359,24.5390746 48.162,23.777 C47.5539732,22.9302494 47.1233526,21.9693465 46.896,20.952 C46.506,19.459 46.214,17.543 46.019,16.244 C44.6282898,16.3230495 43.2427056,16.4752602 41.868,16.7 L41.868,16.7 Z" id="Path_1151"></path>
                    <path d="M56.835,5.948 C57.3839521,5.18788084 58.0154755,4.49095807 58.718,3.87 C59.9166849,2.79866702 61.6988562,2.70427764 63.004,3.643 C63.8833417,4.3633238 65.0402759,4.64943547 66.154,4.422 C66.9445598,4.23606203 67.7686787,4.24705028 68.554,4.454 C70.4605994,5.11568402 71.949403,6.62889426 72.58,8.546 C73.2603049,10.4059158 73.5800054,12.37842 73.522,14.358 C73.6555414,20.1767841 69.0477411,25.0025966 63.229,25.138 C61.1041447,25.126357 59.053571,24.3548646 57.448,22.963 C55.8680833,21.4422817 54.85932,19.424402 54.591,17.248 C54.4227265,16.2180494 54.3577374,15.1738675 54.397,14.131 C54.3592733,11.2189672 55.2097005,8.36455958 56.835,5.948 Z M58.328,14.812 C58.2949782,16.1852565 58.6313602,17.5421814 59.302,18.741 C60.0156447,19.9749823 61.3190046,20.7497279 62.744,20.787 C64.5049328,20.9261572 66.2381863,20.2852811 67.485,19.034 C68.6832654,17.4485442 69.3019717,15.5003076 69.238,13.514 C69.26888,12.8087566 69.2354082,12.1021663 69.138,11.403 C69.0779079,9.92451264 68.044383,8.66526127 66.606,8.318 C65.5026867,7.9915821 64.3725903,7.7636888 63.229,7.637 C61.28,7.437 60.306,7.507 59.494,9.325 C58.7262873,11.0524616 58.3290851,12.9216283 58.328,14.812 L58.328,14.812 Z" id="Path_1152"></path>
                    <path d="M77.97,5.948 C78.5189521,5.18788084 79.1504755,4.49095807 79.853,3.87 C81.0516849,2.79866702 82.8338562,2.70427764 84.139,3.643 C85.0183417,4.3633238 86.1752759,4.64943547 87.289,4.422 C88.0795598,4.23606203 88.9036787,4.24705028 89.689,4.454 C91.5957688,5.11541604 93.0846737,6.62872923 93.715,8.546 C94.3953049,10.4059158 94.7150054,12.37842 94.657,14.358 C94.7905373,20.1771656 90.1821351,25.0031396 84.363,25.138 C82.238834,25.1258804 80.1890496,24.354418 78.584,22.963 C77.0034169,21.4427717 75.9945281,19.4246409 75.727,17.248 C75.5570231,16.2182157 75.4900259,15.1740631 75.527,14.131 C75.4917647,11.2185798 76.3438608,8.36442386 77.97,5.948 L77.97,5.948 Z M79.464,14.812 C79.4309782,16.1852565 79.7673602,17.5421814 80.438,18.741 C81.1516447,19.9749823 82.4550046,20.7497279 83.88,20.787 C85.6405752,20.9257195 87.3733447,20.2848872 88.62,19.034 C89.8185492,17.4486379 90.4376039,15.5004158 90.374,13.514 C90.4044166,12.8087575 90.3709467,12.1022092 90.274,11.403 C90.2136663,9.92393234 89.1791738,8.66449689 87.74,8.318 C86.636735,7.99138764 85.5066211,7.76349082 84.363,7.637 C82.415,7.437 81.442,7.507 80.63,9.325 C79.8614359,11.0521852 79.4641949,12.9215346 79.464,14.812 L79.464,14.812 Z" id="Path_1153"></path>
                    <path d="M110.794,22.248 C108.531335,21.9706393 106.243306,22.4996266 104.332,23.742 C103.553,24.229 102.741,24.813 101.932,25.365 C101.110226,25.8413617 100.075518,25.7365199 99.366,25.105 C98.7275214,24.4463614 98.3873488,23.5545381 98.425,22.638 C98.425,21.404 98.425,20.17 98.392,18.938 C98.262,13.97 97.906,9.038 97.321,4.066 C97.221,3.353 97.743,2.703 99.009,2.476 C101.153,2.151 101.802,4.651 101.996,6.21 C102.354,9.619 102.614,12.996 102.808,16.405 C102.873,17.444 102.873,19.198 102.938,20.075 C103.718,19.848 104.138,19.685 104.692,19.49 C106.145782,18.9609289 107.646034,18.5695442 109.173,18.321 C110.161061,18.1872416 111.165986,18.2552799 112.127,18.521 C113.153144,18.7619241 113.853986,19.7103454 113.783,20.762 C113.587,22.118 111.963,22.378 110.794,22.248 Z" id="Path_1154"></path>
                    <path d="M128.486,6.24 C128.315826,5.63051121 128.504318,4.97717446 128.973,4.552 C130.14774,3.53023978 131.517278,2.75702575 132.999,2.279 C133.928372,1.9480543 134.903079,1.76188187 135.889,1.727 C138.974,1.694 140.989,4.39 141.117,7.117 C141.154975,8.33946336 140.89879,9.55316746 140.37,10.656 C141.224535,11.0490872 142.004424,11.5873969 142.675,12.247 C144.178026,13.7155593 145.021585,15.7306481 145.013,17.832 C144.993488,19.1194248 144.548332,20.364175 143.747,21.372 C142.410216,23.1038208 140.730114,24.5408444 138.812,25.593 C137.49971,26.3046305 136.01696,26.6415877 134.526,26.567 C132.515532,26.477266 130.87266,24.9313082 130.661,22.93 C130.552912,22.1120247 130.509444,21.2868042 130.531,20.462 C130.564,16.501 130.631,12.345 130.694,8.156 C129.46,7.8 128.648,7.344 128.486,6.24 Z M133.973,19.618 C133.933874,20.2835133 134.080314,20.9468196 134.396,21.534 C134.782548,21.889566 135.300745,22.06629 135.824,22.021 C137.896107,22.1053006 139.863958,21.1100223 141.024,19.391 C141.493975,18.6963257 141.658107,17.8391523 141.478,17.02 C140.9367,15.0858397 138.933107,13.953705 136.997,14.488 C136.065335,14.8428476 135.053544,14.9325 134.074,14.747 C134.006,16.533 133.973,18.06 133.973,19.618 L133.973,19.618 Z M134.363,10.818 C135.335488,10.7081755 136.263468,10.3504124 137.058,9.779 C137.789449,9.17320657 138.094862,8.19306277 137.837,7.279 C137.675901,6.51700383 137.023661,5.95782398 136.246,5.915 C135.509967,5.7605033 134.742952,5.92590226 134.136,6.37 C134.111605,7.85608351 134.187444,9.34212084 134.363,10.818 L134.363,10.818 Z" id="Path_1155"></path>
                    <path d="M158.876,18.774 C159.662566,17.0929774 160.166979,15.2939146 160.369,13.449 C160.50965,12.0680889 160.55309,10.6790011 160.499,9.292 C160.406261,7.78302757 160.189191,6.28427791 159.85,4.811 C159.607354,3.99763249 159.738121,3.11852824 160.207,2.411 C160.660474,1.79079724 161.437925,1.49763453 162.188,1.664 C163.259,1.826 163.714,2.8 163.942,3.709 C164.752292,7.25486657 164.916923,10.9177391 164.428,14.522 C164.209573,18.4943004 162.337459,22.1935575 159.266,24.722 C158.214256,25.5915274 156.89558,26.0731 155.531,26.086 C153.444417,26.0671485 151.496297,25.0384871 150.304,23.326 C149.028654,21.5501764 148.254599,19.4639225 148.063,17.286 C147.560126,13.596257 147.364787,9.87110168 147.479,6.149 C147.511,4.525 147.738,2.869 149.687,2.869 C151.343,2.869 151.505,4.882 151.505,5.337 C151.57,8.552 151.635,11.737 151.862,14.948 C151.937192,16.2874778 152.233529,17.6052797 152.739,18.848 C153.291,20.148 154.265,21.575 155.889,21.575 C157.318,21.566 158.324,20.008 158.876,18.774 Z" id="Path_1156"></path>
                    <path d="M171.147,20.787 C171.169715,21.4220378 171.336229,22.0436434 171.634,22.605 C172.071769,23.2646822 172.914482,23.5233988 173.647,23.223 C174.385513,22.7986681 174.657742,21.8672656 174.264,21.112 C173.757393,20.2000522 173.193253,19.3212755 172.575,18.481 C171.341,16.793 170.205,15.137 169.133,13.416 C168.03883,11.891454 167.39723,10.0890109 167.282,8.216 C167.248062,6.43991956 167.982142,4.73557111 169.296,3.54 C170.843181,2.15457144 172.836546,1.37099506 174.913,1.332 C177.706,1.332 180.596,2.761 180.498,5.91 C180.466,7.079 180.109,7.729 178.907,7.956 C177.479,8.216 176.667,6.593 176.374,5.424 C175.859996,5.16247715 175.294459,5.01801918 174.718,5.001 C173.127,5.001 171.277,6.235 171.212,7.859 C171.20051,8.51344624 171.380936,9.15692945 171.731,9.71 C172.700864,11.3805908 173.763181,12.9957676 174.913,14.548 C176.894,17.307 179.329,20.133 179.167,22.99 C179.005,26.01 176.18,27.568 173.452,27.568 C170.724,27.568 168.029,26.139 167.64,23.412 C167.38,21.594 167.802,18.996 169.718,18.996 C170.692,19 171.049,19.846 171.147,20.787 Z" id="Path_1157"></path>
                </g>
                <polygon id="Path_2257" fill="#F97700" points="33.222 148.012 241.777 148.012 241.777 152.521 33.222 152.521"></polygon>
                <circle id="Ellipse_107" fill="#2C327E" cx="125.456" cy="201.627" r="41.034"></circle>
                <circle id="Ellipse_108" fill="#2C327E" cx="373.01" cy="201.627" r="41.034"></circle>
                <path d="M414.044,163.469 C414.044,169.236 421.308,173.91 430.269,173.91 C431.778579,173.909524 433.284917,173.770271 434.769,173.494 L434.769,156.764 C434.769,155.642 434.728,154.53 434.658,153.425 C433.209489,153.161272 431.740322,153.027407 430.268,153.025 C421.308,153.028 414.044,157.7 414.044,163.469 Z" id="Path_1158" fill="#FFFFFF"></path>
                <path d="M272.74,32.719 L318.133,32.719 C324.109826,32.719 328.955,37.5641744 328.955,43.541 L328.955,174.906 C328.955,180.882826 324.109826,185.728 318.133,185.728 L272.74,185.728 C266.763174,185.728 261.918,180.882826 261.918,174.906 L261.918,43.541 C261.918,37.5641744 266.763174,32.719 272.74,32.719 Z" id="Path_2256" fill="#F97700"></path>
                <path d="M340.678,37.228 L340.678,90.133 C340.678,92.6232519 342.696748,94.642 345.187,94.642 L368.5,94.642 C370.990252,94.642 373.009,92.6232519 373.009,90.133 L373.009,69.676 C373.008917,68.3260988 372.576068,67.0117808 371.774,65.926 L358.785,48.34 C358.212149,47.56426 357.903027,46.6253295 357.903,45.661 L357.903,37.228 C357.903,34.7377481 355.884252,32.719 353.394,32.719 L345.186,32.719 C342.696139,32.7195522 340.678,34.7381385 340.678,37.228 Z" id="Path_1159" fill="#C6DDFF"></path>
                <path d="M266.621,11.221 L324.251,11.221 C328.863682,11.221 332.603,14.9603178 332.603,19.573 L332.603,19.873 C332.600792,24.4841201 328.862121,28.2210005 324.251,28.221 L266.621,28.221 C262.008318,28.221 258.269,24.4816822 258.269,19.869 L258.269,19.569 C258.271208,14.9578799 262.009879,11.2209995 266.621,11.221 Z" id="Path_2255" fill="#F97700"></path>
                <polygon id="Path_1160" fill="#FDBD28" points="328.954 107.823 297.435 107.823 297.435 32.723 293.435 32.723 293.435 107.823 261.917 107.823 261.917 111.823 293.435 111.823 293.435 185.723 297.435 185.723 297.435 111.823 328.954 111.823"></polygon>
                <circle id="Ellipse_109" fill="#FFFFFF" cx="125.214" cy="202.487" r="15.106"></circle>
                <circle id="Ellipse_110" fill="#FFFFFF" cx="373.01" cy="202.487" r="15.106"></circle>
                <path d="M44.044,32.719 L230.955,32.719 C236.931826,32.719 241.777,37.5641744 241.777,43.541 L241.777,91.654 C241.777,97.6308256 236.931826,102.476 230.955,102.476 L44.044,102.476 C38.0671744,102.476 33.222,97.6308256 33.222,91.654 L33.222,43.541 C33.222,37.5641744 38.0671744,32.719 44.044,32.719 Z" id="Path_2254" fill="#C6DDFF"></path>
                <g id="Group_479" transform="translate(84.000000, 32.000000)" fill="#FF5A25">
                    <polygon id="Path_2253" points="0.16 0.719 5.16 0.719 5.16 70.476 0.16 70.476"></polygon>
                </g>
                <g id="Group_480" transform="translate(136.000000, 32.000000)" fill="#FF5A25">
                    <polygon id="Path_2252" points="0.467 0.719 5.467 0.719 5.467 70.476 0.467 70.476"></polygon>
                </g>
                <g id="Group_481" transform="translate(188.000000, 32.000000)" fill="#FF5A25">
                    <polygon id="Path_2251" points="0.774 0.719 5.774 0.719 5.774 70.476 0.774 70.476"></polygon>
                </g>
            </g>
        </g>
    </g>
</svg>