<svg data-name="Component 89 1" xmlns="http://www.w3.org/2000/svg" width="62" height="62" viewBox="0 0 62 62"><path d="M27.854 27.878a.745.745 0 0 0-.3.845l.011.04a.879.879 0 0 0 1.337.4 3.474 3.474 0 0 0 1.487-3.158v-5.659a1.9 1.9 0 0 1 1.245-1.6.787.787 0 0 0 .452-.7.864.864 0 0 0-1.278-.705 3.4 3.4 0 0 0-2.152 3.015v5.663a1.951 1.951 0 0 1-.802 1.859zm-3.841 0a.75.75 0 0 0-.3.845l.011.04a.879.879 0 0 0 1.337.4 3.474 3.474 0 0 0 1.487-3.158v-5.659a1.9 1.9 0 0 1 1.245-1.6.787.787 0 0 0 .452-.7.865.865 0 0 0-1.278-.705 3.4 3.4 0 0 0-2.152 3.015v5.663a1.975 1.975 0 0 1-.802 1.859zm-4.062.892a.876.876 0 0 0 1.337.4 3.471 3.471 0 0 0 1.487-3.155v-5.67a1.9 1.9 0 0 1 1.249-1.6.787.787 0 0 0 .452-.7.865.865 0 0 0-1.278-.705 3.4 3.4 0 0 0-2.152 3.015v5.663a1.954 1.954 0 0 1-.8 1.869.75.75 0 0 0-.3.845l.011.037zm-3.94 2.916a11.426 11.426 0 0 0 8.083 10.665v1.7a.705.705 0 0 0 .705.705h12.405a.705.705 0 0 0 .705-.705v-1.689a11.433 11.433 0 0 0 8.083-10.665v-.533a.705.705 0 0 0-.705-.705H16.72a.705.705 0 0 0-.705.705zm28.887-10.044H33.774a1.1 1.1 0 0 1 0-2.2h11.124a1.1 1.1 0 0 1 0 2.2zm0 4.4H33.774a1.1 1.1 0 1 1 0-2.2h11.124a1.1 1.1 0 1 1 0 2.2zm-26.651-4.4h-1.146a1.1 1.1 0 0 1 0-2.2h1.146a1.1 1.1 0 0 1 0 2.2zm0 4.4h-1.146a1.1 1.1 0 0 1 0-2.2h1.146a1.1 1.1 0 1 1 0 2.2z" fill="#fff"/></svg>
