<svg data-name="Component 88 1" xmlns="http://www.w3.org/2000/svg" width="62" height="62" viewBox="0 0 62 62"><path d="M16 18.231a2.875 2.875 0 0 1 2.877-2.874h23.178a2.875 2.875 0 0 1 2.877 2.874v19.954a2.875 2.875 0 0 1-2.877 2.874H20.1a1.737 1.737 0 1 0-.033 3.449h24.868a1.068 1.068 0 0 1 .025 2.135H20.1a3.982 3.982 0 0 1-4.1-3.859q0-.107.006-.213 0-.045-.006-.09v-24.25zm23.918 11.66h-18.93A1.068 1.068 0 0 0 21 32.026h18.947a1.068 1.068 0 0 0-.025-2.135zm0-6.076h-18.93A1.068 1.068 0 0 0 21 25.95h18.947a1.068 1.068 0 0 0-.025-2.135z" fill="#fff"/></svg>
