<svg data-name="Component 87 1" xmlns="http://www.w3.org/2000/svg" width="62" height="62" viewBox="0 0 62 62"><g data-name=",,," fill="#fff"><path data-name="Path 61" d="M14.262 39.014a2.986 2.986 0 1 0 .875-2.112 3.022 3.022 0 0 0-.875 2.112zm27.564 0a2.986 2.986 0 1 0 .875-2.112 3.022 3.022 0 0 0-.875 2.112z"/><path data-name="Path 62" d="M49.332 20.726h-34a3.859 3.859 0 0 0-3.7 2.763 44.113 44.113 0 0 0-1.325 15.293 1.665 1.665 0 0 0 1.664 1.558h.936a.324.324 0 0 0 .317-.4 4.032 4.032 0 0 1-.114-.948 4.142 4.142 0 0 1 8.283 0 4.058 4.058 0 0 1-.114.948.324.324 0 0 0 .317.4h18.846a.324.324 0 0 0 .317-.4 4.032 4.032 0 0 1-.114-.948 4.142 4.142 0 0 1 8.283 0 4.058 4.058 0 0 1-.114.948.324.324 0 0 0 .317.4h1.029a1.668 1.668 0 0 0 1.668-1.668V23.226a2.5 2.5 0 0 0-2.496-2.5zm-29.163 9.04l-2.441 1.86h-5.711a34.692 34.692 0 0 1 1.286-7.636 2.129 2.129 0 0 1 2.03-1.513h4.837zm9.581-.326h-7.913v-6.973h7.917v6.973zm10.415 0h-8.748v-6.973h8.747zm9.923 0h-8.255v-6.973h7.584a.67.67 0 0 1 .667.667v6.306z"/></g></svg>
