<svg t="1633535382537" class="icon" viewBox="0 0 1024 1024" version="1.1" xmlns="http://www.w3.org/2000/svg" p-id="5195" width="200" height="200"><path d="M514.6112 509.696m-450.816 0a450.816 450.816 0 1 0 901.632 0 450.816 450.816 0 1 0-901.632 0Z" fill="#E9F4FF" p-id="5196"></path><path d="M675.4816 672.6144c-17.8176-75.6224-69.2736-135.6288-136.448-165.7856 41.5744-31.8464 67.6352-83.0464 64.5632-139.9808-4.4032-82.3296-70.656-149.7088-152.8832-155.4432-96.256-6.7072-176.6912 69.6832-176.6912 164.5056 0 53.2992 25.4464 100.7616 64.8192 130.9184-67.1744 30.1568-118.6304 90.1632-136.448 165.7856-5.0688 21.6064-11.1616 50.944 3.9936 67.6864 13.2608 14.6432 44.4416 15.4624 64.2048 15.4624h347.136c3.4816 0 30.9248-0.768 34.304-1.6384 34.5088-8.4992 31.232-48.4864 23.4496-81.5104z m-139.5712 30.5664H344.832a33.28 33.28 0 1 1 0-66.56h191.0784a33.28 33.28 0 1 1 0 66.56z" fill="#2595E8" p-id="5197"></path><path d="M539.0336 506.8288c39.3728-30.1568 64.8192-77.6192 64.8192-130.9184 0-90.9312-73.984-164.9152-164.9152-164.9152S274.0224 284.9792 274.0224 375.9104c0 53.2992 25.4464 100.7616 64.8192 130.9184-67.1744 30.1568-118.6304 90.1632-136.448 165.7856-4.7616 20.1216-12.032 46.6944 1.3824 62.5664 5.0176 5.9392 14.1312 11.8784 26.3168 14.6944 30.2592 6.656 62.1056 4.3008 94.3616 4.3008 74.0352 0 143.7184-18.4832 204.8-50.9952H344.832a33.28 33.28 0 1 1 0-66.56h191.0784a33.28 33.28 0 0 1 31.6416 43.5712 438.84032 438.84032 0 0 0 82.6368-72.0896 241.08032 241.08032 0 0 0-111.1552-101.2736z" fill="#3A9CED" p-id="5198"></path><path d="M744.704 487.7824c27.2896-26.0608 44.288-62.7712 44.288-103.424 0-78.9504-64.2048-143.1552-143.1552-143.1552-17.7664 0-32.2048 14.4384-32.2048 32.2048s14.4384 32.2048 32.2048 32.2048c43.4176 0 78.7456 35.328 78.7456 78.7456 0 40.6528-30.9248 74.1376-70.5024 78.2848-2.7648-0.1024-5.4784-0.2048-8.2432-0.2048-17.7664 0-32.2048 14.4384-32.2048 32.2048v0.6144c0 17.7664 14.4384 32.2048 32.2048 32.2048 3.072 0 6.144-0.1536 9.1648-0.3072 73.8816 4.7616 132.5568 66.304 132.5568 141.3632 0 17.7664 14.4384 32.2048 32.2048 32.2048s32.2048-14.4384 32.2048-32.2048c0-77.7728-43.4176-145.664-107.264-180.736z" fill="#2595E8" p-id="5199"></path><path d="M760.2688 298.3936c-26.1632-34.7136-67.6864-57.1904-114.432-57.1904-17.7664 0-32.2048 14.4384-32.2048 32.2048s14.4384 32.2048 32.2048 32.2048c43.4176 0 78.7456 35.328 78.7456 78.7456 0 40.6528-30.9248 74.1376-70.5024 78.2848-2.7648-0.1024-5.4784-0.2048-8.2432-0.2048-17.7664 0-32.2048 14.4384-32.2048 32.2048v0.6144c0 17.7664 14.4384 32.2048 32.2048 32.2048 3.072 0 6.144-0.1536 9.1648-0.3072 16.2304 1.024 31.744 4.864 46.08 10.9056 37.888-64.6656 59.648-139.9296 59.648-220.2624 0-6.4512-0.2048-12.9024-0.4608-19.4048z" fill="#3A9CED" p-id="5200"></path><path d="M613.632 273.408c0 7.936 2.8672 15.1552 7.6288 20.7872 5.1712-16.4864 9.4208-33.3824 12.6464-50.688a32.21504 32.21504 0 0 0-20.2752 29.9008zM233.5744 598.272c163.2768-10.5472 302.08-110.8992 367.5136-252.16-14.08-76.7488-81.408-135.168-162.2016-135.168-90.9312 0-164.9152 73.984-164.9152 164.9152 0 53.2992 25.4464 100.7616 64.8192 130.9184-43.1616 19.456-79.7696 51.2-105.216 91.4944z" fill="#59ADF8" p-id="5201"></path><path d="M479.232 215.9616c-12.9024-3.2768-26.4192-5.0176-40.2944-5.0176-90.9312 0-164.9152 73.984-164.9152 164.9152 0 10.0864 0.9216 19.968 2.6624 29.5424 86.3232-39.4752 157.5424-106.2912 202.5472-189.44z" fill="#6BC2FC" p-id="5202"></path></svg>