<?xml version="1.0" standalone="no"?><!DOCTYPE svg PUBLIC "-//W3C//DTD SVG 1.1//EN" "http://www.w3.org/Graphics/SVG/1.1/DTD/svg11.dtd"><svg class="icon" width="200px" height="200.00px" viewBox="0 0 1024 1024" version="1.1" xmlns="http://www.w3.org/2000/svg"><path d="M527.488 1024C229.248 1024 0 794.752 0 527.488 0 229.248 229.248 0 527.488 0 794.752 0 1024 229.248 1024 527.488 1024 794.752 794.752 1024 527.488 1024zM512 960a448 448 0 1 0 0-896 448 448 0 0 0 0 896z m-96-576h160v384h64v32H416v-32h64V416h-64v-32z m96-64a64 64 0 1 1 0-128 64 64 0 0 1 0 128z" fill="#018BE6" /></svg>