<svg t="1633535545391" class="icon" viewBox="0 0 1024 1024" version="1.1" xmlns="http://www.w3.org/2000/svg" p-id="13101" width="200" height="200"><path d="M994.742857 295.009524L733.866667 555.885714c-39.009524 39.009524-99.961905 39.009524-138.971429 0l-126.780952-126.780952c-39.009524-39.009524-39.009524-99.961905 0-138.971429L728.990476 29.257143c39.009524-39.009524 99.961905-39.009524 138.971429 0l126.780952 126.780952c39.009524 39.009524 39.009524 99.961905 0 138.971429z" fill="#95CEF9" p-id="13102"></path><path d="M555.885714 733.866667L295.009524 994.742857c-39.009524 39.009524-99.961905 39.009524-138.971429 0l-126.780952-126.780952c-39.009524-39.009524-39.009524-99.961905 0-138.971429l260.87619-260.87619c39.009524-39.009524 99.961905-39.009524 138.971429 0l126.780952 126.780952c36.571429 39.009524 36.571429 102.4 0 138.971429z" fill="#2C9EF4" p-id="13103"></path><path d="M341.333333 682.666667c-14.628571-14.628571-14.628571-36.571429 0-51.2L631.466667 341.333333c14.628571-14.628571 36.571429-14.628571 51.2 0 14.628571 14.628571 14.628571 36.571429 0 51.2L392.533333 682.666667c-14.628571 14.628571-36.571429 14.628571-51.2 0z" fill="#FFFFFF" p-id="13104"></path></svg>