<?xml version="1.0" standalone="no"?><!DOCTYPE svg PUBLIC "-//W3C//DTD SVG 1.1//EN" "http://www.w3.org/Graphics/SVG/1.1/DTD/svg11.dtd"><svg class="icon" width="200px" height="200.00px" viewBox="0 0 1024 1024" version="1.1" xmlns="http://www.w3.org/2000/svg"><path d="M356.886 705.604c-50.585 45.263-84.127 42.525-118.308 8.229l-39.148-42.014c-34.181-34.281-34.181-89.873 0-124.169l167.545-168.056c34.18-34.296 89.603-34.296 123.784 0l30.933 31.031c26.405 26.49 32.423 65.681 18.035 97.962l74.805 57.253c51.279-51.436 51.279-134.825 0-186.246l-92.839-93.123c-51.265-51.436-134.384-51.436-185.664 0l-229.437 230.148c-51.265 51.422-51.265 134.811 0 186.246l92.839 93.123c51.265 51.422 134.399 51.422 185.679 0l88.568-91.589-63.269-60.716-53.521 61.921zM923.982 317.504l-92.826-93.123c-51.279-51.436-134.399-51.436-185.678 0 0 0 3.661-0.923-50.273 53.181l61.652 59.097 27.399-30.236c34.181-34.281 89.604-34.281 123.784 0l30.946 31.046c34.181 34.281 34.181 89.873 0 124.169l-151.141 157.088c-34.181 34.281-89.59 34.281-123.771 0l-25.484-42.014c-53.649-40.098-37.161-49.691-32.607-76.763l-68.051-67.37c-51.28 51.436-51.28 134.825 0 186.246l92.826 93.137c51.279 51.421 134.399 51.421 185.678 0l207.544-208.21c73.159-84.355 0-186.247 0-186.247z" fill="#15a4f9" /></svg>