<?xml version="1.0" standalone="no"?><!DOCTYPE svg PUBLIC "-//W3C//DTD SVG 1.1//EN" "http://www.w3.org/Graphics/SVG/1.1/DTD/svg11.dtd"><svg class="icon" width="200px" height="200.00px" viewBox="0 0 1024 1024" version="1.1" xmlns="http://www.w3.org/2000/svg"><path d="M862.991059 945.212235H154.081882V157.545412h105.712942c16.293647 45.718588 59.602824 78.757647 110.863058 78.757647h275.727059c51.260235 0 94.569412-33.039059 110.863059-78.757647h105.743059v787.666823zM370.657882 78.757647h275.727059a39.424 39.424 0 0 1 0 78.787765H370.657882A39.454118 39.454118 0 0 1 331.294118 118.151529a39.454118 39.454118 0 0 1 39.363764-39.393882z m492.333177 0h-105.743059C740.954353 33.008941 697.645176 0 646.384941 0H370.657882c-51.260235 0-94.569412 33.039059-110.863058 78.787765h-105.712942A78.848 78.848 0 0 0 75.294118 157.545412v787.666823A78.848 78.848 0 0 0 154.081882 1024h708.909177a78.848 78.848 0 0 0 78.757647-78.757647V157.545412a78.848 78.848 0 0 0-78.757647-78.787765z" fill="#3399FF" /><path d="M436.314353 733.726118L273.046588 551.152941l73.426824-65.65647 121.133176 135.529411 228.653177-233.893647 70.384941 68.818824-272.835765 279.070117a39.363765 39.363765 0 0 1-57.494588-1.295058" fill="#0080FF" /></svg>