<svg t="1633535514732" class="icon" viewBox="0 0 1024 1024" version="1.1" xmlns="http://www.w3.org/2000/svg" p-id="11986" width="200" height="200"><path d="M660.736 468.8384a95.7696 95.7696 0 0 1-67.6352 27.8528c-24.6784 0-49.3568-9.472-68.1472-28.3648-37.376-37.632-37.12-98.4576 0.512-135.7824l193.024-191.5904H260.4544c-60.7232 0-109.9776 49.2544-109.9776 109.9776v540.672c0 60.7232 49.2544 109.9776 109.9776 109.9776h466.4832c60.7232 0 109.9776-49.2544 109.9776-109.9776v-497.664l-176.1792 174.8992zM296.2432 421.376h121.9072c20.0704 0 36.352 16.2816 36.352 36.352 0 20.0704-16.2816 36.352-36.352 36.352H296.2432c-20.0704 0-36.352-16.2816-36.352-36.352 0-20.0704 16.2816-36.352 36.352-36.352z m333.9776 287.4368H282.9824c-20.0704 0-36.352-16.2816-36.352-36.352 0-20.0704 16.2816-36.352 36.352-36.352h347.1872c20.0704 0 36.352 16.2816 36.352 36.352 0 20.0704-16.2304 36.352-36.3008 36.352z" fill="#2595E8" p-id="11987"></path><path d="M593.1008 436.992c-9.3184 0-18.688-3.584-25.8048-10.752-14.1312-14.2336-14.0288-37.2224 0.2048-51.4048l244.1216-241.9712c14.2336-14.1312 37.2224-14.0288 51.4048 0.2048 14.1312 14.2336 14.0288 37.2224-0.2048 51.4048l-244.1216 241.9712a36.03456 36.03456 0 0 1-25.6 10.5472z" fill="#2595E8" p-id="11988"></path><path d="M804.1472 140.3392l-236.6464 234.5472a36.37248 36.37248 0 0 0-0.2048 51.4048c7.1168 7.168 16.4352 10.752 25.8048 10.752 9.2672 0 18.5344-3.5328 25.6-10.5472l205.7216-203.9296c-4.8128-28.16-11.6224-55.6032-20.2752-82.2272z" fill="#3A9CED" p-id="11989"></path><path d="M593.1008 496.6912c-24.6784 0-49.3568-9.472-68.1472-28.3648-37.376-37.632-37.12-98.4576 0.512-135.7824l193.024-191.5904H260.4544c-60.7232 0-109.9776 49.2544-109.9776 109.9776v540.672c0 60.7232 49.2544 109.9776 109.9776 109.9776h58.5728c289.4336-34.8672 513.792-281.2416 513.792-580.096 0-7.7312-0.2048-15.4112-0.512-23.04l-171.5712 170.3424a95.51872 95.51872 0 0 1-67.6352 27.904zM296.2432 421.376h121.9072c20.0704 0 36.352 16.2816 36.352 36.352 0 20.0704-16.2816 36.352-36.352 36.352H296.2432c-20.0704 0-36.352-16.2816-36.352-36.352 0-20.0704 16.2816-36.352 36.352-36.352z m333.9776 287.4368H282.9824c-20.0704 0-36.352-16.2816-36.352-36.352 0-20.0704 16.2816-36.352 36.352-36.352h347.1872c20.0704 0 36.352 16.2816 36.352 36.352 0 20.0704-16.2304 36.352-36.3008 36.352z" fill="#3A9CED" p-id="11990"></path><path d="M567.5008 374.8864a36.37248 36.37248 0 0 0-0.2048 51.4048 34.9696 34.9696 0 0 0 10.5984 7.2704c26.88-41.0624 48.7424-85.7088 64.6656-133.0688l-75.0592 74.3936z" fill="#59ADF8" p-id="11991"></path><path d="M246.9376 676.6592c-0.1536-1.3824-0.256-2.7648-0.256-4.1472 0-20.0704 16.2816-36.352 36.352-36.352H351.232c74.1888-37.376 139.3152-90.112 191.232-154.0096-6.1952-3.84-12.0832-8.3968-17.4592-13.824-37.376-37.632-37.12-98.4576 0.512-135.7824l142.4384-141.4144c2.2016-16.5376 3.6864-33.28 4.4544-50.176H260.4544c-60.7232 0-109.9776 49.2544-109.9776 109.9776v444.16c33.024-3.4816 65.28-9.6768 96.4608-18.432z m49.3056-255.2832h121.9072c20.0704 0 36.352 16.2816 36.352 36.352 0 20.0704-16.2816 36.352-36.352 36.352H296.2432c-20.0704 0-36.352-16.2816-36.352-36.352 0-20.0704 16.2816-36.352 36.352-36.352z" fill="#59ADF8" p-id="11992"></path><path d="M477.3376 140.9536H260.4544c-60.7232 0-109.9776 49.2544-109.9776 109.9776V453.12c146.3296-56.0128 264.3968-169.1648 326.8608-312.1664z" fill="#6BC2FC" p-id="11993"></path></svg>