<?xml version="1.0" standalone="no"?><!DOCTYPE svg PUBLIC "-//W3C//DTD SVG 1.1//EN" "http://www.w3.org/Graphics/SVG/1.1/DTD/svg11.dtd"><svg class="icon" width="200px" height="200.00px" viewBox="0 0 1024 1024" version="1.1" xmlns="http://www.w3.org/2000/svg"><path d="M625.664 863.104c35.008-0.448 70.016-1.088 105.024-1.984a38.4 38.4 0 0 0 36.48-36.416c2.624-107.136 0.064-214.336 0.064-321.536a26.432 26.432 0 0 1 6.656-17.216 26.112 26.112 0 0 1 7.488-5.696 25.984 25.984 0 0 1 33.216 9.472 28.352 28.352 0 0 1 3.712 11.136c4.928 107.264 0.128 214.848 0.128 322.24a90.24 90.24 0 0 1-55.36 82.496 95.296 95.296 0 0 1-29.824 6.72c-146.048 3.584-292.224 0.064-438.336 0.064a94.464 94.464 0 0 1-25.728-3.84 90.24 90.24 0 0 1-56.768-51.456 95.68 95.68 0 0 1-6.72-29.824c-2.688-108.288-0.064-216.576-0.064-324.864a25.6 25.6 0 0 1 23.232-25.472c2.368-0.128 2.368-0.128 4.736 0a25.856 25.856 0 0 1 23.104 23.104c4.992 108.096-2.496 216.448 0.192 324.672a38.528 38.528 0 0 0 36.416 36.416c35.008 0.896 70.016 1.536 105.024 1.984-0.896-38.4-0.96-76.864 0.448-115.328a113.792 113.792 0 0 1 107.52-107.52c2.88-0.064 5.696-0.128 8.576-0.064a113.856 113.856 0 0 1 110.464 110.4c0.448 37.504 1.024 75.008 0.32 112.512z m-51.712 0.512c-0.256-38.272 2.368-76.608 0-114.816a62.976 62.976 0 0 0-19.072-40.32 62.784 62.784 0 0 0-63.872-13.504 62.656 62.656 0 0 0-34.56 30.528 65.92 65.92 0 0 0-6.528 24.832c-1.408 37.76 0.576 75.52 0.128 113.28 41.344 0.32 82.624 0.32 123.904 0zM515.648 110.08c27.456 1.024 54.144 8.576 77.504 23.104 8.768 5.504 16.832 11.904 24.384 18.88 101.056 98.112 199.68 198.72 299.52 298.112a28.8 28.8 0 0 1 6.784 11.904 25.92 25.92 0 0 1-14.656 29.76 25.28 25.28 0 0 1-8.064 1.984 26.752 26.752 0 0 1-18.112-5.504c-106.112-94.72-198.08-204.416-302.592-300.864a105.792 105.792 0 0 0-27.648-17.792 103.488 103.488 0 0 0-81.472 0 106.176 106.176 0 0 0-27.712 17.792C339.776 283.328 243.2 386.752 143.104 486.464a26.688 26.688 0 0 1-25.664 6.336 25.92 25.92 0 0 1-17.792-27.968 28.544 28.544 0 0 1 5.44-12.608c94.912-105.28 199.616-201.408 301.376-300.16a167.04 167.04 0 0 1 24.448-18.88 156.928 156.928 0 0 1 77.44-23.104h7.296z" fill="#1296db" /></svg>