<svg t="1633535584578" class="icon" viewBox="0 0 1024 1024" version="1.1" xmlns="http://www.w3.org/2000/svg" p-id="15089" width="200" height="200"><path d="M137.3696 450.56h766.0544v282.368H137.3696z" fill="#DCEDFF" p-id="15090"></path><path d="M882.944 758.528H157.8496c-25.3952 0-46.08-20.6848-46.08-46.08V188.672c0-25.3952 20.6848-46.08 46.08-46.08h725.0944c25.3952 0 46.08 20.6848 46.08 46.08v523.776c0 25.3952-20.6848 46.08-46.08 46.08z m-719.9744-51.2h714.8544V193.792H162.9696v513.536zM278.528 830.208h478.464v51.2H278.528z" fill="#5B90EF" p-id="15091"></path><path d="M449.95072 617.26208l88.66816-360.0896 49.7152 12.24192-88.66816 360.0896zM660.4288 604.2624l-36.7104-35.6864 121.4976-125.0304-121.2416-121.2416 36.1984-36.1984 139.0592 139.0592a25.58976 25.58976 0 0 1 0.256 35.9424l-139.0592 143.1552zM374.0672 604.5696L235.008 465.4592a25.58976 25.58976 0 0 1-0.256-35.9424l139.0592-143.104 36.7104 35.6864-121.4976 125.0304L410.2656 568.32l-36.1984 36.2496z" fill="#5B90EF" p-id="15092"></path></svg>