<?xml version="1.0" standalone="no"?><!DOCTYPE svg PUBLIC "-//W3C//DTD SVG 1.1//EN" "http://www.w3.org/Graphics/SVG/1.1/DTD/svg11.dtd"><svg class="icon" width="200px" height="200.00px" viewBox="0 0 1024 1024" version="1.1" xmlns="http://www.w3.org/2000/svg"><path d="M875.50720001 936.25813333H124.99840001c-19.4176 0-38.83626667-9.7088-51.45813334-24.272l-0.97066667-0.97066667c-12.62186667-17.47733333-16.5056-37.86666667-11.65119999-56.31253333 39.808-201.9488 206.8032-355.35146667 405.83786666-371.85706667 4.8544-0.97066667 8.73813333-1.94133333 12.62186666-1.94133333h36.89493334l-4.85546666 48.54506667H492c-7.76746667 0-11.6512 0-17.47626666 1.94133333h-2.91200001C291.99253333 544.01386666 141.504 681.88266666 106.5504 865.38346666c-0.97066667 4.8544-0.97066667 11.6512 3.88266667 16.5056l0.97066667 1.94133334c2.91413333 3.88373333 7.76853333 5.82613333 13.5936 5.82613333h751.47946667c5.82506667 0 10.67946667-1.94133333 13.59253333-5.82613333 4.8544-5.82506667 5.82506667-11.65013333 4.85439999-18.44693334-22.33066667-120.39253333-95.1488-222.336-198.06399999-280.59093333l-0.97066667-0.97066667c-7.76746667-4.85546667-17.47626667-9.70986667-26.2144-14.56426666-2.91306667-1.94133333-5.82613333-2.912-8.73813333-4.85333334l-13.59253333-5.82613333 19.41759999-43.69066667 13.59253333 5.82506667c9.7088 3.88373333 19.41866667 9.7088 28.1568 13.59253333l11.65013334 5.82613334c116.5088 66.02133333 197.09333333 180.58666667 223.30773333 314.5728 4.8544 19.4176 0 39.80693333-14.5632 57.2832-13.59253333 15.53386667-33.98186667 24.272-53.39946666 24.272z" fill="#728bfe" /><path d="M505.59253333 514.8864c-122.33386667 0-223.30773333-100.97386667-223.30773332-223.30773334S383.25866668 68.27093333 505.59253333 68.27093333s223.30773333 100.97386667 223.30773334 223.30666667-101.94453333 223.3088-223.30666667 223.3088z m0-411.66293334c-104.8576 0-188.3552 84.46826667-188.35519999 188.3552s84.46933333 188.3552 188.35519999 188.3552 188.3552-84.46933333 188.3552-188.3552-84.46933333-188.3552-188.3552-188.3552z" fill="#728bfe" /><path d="M505.59253333 519.7408c-126.2176 0-228.16213333-101.94453333-228.16213333-228.16213334S379.37493333 63.41546666 505.59253333 63.41546666s228.16213333 101.9456 228.16213335 228.1632-102.9152 228.16213333-228.16213335 228.16213334z m0-446.61546667c-120.39146667 0-218.45333333 98.0608-218.45333333 218.45333333s98.06186667 218.45333333 218.45333333 218.45333334 218.45333333-98.06186667 218.45333334-218.45333334-98.0608-218.45333333-218.45333334-218.45333333z m0 411.66293333c-106.79893333 0-193.2096-86.41066667-193.2096-193.2096s86.41066667-193.21066667 193.2096-193.21066666c106.8 0 193.2096 86.41066667 193.2096 193.21066666s-87.38133333 193.2096-193.2096 193.2096z m0-376.7104c-100.97386667 0-183.5008 82.52693333-183.5008 183.5008 0 100.97386667 82.52693333 183.5008 183.5008 183.5008s183.5008-82.528 183.50080001-183.5008c0-100.97386667-82.52693333-183.5008-183.50080001-183.5008zM207.52533333 775.088c-1.94133333 0-4.8544-0.97066667-6.7968-1.94133334-6.79573333-3.88373333-9.7088-12.62186667-5.82506666-19.41866666 85.44-166.02453333 270.88213333-197.09333333 278.6496-198.064 7.76746667-0.97066667 15.53386667 3.88373333 16.5056 11.6512 0.97066667 7.76746667-3.88373333 15.53386667-11.6512 16.5056-1.94133333 0-178.6464 30.09706667-257.2896 182.52906666-2.912 5.82613333-7.76746667 8.73813333-13.59253334 8.73813334z m-33.01119999 84.46933333c-7.7664 0-14.5632-6.7968-14.5632-14.56426667 0-28.15573333 18.44693333-58.25386667 21.36-61.16693333 3.88266667-6.79573333 13.59253333-8.73813333 20.38933333-4.85333333 6.79573333 3.88266667 8.73813333 13.59146667 4.85333333 20.38826666-4.85333333 6.79573333-16.50453333 29.12746667-16.50453333 45.632-0.97066667 7.76746667-6.7968 14.56426667-15.53493333 14.56426667z" fill="#728bfe" /></svg>