<svg t="1633535465579" class="icon" viewBox="0 0 1024 1024" version="1.1" xmlns="http://www.w3.org/2000/svg" p-id="10402" width="200" height="200"><path d="M777.6256 185.0368c-3.2768 28.2624-5.7856 48.3328-7.8848 68.4032-3.9424 37.7856 15.36 60.9792 53.1968 64.3584 17.8176 1.5872 35.584 3.7376 53.4016 5.12 18.432 1.4336 30.464 9.8304 34.816 28.5696 9.7792 42.3936 20.0192 84.736 29.8496 127.1296 4.4032 19.0464-1.536 33.0752-19.6608 42.4448-15.872 8.192-30.8736 18.0224-46.1824 27.2896-31.0272 18.8416-37.8368 48.2816-18.2784 79.2576 9.984 15.7696 19.6608 31.7952 30.3104 47.104 10.3424 14.8992 10.1376 28.4672-1.3824 42.496-28.6208 34.8672-57.088 69.888-85.4016 105.0112-10.1376 12.5952-21.9648 15.4624-37.2224 9.7792-19.6608-7.2704-39.8336-13.3632-59.8016-19.712-34.56-11.008-58.8288 1.0752-71.1168 35.4304-6.2976 17.5616-12.7488 35.072-18.688 52.7872-5.6832 16.8448-17.152 25.5488-34.816 25.5488-45.9264 0.1024-91.8528 0.1536-137.728-0.1024-15.6672-0.1024-26.1632-7.5776-31.1808-23.1424-5.9392-18.4832-12.6464-36.7616-19.3024-55.04-12.0832-33.1776-38.5536-46.2848-71.8336-35.584-19.968 6.4-40.1408 12.3904-59.7504 19.8656-15.4112 5.888-27.6992 2.4576-37.5808-9.5232-29.6448-36.0448-58.8288-72.4992-88.2176-108.7488-9.728-12.032-8.7552-24.1152-0.6144-36.5056 11.1104-16.896 22.1696-33.8432 32.8192-51.0464 18.5344-29.8496 11.52-58.8288-18.6368-77.4144-15.9232-9.7792-31.8976-19.4048-48.0256-28.7744-17.1008-9.9328-22.9376-23.9616-18.176-43.3152 10.0352-40.7552 20.0192-81.5104 28.9792-122.5216 4.5568-20.8384 16.64-30.208 37.2736-31.4368 18.6368-1.0752 37.1712-3.328 55.7568-5.3248 32.4608-3.4816 51.2512-25.7024 48.9472-58.5216-1.4848-20.9408-3.5328-41.8816-6.0416-62.72-2.048-17.152 5.0688-28.5184 20.0704-35.584 40.7552-19.3024 81.664-38.2976 122.3168-57.9072 15.872-7.6288 28.8256-2.816 40.3968 7.9872 14.7968 13.7728 28.9792 28.2112 43.5712 42.24 24.6784 23.7056 53.1456 23.7568 77.9776 0.0512 14.6432-13.9776 28.9792-28.2624 43.52-42.3424 12.4928-12.0832 26.0096-15.0016 42.4448-7.0144 39.8848 19.3024 80.7424 36.7616 120.064 57.1392 10.496 5.5296 23.296 13.7728 21.8112 24.2688zM369.6128 506.9824c1.536 79.0528 65.4336 142.7456 141.312 140.9024 79.9744-1.9456 142.336-64.0512 141.4144-140.9536-0.8704-75.6224-66.9184-137.0112-146.3296-135.9872-72.2944 0.9728-137.7792 66.304-136.3968 136.0384z" fill="#6C6CEA" p-id="10403"></path><path d="M854.9376 320.9216c-10.7008-1.0752-21.3504-2.1504-32.0512-3.1232-37.7856-3.3792-57.1392-26.5216-53.1968-64.3584 2.0992-20.1216 4.608-40.192 7.8848-68.4032 1.4848-10.4448-11.3152-18.7392-21.9136-24.2688-39.3216-20.3776-80.128-37.8368-120.064-57.1392-16.4352-7.9872-29.952-5.0688-42.4448 7.0144-14.5408 14.08-28.8768 28.3648-43.52 42.3424-24.7808 23.7056-53.2992 23.6544-77.9776-0.0512-14.592-14.0288-28.7744-28.4672-43.5712-42.24-11.6224-10.8032-24.5248-15.616-40.3968-7.9872-40.6528 19.5584-81.5616 38.6048-122.3168 57.9072-15.0016 7.1168-22.1184 18.4832-20.0704 35.584 2.5088 20.8384 4.5568 41.7792 6.0416 62.72 2.304 32.8192-16.4864 55.04-48.9472 58.5216-18.5344 1.9968-37.12 4.1984-55.7568 5.3248-20.6848 1.2288-32.7168 10.5984-37.2736 31.4368-8.96 41.0112-18.944 81.7664-28.9792 122.5216-4.7616 19.3024 1.0752 33.3824 18.176 43.3152 16.128 9.3696 32.1536 18.9952 48.0256 28.7744 30.208 18.5344 37.2224 47.5136 18.6368 77.4144-10.7008 17.152-21.7088 34.0992-32.8192 51.0464-8.1408 12.4416-9.1136 24.5248 0.6144 36.5056 29.3888 36.2496 58.5728 72.704 88.2176 108.7488 9.8816 11.9808 22.1696 15.4112 37.5808 9.5232 19.6096-7.4752 39.7824-13.4144 59.7504-19.8656 33.28-10.7008 59.7504 2.4064 71.8336 35.584 3.328 9.216 6.7072 18.432 9.984 27.648 256.8704-55.6544 450.048-282.112 454.5536-554.496z m-344.064 326.9632c-75.8784 1.8432-139.7248-61.8496-141.2608-140.9024-1.3824-69.7344 64.1024-135.0656 136.3456-135.9872 79.4112-1.0752 145.4592 60.3136 146.3296 135.9872 0.9216 76.8512-61.3888 138.9568-141.4144 140.9024z" fill="#757BF2" p-id="10404"></path><path d="M635.648 103.6288c-16.4352-7.9872-29.952-5.0688-42.4448 7.0144-14.5408 14.08-28.8768 28.3648-43.52 42.3424-24.7808 23.7056-53.2992 23.6544-77.9776-0.0512-14.592-14.0288-28.7744-28.4672-43.5712-42.24-11.6224-10.8032-24.5248-15.616-40.3968-7.9872-40.6528 19.5584-81.5616 38.6048-122.3168 57.9072-15.0016 7.1168-22.1184 18.4832-20.0704 35.584 2.5088 20.8384 4.5568 41.7792 6.0416 62.72 2.304 32.8192-16.4864 55.04-48.9472 58.5216-18.5344 1.9968-37.12 4.1984-55.7568 5.3248-20.6848 1.2288-32.7168 10.5984-37.2736 31.4368-8.96 41.0112-18.944 81.7664-28.9792 122.5216-4.7616 19.3024 1.0752 33.3824 18.176 43.3152 16.128 9.3696 32.1536 18.9952 48.0256 28.7744 30.208 18.5344 37.2224 47.5136 18.6368 77.4144-10.7008 17.152-21.7088 34.0992-32.8192 51.0464-1.3312 2.048-2.4064 4.096-3.328 6.0928 102.2976-1.6384 198.144-29.8496 280.8832-78.0288a146.26816 146.26816 0 0 1-40.3968-98.304c-1.3824-69.7856 64.1024-135.1168 136.3456-136.0384 40.3456-0.5632 77.2096 15.0528 103.8848 40.448a573.81888 573.81888 0 0 0 86.6816-279.296c-20.3264-9.472-40.704-18.7392-60.8768-28.5184z" fill="#8486F8" p-id="10405"></path><path d="M488.4992 165.12c-5.7344-2.9184-11.3152-6.912-16.7424-12.1344-14.592-14.0288-28.7744-28.4672-43.5712-42.24-11.6224-10.8032-24.5248-15.616-40.3968-7.9872-40.6528 19.5584-81.5616 38.6048-122.3168 57.9072-15.0016 7.1168-22.1184 18.4832-20.0704 35.584 2.5088 20.8384 4.5568 41.7792 6.0416 62.72 2.304 32.8192-16.4864 55.04-48.9472 58.5216-18.5344 1.9968-37.12 4.1984-55.7568 5.3248-20.6848 1.2288-32.7168 10.5984-37.2736 31.4368-8.3968 38.4-17.7152 76.6464-27.0848 114.8416 177.3568-33.536 326.0928-148.1728 406.1184-303.9744z" fill="#8D92F8" p-id="10406"></path></svg>