<?xml version="1.0" encoding="UTF-8"?>
<svg width="130px" height="134px" viewBox="0 0 130 134" version="1.1" xmlns="http://www.w3.org/2000/svg" xmlns:xlink="http://www.w3.org/1999/xlink">
    <title>书籍</title>
    <g id="书籍" stroke="none" stroke-width="1" fill="none" fill-rule="evenodd">
        <path d="M80.99973,24.99983 L96.999726,24.99983 C99.761135,24.99983 101.999964,27.238484 101.999964,29.999833 L101.999964,128.999764 L75.999666,128.999764 L75.999666,29.999833 C75.999666,27.238484 78.238495,24.99983 80.99973,24.99983 Z" id="圆角矩形-5-拷贝" fill="#DDE1F4"></path>
        <path d="M55.611046,56.945052 L41.084598,50.23819 C38.577432,49.080678 35.841282,49.666486 34.97308,51.54691 L5.421036,115.55406 C4.552834,117.434484 5.881498,119.89719 8.38849,121.054702 L22.91517,127.761482 C25.422104,128.919076 28.158428,128.333022 29.026456,126.452762 L58.578674,62.445448 C59.446702,60.565188 58.118212,58.102564 55.611046,56.945052 Z" id="圆角矩形-5-拷贝-3" fill="#DDE1F4"></path>
        <path d="M101.99995,6.999758 C101.99995,4.23842 104.23842,1.999816 106.99962,1.999816 L113.99986,1.999816 C116.76106,1.999816 118.99992,4.23842 118.99992,6.999758 L118.99992,128.99979 L126.99999,128.99979 C128.10434,128.99979 128.99978,129.895178 128.99978,130.999874 C128.99978,132.104436 128.10434,132.999824 126.99999,132.999824 L3.99984,132.999824 C2.89523,132.999824 1.99966,132.104436 1.99966,130.999874 C1.99966,129.895178 2.89523,128.99979 3.99984,128.99979 L101.99995,128.99979 L101.99995,6.999758 Z M70.99976,45.999788 C73.76122,45.999788 75.99969,48.238392 75.99969,50.999864 L75.99969,128.99979 L58.99972,128.99979 L58.99972,50.999864 C58.99972,48.238392 61.23845,45.999788 63.99978,45.999788 L70.99976,45.999788 Z" id="Combined-shape-376" fill="#B6BFE8"></path>
        <path d="M118.999401,84.1999926 L118.999833,128.999748 L126.999948,128.999748 C128.104305,128.999748 128.999737,129.89518 128.999737,130.999948 C128.999737,132.104442 128.104305,132.999874 126.999948,132.999874 L3.999841,132.999874 C2.89521,132.999874 1.999641,132.104442 1.999641,130.999948 C1.999641,129.89518 2.89521,128.999748 3.999841,128.999748 L58.999724,128.999748 L58.9988613,124.2031 C71.1768421,122.257267 88.0654317,118.384082 98.999888,110.999866 C110.07543,103.520308 115.964327,92.4614689 118.999401,84.1999926 Z" id="Combined-shape-381" fill="#6371B1" opacity="0.29" style="mix-blend-mode: multiply;"></path>
    </g>
</svg>