<?xml version="1.0" standalone="no"?><!DOCTYPE svg PUBLIC "-//W3C//DTD SVG 1.1//EN" "http://www.w3.org/Graphics/SVG/1.1/DTD/svg11.dtd"><svg t="1764924757207" class="icon" viewBox="0 0 1024 1024" version="1.1" xmlns="http://www.w3.org/2000/svg" p-id="2874" xmlns:xlink="http://www.w3.org/1999/xlink" width="200" height="200"><path d="M752.64 588.8m0 0l102.4 0q0 0 0 0l0 66.56q0 0 0 0l-102.4 0q0 0 0 0l0-66.56q0 0 0 0Z" fill="#E2E2E2" p-id="2875"></path><path d="M599.04 706.56m0 0l56.32 0q0 0 0 0l0 81.92q0 0 0 0l-56.32 0q0 0 0 0l0-81.92q0 0 0 0Z" fill="#E2E2E2" p-id="2876"></path><path d="M599.04 599.04m0 0l56.32 0q0 0 0 0l0 81.92q0 0 0 0l-56.32 0q0 0 0 0l0-81.92q0 0 0 0Z" fill="#E2E2E2" p-id="2877"></path><path d="M972.8 424.96h-373.76v128c0 5.12 0 15.36-5.12 20.48h92.16v240.64h-87.04v25.6h-25.6v-245.76c-5.12 0-15.36 5.12-20.48 5.12H424.96v378.88c0 25.6 20.48 46.08 46.08 46.08h501.76c25.6 0 46.08-20.48 46.08-46.08V471.04c0-25.6-20.48-46.08-46.08-46.08z m-87.04 419.84c0 30.72-15.36 40.96-40.96 40.96h-61.44v-30.72h56.32c15.36 0 20.48 0 20.48-20.48v-71.68h-107.52c0 46.08-30.72 87.04-71.68 122.88v10.24s-15.36-15.36-25.6-20.48c30.72-25.6 46.08-51.2 56.32-76.8 10.24-25.6 15.36-61.44 15.36-112.64v-128h158.72v286.72z" fill="#E2E2E2" p-id="2878"></path><path d="M752.64 680.96m0 0l102.4 0q0 0 0 0l0 66.56q0 0 0 0l-102.4 0q0 0 0 0l0-66.56q0 0 0 0Z" fill="#E2E2E2" p-id="2879"></path><path d="M573.44 593.92c10.24 0 15.36-10.24 20.48-20.48 0-5.12 5.12-15.36 5.12-20.48V46.08c0-25.6-20.48-46.08-46.08-46.08H51.2C25.6 0 5.12 20.48 5.12 46.08v506.88c0 25.6 20.48 46.08 46.08 46.08h501.76c5.12 0 15.36 0 20.48-5.12zM117.76 261.12c76.8-40.96 133.12-92.16 168.96-148.48h30.72v10.24c30.72 61.44 87.04 102.4 158.72 128 0 10.24-15.36 20.48-20.48 30.72-71.68-35.84-128-81.92-158.72-138.24-35.84 51.2-87.04 102.4-163.84 143.36 0-10.24-10.24-15.36-15.36-25.6z m204.8 15.36l-25.6 15.36c-10.24-20.48-25.6-40.96-35.84-56.32l20.48-15.36c15.36 20.48 30.72 40.96 40.96 56.32z m97.28 61.44c-35.84 51.2-71.68 92.16-102.4 128l-25.6-20.48c30.72-35.84 56.32-71.68 87.04-107.52H158.72V307.2h261.12v30.72z" fill="#FFFFFF" p-id="2880"></path></svg>