<?xml version="1.0" standalone="no"?><!DOCTYPE svg PUBLIC "-//W3C//DTD SVG 1.1//EN" "http://www.w3.org/Graphics/SVG/1.1/DTD/svg11.dtd"><svg t="1764924762533" class="icon" viewBox="0 0 1024 1024" version="1.1" xmlns="http://www.w3.org/2000/svg" p-id="3024" xmlns:xlink="http://www.w3.org/1999/xlink" width="200" height="200"><path d="M975.238095 422.603175h-379.259259v130.031746c0 27.089947-21.671958 48.761905-48.761905 48.761904H428.021164V975.238095c0 27.089947 21.671958 48.761905 48.761905 48.761905H975.238095c27.089947 0 48.761905-21.671958 48.761905-48.761905V471.365079c0-27.089947-21.671958-48.761905-48.761905-48.761904z m-113.777778 357.587301c-37.925926 48.761905-70.433862 92.10582-102.941798 130.031746l-27.089948-21.671957c27.089947-32.507937 59.597884-70.433862 86.687831-108.359789H595.978836v-27.089947h260.063492v27.089947h5.417989z m-162.539682-102.941799l21.671958-16.253968c16.253968 21.671958 27.089947 37.925926 43.343915 59.597884l-27.089947 16.253968c-10.835979-21.671958-21.671958-37.925926-37.925926-59.597884z m200.465608 48.761905c-70.433862-37.925926-124.613757-81.269841-162.539682-140.867725-32.507937 54.179894-92.10582 102.941799-162.539683 146.285714 0-10.835979-10.835979-16.253968-16.253968-27.089947 81.269841-43.343915 135.449735-92.10582 167.957672-151.703703h37.925926v10.835978c32.507937 59.597884 86.687831 102.941799 157.121693 130.031747-5.417989 10.835979-16.253968 21.671958-21.671958 32.507936z" fill="#E2E2E2" p-id="3025"></path><path d="M162.539683 157.121693m0 0l59.597883 0q0 0 0 0l0 81.269841q0 0 0 0l-59.597883 0q0 0 0 0l0-81.269841q0 0 0 0Z" fill="#FFFFFF" p-id="3026"></path><path d="M319.661376 146.285714m0 0l102.941799 0q0 0 0 0l0 65.015873q0 0 0 0l-102.941799 0q0 0 0 0l0-65.015873q0 0 0 0Z" fill="#FFFFFF" p-id="3027"></path><path d="M162.539683 265.481481m0 0l59.597883 0q0 0 0 0l0 86.687831q0 0 0 0l-59.597883 0q0 0 0 0l0-86.687831q0 0 0 0Z" fill="#FFFFFF" p-id="3028"></path><path d="M595.978836 552.634921V48.761905c0-27.089947-21.671958-48.761905-48.761905-48.761905H48.761905C21.671958 0 0 21.671958 0 48.761905v503.873016c0 27.089947 21.671958 48.761905 48.761905 48.761904h498.455026c27.089947 0 48.761905-21.671958 48.761905-48.761904zM162.539683 400.931217h-27.089948v-270.899471h113.777778v243.809524H162.539683v27.089947z m276.31746 37.925926c-5.417989 5.417989-16.253968 10.835979-32.507937 10.835979H346.751323v-27.089947h59.597883c16.253968 0 21.671958-5.417989 21.671958-21.671958V330.497354h-108.359788c-5.417989 43.343915-32.507937 86.687831-70.433863 124.613757L227.555556 433.439153c27.089947-27.089947 48.761905-54.179894 59.597883-75.851851 10.835979-21.671958 16.253968-59.597884 16.253968-113.777778V119.195767h157.121694v292.571429c0 16.253968 0 27.089947-10.835979 32.507936h-10.835979v-5.417989z" fill="#FFFFFF" p-id="3029"></path><path d="M319.661376 308.825397h102.941799V238.391534H319.661376v70.433863z" fill="#FFFFFF" p-id="3030"></path></svg>