<svg xmlns="http://www.w3.org/2000/svg" fill="none" width="30.035" height="31" viewBox="0 0 30.035 31"><path d="M25.214 19.375h3.852a.969.969 0 0 1 .748 1.585l-7.98 9.688a.969.969 0 0 1-.748.352h-.262a.54.54 0 0 1-.518-.69l2.034-7.06h-2.809a.969.969 0 0 1-.92-1.272l3.192-9.687a.969.969 0 0 1 .92-.666h3.705a.969.969 0 0 1 .92 1.272l-2.134 6.478zm-6.398 9.688H1.938A1.938 1.938 0 0 1 0 27.125V1.937C0 .867.867 0 1.938 0h23.25c1.07 0 1.937.867 1.937 1.938v7.75h-4.914c-.827 0-1.563.525-1.832 1.307l-3.996 11.626a1.937 1.937 0 0 0 1.832 2.567h1.794l-1.192 3.875zM6.781 7.75a.969.969 0 1 0 0 1.938h8.72a.969.969 0 0 0 0-1.938H6.78zm0 4.844a.969.969 0 1 0 0 1.937h5.813a.969.969 0 1 0 0-1.937H6.78z" fill="#000"/></svg>
