<svg xmlns="http://www.w3.org/2000/svg" xmlns:xlink="http://www.w3.org/1999/xlink" fill="none" version="1.1" width="30.034685134887695" height="31.00018310546875" viewBox="0 0 30.034685134887695 31.00018310546875"><g><path d="M25.2139,19.3751C25.2139,19.3751,29.0656,19.3751,29.0656,19.3751C29.4406,19.375,29.782,19.5913,29.9421,19.9305C30.1021,20.2695,30.052,20.6706,29.8135,20.96C29.8135,20.96,21.8338,30.6476,21.8338,30.6476C21.6497,30.8709,21.3754,31.0003,21.0859,31.0002C21.0859,31.0002,20.8244,31.0002,20.8244,31.0002C20.6549,30.9998,20.4953,30.9199,20.3935,30.7843C20.2917,30.6488,20.2593,30.4733,20.3061,30.3105C20.3061,30.3105,22.3405,23.2502,22.3405,23.2502C22.3405,23.2502,19.5311,23.2502,19.5311,23.2502C19.2202,23.2502,18.9282,23.1011,18.746,22.8493C18.5638,22.5974,18.5135,22.2734,18.6108,21.9782C18.6108,21.9782,21.8028,12.2906,21.8028,12.2906C21.9337,11.8933,22.3049,11.625,22.7231,11.6251C22.7231,11.6251,26.4276,11.6251,26.4276,11.6251C26.7386,11.625,27.0306,11.7741,27.2128,12.026C27.395,12.2778,27.4453,12.6018,27.348,12.8971C27.348,12.8971,25.2139,19.3751,25.2139,19.3751C25.2139,19.3751,25.2139,19.3751,25.2139,19.3751ZM18.8161,29.0627C18.8161,29.0627,1.93752,29.0627,1.93752,29.0627C0.867462,29.0627,0,28.1952,0,27.1252C0,27.1252,0,1.9375,0,1.9375C0,0.867493,0.867462,0,1.93752,0C1.93752,0,25.1877,0,25.1877,0C26.2578,0,27.1252,0.867493,27.1252,1.9375C27.1252,1.9375,27.1252,9.68756,27.1252,9.68756C27.1252,9.68756,22.2107,9.68756,22.2107,9.68756C21.3839,9.68756,20.6479,10.2128,20.3789,10.995C20.3789,10.995,16.3826,22.6205,16.3826,22.6205C16.1792,23.2124,16.2743,23.8661,16.6379,24.3756C17.0014,24.885,17.5887,25.1876,18.2146,25.1877C18.2146,25.1877,20.0087,25.1877,20.0087,25.1877C20.0087,25.1877,18.8172,29.0627,18.8172,29.0627C18.8172,29.0627,18.8161,29.0627,18.8161,29.0627ZM6.78133,7.75006C6.24629,7.75006,5.81255,8.18379,5.81255,8.71878C5.81255,9.25385,6.24629,9.68756,6.78133,9.68756C6.78133,9.68756,15.5001,9.68756,15.5001,9.68756C16.0351,9.68756,16.4689,9.25385,16.4689,8.71878C16.4689,8.18379,16.0351,7.75006,15.5001,7.75006C15.5001,7.75006,6.78133,7.75006,6.78133,7.75006C6.78133,7.75006,6.78133,7.75006,6.78133,7.75006ZM6.78133,12.5939C6.24629,12.5939,5.81255,13.0276,5.81255,13.5626C5.81255,14.0977,6.24629,14.5313,6.78133,14.5313C6.78133,14.5313,12.5939,14.5313,12.5939,14.5313C13.1289,14.5313,13.5627,14.0977,13.5627,13.5626C13.5627,13.0276,13.1289,12.5939,12.5939,12.5939C12.5939,12.5939,6.78133,12.5939,6.78133,12.5939C6.78133,12.5939,6.78133,12.5939,6.78133,12.5939Z" fill="black" fill-opacity="1"/></g></svg>
