<svg xmlns="http://www.w3.org/2000/svg" width="30.8" height="30.8"
  viewBox="0 0 30.8 30.8">
  <path
    d="M1.925 28.094h26.95c.581.02 1.047.2 1.4.541.35.341.525.801.525 1.384v.781H0v-.78a1.9 1.9 0 0 1 .526-1.325c.352-.38.818-.58 1.399-.6zm26.38-17.897l-3.458-8.844a2.63 2.63 0 0 0-.827-.977C23.668.126 23.303 0 22.922 0H7.88c-.38.02-.737.14-1.067.36-.33.22-.545.483-.646.782l-3.67 9.055c-.101.302-.14.623-.121.964.02.34.13.662.33.963l9.805 13.687c.2.281.436.477.707.587.27.11.545.165.827.165h.392v-9.057h2.105v8.872c.292-.017.576-.105.827-.255.251-.15.427-.326.526-.526l9.836-13.655c.563-.581.755-1.162.574-1.745zm-12.724 3.098c-1.263-.04-2.306-.471-3.129-1.294-.823-.823-1.254-1.874-1.293-3.16.04-1.262.47-2.305 1.293-3.128.823-.822 1.866-1.254 3.129-1.293 1.282.04 2.336.47 3.159 1.293s1.254 1.866 1.293 3.129c-.04 1.203-.47 2.235-1.293 3.098-.823.864-1.875 1.315-3.16 1.355z" />
</svg>
