<?xml version="1.0" standalone="no"?><!DOCTYPE svg PUBLIC "-//W3C//DTD SVG 1.1//EN" "http://www.w3.org/Graphics/SVG/1.1/DTD/svg11.dtd"><svg class="icon" width="200px" height="200.00px" viewBox="0 0 1024 1024" version="1.1" xmlns="http://www.w3.org/2000/svg"><path d="M981.039 881.412 740.113 650.205l5.852-4.46c59.405-69.51 93.472-159.094 93.472-255.587C839.436 174.68 664.513 0 437.575 0 210.633 0 29.736 174.68 29.736 390.158c0 215.472 180.897 396.475 407.84 396.475 56.305 0 109.482-11.137 157.623-31.173l6.508-5 251.645 258.645c17.629 17.623 46.21 17.623 63.844 0l63.844-63.844C998.673 927.632 998.673 899.041 981.039 881.412zM436.835 646.036c-147.364 0-264.83-113.429-264.83-253.344 0-139.925 117.466-253.354 264.83-253.354s261.772 113.429 261.772 253.354C698.606 532.607 584.199 646.036 436.835 646.036z" /></svg>