<svg data-name="Component 16 9" xmlns="http://www.w3.org/2000/svg" width="598" height="577" viewBox="0 0 598 577"><path data-name="Union 2" d="M290.792 527.087A202.237 202.237 0 0 1 203 547C90.886 547 0 456.114 0 344s90.886-203 203-203a202.478 202.478 0 0 1 73.041 13.537 153.935 153.935 0 0 1-.041-3.536A151 151 0 0 1 427 0a151 151 0 0 1 151 151 150.523 150.523 0 0 1-43.4 105.942A181.6 181.6 0 0 1 598 395a182 182 0 0 1-182 182 181.371 181.371 0 0 1-125.208-49.913z" fill="#78e8cf"/><circle data-name="Ellipse 8" cx="54.5" cy="54.5" r="54.5" transform="translate(152)" fill="#57dcbe" opacity=".48"/></svg>
