<svg width="598" height="577" xmlns="http://www.w3.org/2000/svg" data-name="Component 16 26"><path fill="#ffcf4d" d="M294.792 753.087A202.237 202.237 0 0 1 207 773C94.886 773 4 682.114 4 570s90.886-203 203-203a202.478 202.478 0 0 1 73.041 13.537 153.935 153.935 0 0 1-.041-3.536A151 151 0 0 1 431 226a151 151 0 0 1 151 151 150.523 150.523 0 0 1-43.4 105.942A181.6 181.6 0 0 1 602 621a182 182 0 0 1-182 182 181.371 181.371 0 0 1-125.208-49.913z" data-name="Union 2"/><circle opacity=".48" fill="#ffcf4d" r="54.5" cy="255" cx="232" data-name="Ellipse 8"/></svg>
