<svg width="598" height="577" xmlns="http://www.w3.org/2000/svg" data-name="Component 16 9">
 <g>
  <title>Layer 1</title>
  <path id="svg_1" data-name="Union 2" d="m295.79199,756.08698a202.237,202.237 0 0 1 -87.79199,19.91302c-112.114,0 -203,-90.88599 -203,-203s90.886,-203 203,-203a202.478,202.478 0 0 1 73.04099,13.53699a153.935,153.935 0 0 1 -0.04099,-3.53598a151,151 0 0 1 151,-151.00101a151,151 0 0 1 151,151a150.52299,150.52299 0 0 1 -43.40002,105.94199a181.60001,181.60001 0 0 1 63.40002,138.05801a182,182 0 0 1 -182,182l-125.20801,-49.91302z" fill="#b6eae0" stroke="null"/>
  <circle id="svg_2" data-name="Ellipse 8" cx="231.5" cy="255.5" r="54.5" fill="#57dcbe" opacity="0.48"/>
 </g>

</svg>