<svg xmlns="http://www.w3.org/2000/svg" width="216" height="181.159" viewBox="0 0 216 181.159"><g><path data-name="Path 70" d="M140.61 179.134l-40.463-72.953a1.089 1.089 0 0 0-.54-.872 1.076 1.076 0 0 0-.585-.141h-.039a1.074 1.074 0 0 0-1.12.978l-42.885 72.988a1.088 1.088 0 1 0 1.884 1.088l42.112-71.672 39.751 71.667a1.088 1.088 0 0 0 1.884-1.088z" fill="#3f3d56"/><path data-name="Path 71" d="M92.297 166.617l4.574-1.049L95 147.428l-6.75 1.549z" fill="#ffb6b6"/><path data-name="Path 72" d="M95.834 157.854l-6.509 1.493-2.081-4.067-.118-.144a6.471 6.471 0 0 1-1.454-4.007l-5.41-14.31-.442-.21a2.664 2.664 0 0 1-1.093-3.852l-.573-1.515-16.16.03h-.016l-19.845-5.567 2.084-12.421 5.582 3.511c1.839-.119 33.349-2.054 36.26 5.008 2.592 6.288 6.328 17.032 9 24.937a6.171 6.171 0 0 0 .5 1.021 4.457 4.457 0 0 1 .71 2.143 5.222 5.222 0 0 0 .189.98c1.113 3.326-.582 6.887-.6 6.923z" fill="#2f2e41"/><path data-name="Path 73" d="M90.752 165.1l1.487-.341 5.264-3.693 3.653 1.647a6.8 6.8 0 0 1 8.151 5.109l.049.215-17.034 3.908z" fill="#2f2e41"/><path data-name="Path 74" d="M23.226 165.51c.465-5.061 3.43-10.129 8.185-11.924a23.418 23.418 0 0 0 .517 16.07c.8 1.975 1.9 4.087 1.271 6.124a5.234 5.234 0 0 1-2.582 2.9 15.544 15.544 0 0 1-3.753 1.287l-.248.219c-2.209-4.585-3.858-9.617-3.39-14.676z" fill="#f0f0f0"/><path data-name="Path 75" d="M31.459 153.677a20.016 20.016 0 0 0-4.612 11.419 8.618 8.618 0 0 0 .185 2.694 4.943 4.943 0 0 0 1.3 2.252 10.23 10.23 0 0 1 1.648 1.849 3.027 3.027 0 0 1 .227 2.465 7.866 7.866 0 0 1-1.658 2.654 7.721 7.721 0 0 0-1.842 2.951c-.036.14-.251.076-.215-.063.513-2.007 2.407-3.2 3.27-5.02a3.065 3.065 0 0 0 .121-2.7 7.938 7.938 0 0 0-1.638-1.909 5.275 5.275 0 0 1-1.356-2.155 7.967 7.967 0 0 1-.288-2.677 19.418 19.418 0 0 1 1.228-5.944 20.371 20.371 0 0 1 3.473-5.985c.092-.11.245.054.154.163z" fill="#fff"/><path data-name="Path 76" d="M26.864 163.74a3 3 0 0 1-2.386-3.071.112.112 0 0 1 .224 0 2.781 2.781 0 0 0 2.225 2.852c.142.033.077.247-.063.219z" fill="#fff"/><path data-name="Path 77" d="M28.005 169.782a5.788 5.788 0 0 0 2.476-3.415c.036-.14.251-.076.215.063a6.021 6.021 0 0 1-2.584 3.548c-.122.078-.228-.12-.107-.2z" fill="#fff"/><path data-name="Path 78" d="M28.858 157.526a1.7 1.7 0 0 0 1.607-.133c.121-.079.227.118.107.2a1.9 1.9 0 0 1-1.778.152.116.116 0 0 1-.076-.139.113.113 0 0 1 .139-.076z" fill="#fff"/><path data-name="Path 79" d="M46.353 162.117c-.074.052-.148.1-.222.157a22.381 22.381 0 0 0-2.789 2.325 4.715 4.715 0 0 0-.2.2 23.6 23.6 0 0 0-4.9 7.177 22.925 22.925 0 0 0-1.15 3.287 14.92 14.92 0 0 1-1.615 4.552 3.928 3.928 0 0 1-.294.388l-8.282.266-.057-.025-.33.026.036-.179c.006-.034.015-.069.021-.1s.01-.046.013-.067 0-.015 0-.021c0-.021.008-.04.011-.059q.108-.511.224-1.023a33.7 33.7 0 0 1 2.6-7.532c.036-.071.071-.144.11-.215a21.867 21.867 0 0 1 1.868-3.041 19.354 19.354 0 0 1 1.24-1.513 16.082 16.082 0 0 1 3.924-3.141 12.766 12.766 0 0 1 9.545-1.519c.084.011.165.033.247.057z" fill="#f0f0f0"/><path data-name="Path 80" d="M46.338 162.223a20.016 20.016 0 0 0-10.557 6.341 8.617 8.617 0 0 0-1.475 2.263 4.944 4.944 0 0 0-.316 2.583 10.231 10.231 0 0 1 .2 2.468 3.027 3.027 0 0 1-1.3 2.105 7.865 7.865 0 0 1-2.922 1.121 7.723 7.723 0 0 0-3.247 1.247c-.113.09-.246-.09-.133-.18 1.618-1.294 3.848-1.1 5.633-2.039a3.065 3.065 0 0 0 1.719-2.079 7.938 7.938 0 0 0-.159-2.51 5.276 5.276 0 0 1 .215-2.537 7.97 7.97 0 0 1 1.382-2.311 19.42 19.42 0 0 1 4.559-4.006 20.372 20.372 0 0 1 6.376-2.688c.14-.032.164.191.024.223z" fill="#fff"/><path data-name="Path 81" d="M36.609 167.491a3 3 0 0 1-.056-3.888c.092-.111.269.027.176.138a2.781 2.781 0 0 0 .06 3.617c.097.108-.08.24-.18.133z" fill="#fff"/><path data-name="Path 82" d="M33.883 173.001a5.788 5.788 0 0 0 4.033-1.236c.113-.09.246.09.133.18a6.02 6.02 0 0 1-4.2 1.277c-.144-.011-.11-.233.033-.222z" fill="#fff"/><path data-name="Path 83" d="M41.941 163.724a1.7 1.7 0 0 0 1.364.861c.144.009.11.231-.033.222a1.9 1.9 0 0 1-1.511-.949.116.116 0 0 1 .023-.157.113.113 0 0 1 .157.023z" fill="#fff"/><path data-name="Path 84" d="M158.731 165.51c-.465-5.061-3.43-10.129-8.185-11.924a23.418 23.418 0 0 1-.517 16.07c-.8 1.975-1.9 4.087-1.271 6.124a5.235 5.235 0 0 0 2.582 2.9 15.544 15.544 0 0 0 3.753 1.287l.248.219c2.206-4.585 3.855-9.617 3.39-14.676z" fill="#f0f0f0"/><path data-name="Path 85" d="M150.495 153.677a20.016 20.016 0 0 1 4.612 11.419 8.618 8.618 0 0 1-.185 2.694 4.943 4.943 0 0 1-1.3 2.252 10.228 10.228 0 0 0-1.648 1.849 3.027 3.027 0 0 0-.227 2.465 7.867 7.867 0 0 0 1.658 2.654 7.721 7.721 0 0 1 1.842 2.951c.036.14.251.076.215-.063-.513-2.007-2.407-3.2-3.27-5.02a3.066 3.066 0 0 1-.121-2.7 7.94 7.94 0 0 1 1.638-1.909 5.276 5.276 0 0 0 1.356-2.155 7.965 7.965 0 0 0 .288-2.677 19.415 19.415 0 0 0-1.228-5.944 20.37 20.37 0 0 0-3.472-5.985c-.092-.11-.245.054-.154.163z" fill="#fff"/><path data-name="Path 86" d="M155.091 163.74a3 3 0 0 0 2.386-3.071.112.112 0 0 0-.224 0 2.781 2.781 0 0 1-2.225 2.852c-.142.033-.078.248.063.219z" fill="#fff"/><path data-name="Path 87" d="M153.951 169.782a5.788 5.788 0 0 1-2.476-3.415c-.036-.14-.251-.076-.215.063a6.021 6.021 0 0 0 2.584 3.548c.122.078.228-.12.107-.2z" fill="#fff"/><path data-name="Path 88" d="M153.1 157.526a1.7 1.7 0 0 1-1.607-.133c-.121-.079-.227.118-.107.2a1.9 1.9 0 0 0 1.778.152.116.116 0 0 0 .076-.139.113.113 0 0 0-.14-.08z" fill="#fff"/><path data-name="Path 89" d="M135.601 162.117c.074.052.148.1.222.157a22.378 22.378 0 0 1 2.789 2.326c.068.065.136.131.2.2a23.6 23.6 0 0 1 4.9 7.177 22.926 22.926 0 0 1 1.151 3.287 14.918 14.918 0 0 0 1.615 4.552 3.908 3.908 0 0 0 .294.388l8.282.266.057-.025.33.026-.036-.179c-.006-.034-.015-.069-.021-.1s-.01-.046-.013-.067 0-.015 0-.021c0-.021-.008-.04-.011-.059q-.108-.511-.224-1.023a33.7 33.7 0 0 0-2.6-7.532c-.036-.071-.071-.144-.11-.215a21.871 21.871 0 0 0-1.868-3.041 19.335 19.335 0 0 0-1.24-1.513 16.079 16.079 0 0 0-3.924-3.141 12.766 12.766 0 0 0-9.545-1.519c-.085.01-.165.032-.248.056z" fill="#f0f0f0"/><path data-name="Path 90" d="M135.617 162.223a20.016 20.016 0 0 1 10.557 6.341 8.618 8.618 0 0 1 1.472 2.262 4.943 4.943 0 0 1 .316 2.582 10.232 10.232 0 0 0-.2 2.468 3.027 3.027 0 0 0 1.3 2.105 7.865 7.865 0 0 0 2.922 1.121 7.723 7.723 0 0 1 3.247 1.247c.113.09.246-.09.133-.18-1.618-1.294-3.848-1.1-5.633-2.039a3.065 3.065 0 0 1-1.719-2.079 7.936 7.936 0 0 1 .158-2.51 5.274 5.274 0 0 0-.215-2.537 7.967 7.967 0 0 0-1.382-2.311 19.422 19.422 0 0 0-4.559-4.006 20.372 20.372 0 0 0-6.368-2.687c-.14-.032-.164.191-.024.223z" fill="#fff"/><path data-name="Path 91" d="M145.345 167.491a3 3 0 0 0 .056-3.888c-.092-.111-.269.027-.176.138a2.781 2.781 0 0 1-.06 3.617c-.096.108.085.24.18.133z" fill="#fff"/><path data-name="Path 92" d="M148.071 173.001a5.788 5.788 0 0 1-4.033-1.235c-.113-.09-.246.09-.133.18a6.02 6.02 0 0 0 4.2 1.277c.143-.012.11-.233-.034-.222z" fill="#fff"/><path data-name="Path 93" d="M140.013 163.724a1.7 1.7 0 0 1-1.364.861c-.144.009-.11.231.033.222a1.9 1.9 0 0 0 1.511-.949.116.116 0 0 0-.023-.157.113.113 0 0 0-.157.023z" fill="#fff"/><path data-name="Path 94" d="M216 180.872a.288.288 0 0 1-.288.288H.288a.288.288 0 0 1 0-.575h215.424a.288.288 0 0 1 .288.287z" fill="#3f3d56"/><circle data-name="Ellipse 10" cx="1.088" cy="1.088" r="1.088" transform="translate(137.674 67.434)" fill="#3f3d56"/><path data-name="Path 95" d="M125.142 76.899l14.663-9.212a1.159 1.159 0 1 1 1.142 2.015l-15.437 7.847a.374.374 0 0 1-.368-.649z" fill="#e4e4e4"/><path data-name="Path 96" d="M95.725 96.735a1.016 1.016 0 0 1 .017-1.158 2.39 2.39 0 0 1 .959-.76 8 8 0 0 1 2.5-.79 3.662 3.662 0 0 0 1.9-.552c.51-.426.795-1.221 1.456-1.288.639-.064 1.131.636 1.772.679.79.054 1.308-.871 2.076-1.061a2.411 2.411 0 0 1 1.527.316l2.9 1.314 1.485.674c.519.235 1.1.552 1.2 1.113.134.771-.723 1.315-1.456 1.589a23.437 23.437 0 0 1-16.224 0" fill="#62e4c7"/><ellipse data-name="Ellipse 11" cx="38.067" cy="5.438" rx="38.067" ry="5.438" transform="translate(62.022 100.063)" fill="#3f3d56"/><rect data-name="Rectangle 87" width="30.454" height="4.351" rx="2.175" transform="translate(149.033 139.218)" fill="#3f3d56"/><path data-name="Path 97" d="M189.963 100.435l-8.621 40.955 2.245 10.483 4.239 19.783v8.892a.181.181 0 0 1 0 .036 1.676 1.676 0 0 1-.106.575h-3.408a1.676 1.676 0 0 1-.106-.575.186.186 0 0 1 0-.036v-8.51l-3.848-17.956-.778-3.625-1.506-7.026-.435-2.035.43-2.04.331-1.573 8.019-38.089a1.813 1.813 0 0 1 3.548.744z" fill="#3f3d56"/><path data-name="Path 98" d="M153.024 141.393v39.152a.194.194 0 0 1 0 .036 1.678 1.678 0 0 1-.106.575h-3.414a1.675 1.675 0 0 1-.106-.575.189.189 0 0 1 0-.036v-39.152a1.813 1.813 0 1 1 3.626 0z" fill="#3f3d56"/><path data-name="Path 99" d="M155.559 134.867h17.4a6.526 6.526 0 0 1 6.526 6.526h-30.452a6.526 6.526 0 0 1 6.526-6.526z" fill="#3f3d56"/><path data-name="Path 100" d="M181.663 154.082h-30.454a1.813 1.813 0 1 1 0-3.625h30.454a1.813 1.813 0 0 1 0 3.625z" fill="#3f3d56"/><rect data-name="Rectangle 88" width="35.068" height="5.01" rx="2.505" transform="rotate(180 36.45 71.817)" fill="#3f3d56"/><path data-name="Path 101" d="M39.69 141.158l-.556 2.291-2.04 8.392-.88 3.625-4.085 16.82v7.3a1.786 1.786 0 0 1-.3 1 1.75 1.75 0 0 1-.621.575h-1.779a1.75 1.75 0 0 1-.621-.575 1.787 1.787 0 0 1-.3-1v-7.732l4.539-18.683 2.929-12.066-9.934-47.191a1.812 1.812 0 0 1 3.546-.744l9.182 43.609.423 2.011.493 2.344z" fill="#3f3d56"/><path data-name="Path 102" d="M72.207 141.13v38.452a1.786 1.786 0 0 1-.3 1 1.751 1.751 0 0 1-.621.575h-1.777a1.766 1.766 0 0 1-.619-.575 1.786 1.786 0 0 1-.3-1V141.13a1.813 1.813 0 1 1 3.625 0z" fill="#3f3d56"/><path data-name="Path 103" d="M72.899 141.129H37.831v-.989a6.526 6.526 0 0 1 6.526-6.526h22.016a6.526 6.526 0 0 1 6.526 6.526z" fill="#3f3d56"/><path data-name="Path 104" d="M70.396 155.466h-35.07a1.813 1.813 0 0 1 0-3.625h35.07a1.813 1.813 0 1 1 0 3.625z" fill="#3f3d56"/><path data-name="Path 105" d="M115.462 171.279l-3.81-1.822 5.233-15.925 5.623 2.689z" fill="#ffb6b6"/><path data-name="Path 106" d="M141.283 169.837l-4.1 1.011-5.936-15.673 6.047-1.492z" fill="#ffb6b6"/><path data-name="Path 107" d="M125.58 102.061a3.972 3.972 0 0 0 5.381 1.35 3.806 3.806 0 0 0 .511-.37l12.045 6.912-.523-7.1-11.358-5.476a3.957 3.957 0 0 0-4.8-.625 3.808 3.808 0 0 0-1.255 5.3z" fill="#9e616a"/><path data-name="Path 108" d="M138.338 107.351l2.129 1.3 9.563 5.831a5.638 5.638 0 0 0 7.774-1.794 5.517 5.517 0 0 0 .7-3.895l-4.25-21.234a5.892 5.892 0 0 0-7.734-4.471 5.61 5.61 0 0 0-3.539 6.815l4.444 15.069-6.812-3.176z" fill="#e6e6e6"/><path data-name="Path 109" d="M133.304 165.444l-6.556-13.148v-.03l.647-24.116c.008-.214.025-.43.052-.642a7.336 7.336 0 0 1 2.791-4.937 7.049 7.049 0 0 1 5.258-1.438l18.746 2.426.65-2.658.121-.044 17.962-6.583.1.168c2.352 3.828 4 11.473 4.445 13.725l.006.032.017.085c.925 3.843-2.9 10.21-6.7 11.166-8.017 2.043-15.187.45-23.49-1.4-2.977-.662-6.054-1.346-9.443-1.938l.1 1.995a14.949 14.949 0 0 0 .946 4.487 7.75 7.75 0 0 1 .072 6.082l-.488 1.41a4.806 4.806 0 0 1-.494 4.261l-.1.15 4.323 10.94z" fill="#2f2e41"/><path data-name="Path 110" d="M122.534 159.629l-7.818-.727 2.77-8.857a57.831 57.831 0 0 1 4.272-16.8l3.778-8.953c.009-.2.026-.4.05-.6a7.334 7.334 0 0 1 2.791-4.937 7.052 7.052 0 0 1 5.258-1.438l18.718 2.422.815-6.843 17.966-2.4.082.134a61.285 61.285 0 0 1 6.274 12.588c.057.177.108.358.151.539a7.248 7.248 0 0 1-5.18 8.744c-9.652 2.461-21.259 2.393-36.519-.216l-7.386 17.576a26.989 26.989 0 0 1-2.609 4.785z" fill="#2f2e41"/><ellipse data-name="Ellipse 12" cx="9.056" cy="9.258" rx="9.056" ry="9.258" transform="translate(140.746 52.384)" fill="#ffb6b6"/><path data-name="Path 111" d="M152.416 120.066l-1.3-4.655-.32-2.3-1.868.062-3.665-8.46-1.424-2.231q-.436-.458-.789-.882a19.871 19.871 0 0 1-3.518-5.665 14.882 14.882 0 0 1-1.03-4.665c-.266-4.727 1.727-9.728 6.092-15.288a2.626 2.626 0 0 1-.142-.61 2.579 2.579 0 0 1 2.242-2.855l4.21-.473a2.485 2.485 0 0 1 1.843.537 2.583 2.583 0 0 1 .954 1.754 2.641 2.641 0 0 1-.3 1.527 11.244 11.244 0 0 1 9.332 7.853 74.677 74.677 0 0 1 5.99 14.793 7.561 7.561 0 0 1 .036 3.042 8.58 8.58 0 0 0-.034 2.835 12.826 12.826 0 0 0 1.207 2.972 12.049 12.049 0 0 1 1.369 3.642l.012.087z" fill="#e4e4e4"/><path data-name="Path 112" d="M139.646 95.893a19.808 19.808 0 0 0 3.5 5.633c.253.3.519.6.8.895l1.432 2.248c5.281-3.958 9.559-19.543 9.559-19.543l-5.958-1.159z" opacity=".2"/><path data-name="Path 113" d="M136.039 71.764a3.981 3.981 0 0 1-1.344 5.387 3.821 3.821 0 0 1-.567.278l.422 13.882-6.012-3.784.521-12.6a3.97 3.97 0 0 1 1.71-4.535 3.8 3.8 0 0 1 5.27 1.374z" fill="#ffb6b6"/><path data-name="Path 114" d="M135.078 86.071l-6.611.94.284 13.69a5.728 5.728 0 0 0 2.8 4.827 5.488 5.488 0 0 0 6.556-.744l15.608-15.012a5.918 5.918 0 0 0 .436-8.126 5.612 5.612 0 0 0-8.041-.551 5.762 5.762 0 0 0-.439.438l-10.306 11.856z" fill="#e6e6e6"/><path data-name="Path 115" d="M79.784 175.368h4.692l2.232-18.1h-6.924z" fill="#ffb6b6"/><circle data-name="Ellipse 13" cx="9.365" cy="9.365" r="9.365" transform="translate(43.823 52.437)" fill="#ffb6b6"/><path data-name="Path 116" d="M86.009 169.793h-6.645l-1.694-2.271-.458-2.139-.395-.382a3.294 3.294 0 0 1-.555-4.051l-4.816-22.469c-1.261-.111-15.485-1.383-25.373-3.133a8.686 8.686 0 0 1-5.872-3.656c-3.357-4.861-1.919-12.726-1.9-12.8l.017-.088.089-.01 23.1-2.592.031.015c.766.363 18.8 8.926 21.752 11.874 1.331 1.331 4.3 9.24 4.966 17.647a13.287 13.287 0 0 1-.724 4.524 13.245 13.245 0 0 0-.71 4.18c.122 2.094.238 4.29.344 6.527a2.289 2.289 0 0 0 .545 1.082 2.226 2.226 0 0 1 .544 1.093 11.233 11.233 0 0 1-2.2 6.606z" fill="#2f2e41"/><path data-name="Path 117" d="M87.522 86.748a3.568 3.568 0 0 0-4.494 3.12L75.246 92.3l.325 5.089L86.512 93.8a3.587 3.587 0 0 0 1.01-7.052z" fill="#ffb6b6"/><path data-name="Path 118" d="M82.445 95.169l-5.816 2.2-.149.288a2.934 2.934 0 0 1-3.952 1.264l-13.07 4.949s-5.838-5.842-9.994-11.055l1.417-8.713a16.69 16.69 0 0 1 2.057-5.734c8.524 1.869 13.417 13.785 13.417 13.785l15.362-2.931z" fill="#fdae28"/><path data-name="Path 119" d="M51.857 70.667a7.561 7.561 0 0 1-6.759-1.806 12.689 12.689 0 0 1-3.634-6.2 7.519 7.519 0 0 1 .05-5.219c.762-1.607 2.814-2.691 4.4-1.88-.976-1.137-.489-3.019.652-3.992a7.507 7.507 0 0 1 4.2-1.4 15.242 15.242 0 0 1 6.459.455 7.049 7.049 0 0 1 4.575 4.312 3.282 3.282 0 0 0 3.914-.884 2.973 2.973 0 0 1-1.638 3.224l3.155-1.023a2.317 2.317 0 0 1-1.624 2.938 5.318 5.318 0 0 1-3.682-.566 14.286 14.286 0 0 0-3.525-1.411 3.111 3.111 0 0 0-3.305 1.326 9.752 9.752 0 0 0-.5 1.927c-.176.642-.623 1.307-1.286 1.359-.419.033-.829-.19-1.247-.144a1.344 1.344 0 0 0-1.053 1.028 3.947 3.947 0 0 0 0 1.553l.8 6.127" fill="#2f2e41"/><path data-name="Path 120" d="M40.254 132.812h-.005l-.074-.013-.021-.072c-.269-.906-.612-1.833-.943-2.729a32.9 32.9 0 0 1-1.234-3.8 29.127 29.127 0 0 1-.545-3.744c-.092-.914-.188-1.859-.351-2.789a1.708 1.708 0 0 1 .466-1.182 1.565 1.565 0 0 0 .428-1 2.368 2.368 0 0 0-.749-1.013 2.441 2.441 0 0 1-.821-1.165 116.03 116.03 0 0 1-1.046-16.717c.078-7.734.427-13.006 1.039-15.669 1.645-7.161 9.245-8.468 10.434-8.629a2.627 2.627 0 0 1 3.553-1.465l5.4 2.472a8.791 8.791 0 0 1 4.674 5.22l.8 2.445.4 16.416-2.227 11.56 4.351 6.526c-23.184 12.731-23.454 15.348-23.529 15.348z" fill="#fdae28"/><path data-name="Path 121" d="M77.26 173.544h1.526l5.956-2.422 3.192 2.422a6.8 6.8 0 0 1 6.8 6.8v.221H77.26z" fill="#2f2e41"/><path data-name="Path 122" d="M89.47 98.462a3.568 3.568 0 0 0-5.152 1.839l-8.146.318-1.1 3.795 11.581.593a3.587 3.587 0 0 0 2.815-6.544z" fill="#ffb6b6"/><path data-name="Path 123" d="M82.779 105.415l-8.368-.1-1.059-.014-17.025-.215s-4.623-4.411-8.649-8.952l.564-4.081a16.675 16.675 0 0 1 5.591-10.324c5.766 3.853 9.11 11.479 9.11 11.479l5.607 2.509a24.548 24.548 0 0 1 11.208 3.282l1.844 1.068z" fill="#fdae28"/><path data-name="Path 124" d="M144.271 177.557l-2.784.687-1.146-2.506-.624 2.943-7.385 1.823a1.71 1.71 0 0 1-1.69-2.793l4.892-5.528-.656-2.658 6.294-1.161z" fill="#2f2e41"/><path data-name="Path 125" d="M114.775 178.416l-2.655-1.084.549-2.7-2.237 2.011-7.042-2.874a1.71 1.71 0 0 1 .278-3.253l7.209-1.589 1.034-2.534 5.771 2.768z" fill="#2f2e41"/><path data-name="Path 126" d="M105.528 104.534h-2.175a8.832 8.832 0 0 1-8.822-8.822v-.121h19.819v.121a8.832 8.832 0 0 1-8.822 8.822z" fill="#e4e4e4"/><path data-name="Path 127" d="M103.352 92.45c0 .6-1.088 1.088-1.088 1.088s-1.088-.487-1.088-1.088 1.088-1.088 1.088-1.088 1.088.487 1.088 1.088z" fill="#3f3d56"/><path data-name="Path 128" d="M109.878 92.45c0 .6-1.088 1.088-1.088 1.088s-1.088-.487-1.088-1.088 1.088-1.088 1.088-1.088 1.088.487 1.088 1.088z" fill="#3f3d56"/><path data-name="Path 129" d="M105.528 94.625c0 .6-1.088 1.088-1.088 1.088s-1.088-.487-1.088-1.088 1.088-1.088 1.088-1.088 1.088.487 1.088 1.088z" fill="#3f3d56"/><circle data-name="Ellipse 14" cx="1.088" cy="1.088" r="1.088" transform="translate(96.827 87.978)" fill="#3f3d56"/><path data-name="Path 130" d="M82.096 86.728l17.154 2.369a1.159 1.159 0 1 1-.42 2.277l-16.869-3.913a.374.374 0 0 1 .135-.734z" fill="#e4e4e4"/><path data-name="Path 131" d="M102.942 32.681V0h-2.175v32.681a11.963 11.963 0 0 0-10.876 11.913v3.263h7.613a4.351 4.351 0 0 0 8.7 0h7.616v-3.263a11.963 11.963 0 0 0-10.875-11.912z" fill="#f0f0f0"/><path data-name="Path 132" d="M130.948 24.511V0h-1.634v24.511a8.972 8.972 0 0 0-8.157 8.934v2.447h5.71a3.263 3.263 0 0 0 6.526 0h5.71v-2.447a8.972 8.972 0 0 0-8.156-8.934z" fill="#f0f0f0"/><path data-name="Path 133" d="M75.841 24.511V0h-1.634v24.511a8.973 8.973 0 0 0-8.157 8.934v2.447h5.71a3.263 3.263 0 1 0 6.526 0h5.71v-2.447a8.972 8.972 0 0 0-8.156-8.934z" fill="#f0f0f0"/><path data-name="Path 134" d="M174.034 57.627c-1.539-1.8-2.271-4.177-3.5-6.215s-3.372-3.863-5.634-3.388a5.054 5.054 0 0 0-3.375 3.237 15.923 15.923 0 0 0-.831 4.884 8.337 8.337 0 0 0-5.3-7.8 7.8 7.8 0 0 0-8.733 2.862 4.72 4.72 0 0 0-6.269-.132 5.258 5.258 0 0 0-.844 6.489 4.752 4.752 0 0 0 6.076 1.62l.718.66a3.112 3.112 0 0 0 1.7 3.615c1.068.431 2.576.36 2.976 1.481a2.349 2.349 0 0 1-.8 2.221 3.745 3.745 0 0 0-1.281 2.056c-.1 1.257 1.2 2.137 2.378 2.4a7.415 7.415 0 0 0 7.646-3.191q.048-.073.1-.146a10.992 10.992 0 0 0 2.211-8.405c-.092-.581 0-1.012.4-1.15 1.73-.594 6.578.653 8.045 1.78s2.642 2.619 4.055 3.819a6.32 6.32 0 0 0 5.008 1.8 5.557 5.557 0 0 0 3.482-2.564 15.436 15.436 0 0 0 1.719-4.183 8.093 8.093 0 0 1-9.947-1.75z" fill="#2f2e41"/></g></svg>
