<svg xmlns="http://www.w3.org/2000/svg" width="244" height="150" viewBox="0 0 244 150"><defs><filter id="a" x="0" y="0" width="244" height="150" filterUnits="userSpaceOnUse"><feOffset dy="3"/><feGaussianBlur stdDeviation="4" result="blur"/><feFlood flood-opacity=".161"/><feComposite operator="in" in2="blur"/><feComposite in="SourceGraphic"/></filter><linearGradient id="b" x1=".028" y1=".5" x2=".461" y2=".5" gradientUnits="objectBoundingBox"><stop offset="0" stop-color="#ccfff4"/><stop offset="1" stop-color="#81e9d2"/></linearGradient></defs><g data-name="Component 53 2"><rect data-name="Rectangle 72" width="220" height="126" rx="8" transform="translate(12 9)" fill="#fff" filter="url(#a)"/><g data-name="Group 105" transform="translate(-97 -113)" opacity=".8"><rect data-name="Rectangle 76" width="7" height="15" rx="1" transform="translate(281 226)" fill="#ffcf4d"/><rect data-name="Rectangle 77" width="7" height="15" rx="1" transform="translate(290 226)" fill="#fdae28"/><rect data-name="Rectangle 78" width="7" height="15" rx="1" transform="translate(299 226)" fill="#62e4c7"/><rect data-name="Rectangle 81" width="7" height="15" rx="1" transform="translate(308 226)" fill="#00b7b7"/><rect data-name="Rectangle 82" width="7" height="15" rx="1" transform="translate(317 226)" fill="#72d0fe"/></g><g data-name="Group 108" transform="rotate(-90 101.5 308.5)" opacity=".8"><rect data-name="Rectangle 76" width="2" height="15" rx="1" transform="translate(282 226)" fill="#ffcf4d"/><rect data-name="Rectangle 77" width="2" height="15" rx="1" transform="translate(285 226)" fill="#fdae28"/><rect data-name="Rectangle 78" width="2" height="15" rx="1" transform="translate(288 226)" fill="#62e4c7"/><rect data-name="Rectangle 81" width="2" height="15" rx="1" transform="translate(291 226)" fill="#00b7b7"/><rect data-name="Rectangle 82" width="2" height="15" rx="1" transform="translate(294 226)" fill="#72d0fe"/></g><path data-name="Line 19" fill="none" stroke="#62e4c7" opacity=".6" d="M12 47.5h220"/><path data-name="Rectangle 73" transform="translate(12 24)" opacity=".8" fill="url(#b)" d="M0 0h220v16H0z"/></g></svg>
