<svg xmlns="http://www.w3.org/2000/svg" fill="none" width="209.097" height="135.317" viewBox="0 0 209.097 135.317"><g style="mix-blend-mode:passthrough"><path d="M157.935 107.76a53.74 53.74 0 0 1-.45-11.652l.45-6.436c-2.485 4.946-1.923 11.454 0 18.088zM159.873 108.837a39.505 39.505 0 0 1-.217-6.936l.217-3.83c-1.195 2.943-.925 6.817 0 10.766z" fill="#CACACA"/><path d="M168.488 113.574v2.154a.65.65 0 0 1-.646.646h-1.077a.215.215 0 0 0-.215.215v17.657a.65.65 0 0 1-.646.646h-13.135a.646.646 0 0 1-.646-.646V116.59a.216.216 0 0 0-.216-.215h-1.292a.646.646 0 0 1-.646-.646v-2.154a.645.645 0 0 1 .646-.646h17.227c.356.001.645.29.646.646z" fill="#F2F2F2"/><rect x="152.142" y="116.826" width="14.427" height=".646" rx="0" fill="#E6E6E6"/><path d="M166.55 126.332c-4.828 1.998-9.708 2.02-14.643 0v-4.551a22.996 22.996 0 0 1 14.643 0v4.55z" fill="#E6E6E6"/><ellipse cx="97.218" cy="46.085" rx="7.837" ry="7.837" fill="#2F2E41"/><path d="M99.4 38.464a7.838 7.838 0 0 1 6.9 11.556 7.835 7.835 0 1 0-13.018-8.61 7.818 7.818 0 0 1 6.119-2.946z" fill="#2F2E41"/><ellipse cx="82.573" cy="23.047" rx="23.021" ry="23.021" fill="#2F2E41"/><path d="M64.505 8.763C72.75-.51 86.863-1.577 96.41 6.35c-.189-.179-.375-.359-.57-.533-9.503-8.447-24.054-7.592-32.502 1.91-8.447 9.503-7.592 24.054 1.91 32.502.196.173.397.337.597.503-8.991-8.552-9.584-22.693-1.34-31.968z" fill="#2F2E41"/><ellipse cx="82.378" cy="31.046" rx="14.827" ry="14.827" fill="#FFB8B8"/><path d="M89.952 49.899l-15.867.713s1.324 8.206-7.26 8.986c-8.585.78-16.388-1.56-19.51 4.292-3.122 5.853-1.776 26.694-1.776 26.694s5.853 21.07 10.535 24.192 45.653-1.17 45.653-1.17l17.146-21.65-.58-16.697c-.304-8.72-8.264-15.265-16.838-13.652-.168.032-.338.066-.508.102 0 0-1.884-1.407-7.052-3.991-3.16-1.58-3.943-7.82-3.943-7.82z" fill="#CACACA"/><path d="M55.51 59.208s3.77 6.843 2.21 16.598c-1.561 9.755 4.987 30.386 4.987 30.386l4.683-1.17s-3.122-20.29-2.341-24.973c.78-4.683.995-18.5-2.907-20.841-3.902-2.341-6.633 0-6.633 0zM100.672 62.796l1.64 43.2 3.122 1.952s4.487-47.409 2.146-47.409h-4.764a2.147 2.147 0 0 0-2.144 2.257z" fill="#2F2E41"/><ellipse cx="64.854" cy="103.265" rx="1.951" ry="1.951" fill="#6C63FF"/><ellipse cx="103.873" cy="105.216" rx="1.951" ry="1.951" fill="#6C63FF"/><path d="M69.696 12.512v14.827h3.434l4.37-4.682-.585 4.682h15.179l-.937-4.682 1.873 4.682h2.42V12.512H69.695z" fill="#2F2E41"/><ellipse cx="67.355" cy="27.925" rx="1.171" ry="2.146" fill="#FFB8B8"/><ellipse cx="97.4" cy="27.925" rx="1.171" ry="2.146" fill="#FFB8B8"/><path d="M129.876 131.024v1.307a2.87 2.87 0 0 1-.404 1.48 2.894 2.894 0 0 1-2.487 1.412H30.829a2.894 2.894 0 0 1-2.696-1.843 2.872 2.872 0 0 1-.196-1.049v-1.307a2.891 2.891 0 0 1 2.89-2.892h5.545v-.609a.12.12 0 0 1 .12-.12h2.892a.12.12 0 0 1 .12.12v.61h1.808v-.61a.12.12 0 0 1 .12-.12h2.892a.12.12 0 0 1 .12.12v.61h1.81v-.61a.12.12 0 0 1 .12-.12h2.892a.12.12 0 0 1 .12.12v.61h1.807v-.61a.12.12 0 0 1 .12-.12h2.892a.12.12 0 0 1 .121.12v.61h1.807v-.61a.12.12 0 0 1 .12-.12h2.892a.12.12 0 0 1 .12.12v.61h1.81v-.61a.12.12 0 0 1 .12-.12h2.892a.12.12 0 0 1 .12.12v.61h1.807v-.61a.12.12 0 0 1 .12-.12h22.654a.12.12 0 0 1 .12.12v.61h1.809v-.61a.12.12 0 0 1 .12-.12h2.892c.067 0 .12.054.121.12v.61h1.807v-.61a.12.12 0 0 1 .12-.12h2.892a.12.12 0 0 1 .12.12v.61h1.807v-.61a.12.12 0 0 1 .12-.12h2.893a.12.12 0 0 1 .12.12v.61h1.81v-.61a.12.12 0 0 1 .12-.12h2.892a.12.12 0 0 1 .118.12v.61h1.809v-.61a.12.12 0 0 1 .12-.12h2.892a.12.12 0 0 1 .12.12v.61h1.807v-.61a.12.12 0 0 1 .12-.12h2.893a.12.12 0 0 1 .12.12v.61h8.435a2.89 2.89 0 0 1 2.891 2.89v.001z" fill="#3F3D56"/><rect y="134.886" width="209.097" height=".431" rx="0" fill="#3F3D56"/><path d="M122.134 75.979h-88.08a2.424 2.424 0 0 0-2.424 2.424v49.076a2.424 2.424 0 0 0 2.425 2.425h88.079a2.424 2.424 0 0 0 2.424-2.425V78.403a2.424 2.424 0 0 0-2.424-2.424z" fill="#3F3D56"/><ellipse cx="78.165" cy="93.112" rx="5.383" ry="5.383" fill="#62E4C7"/><path d="M111.49 57.548l27.176-27.39h12.83v-.431h-13.01l-.063.064-27.24 27.454.307.303z" fill="#3F3D56"/><rect x="167.167" y="18.912" width="31.486" height="2.806" rx="0" fill="#62E4C7"/><path d="M163.33 23.492h-6.666v-6.666h6.665v6.666zm-6.235-.431h5.804v-5.804h-5.804v5.804z" fill="#3F3D56"/><rect x="167.167" y="28.264" width="31.486" height="2.806" rx="0" fill="#62E4C7"/><path d="M163.33 32.844h-6.666V26.18h6.665v6.665zm-6.235-.43h5.804v-5.805h-5.804v5.804z" fill="#3F3D56"/><rect x="167.167" y="37.617" width="31.486" height="2.806" rx="0" fill="#62E4C7"/><path d="M163.33 42.197h-6.666V35.53h6.665v6.666zm-6.235-.431h5.804v-5.804h-5.804v5.804z" fill="#3F3D56"/></g></svg>
