<svg xmlns="http://www.w3.org/2000/svg" xmlns:xlink="http://www.w3.org/1999/xlink" fill="none" version="1.1" width="209.09686279296875" height="135.317138671875" viewBox="0 0 209.09686279296875 135.317138671875"><g style="mix-blend-mode:passthrough"><g><path d="M157.93548166015626,107.76003276367187C157.93548166015626,107.76003276367187,157.93548166015626,107.76003276367187,157.93548166015626,107.76003276367187C157.36297166015626,103.90393276367188,157.21166466015626,99.99713276367187,157.48437166015626,96.10830276367187C157.48437166015626,96.10830276367187,157.93548166015626,89.67233276367188,157.93548166015626,89.67233276367188C157.93548166015626,89.67233276367188,157.93548166015626,89.67233276367188,157.93548166015626,89.67233276367188C155.45012966015625,94.61752276367187,156.01183566015624,101.12623276367188,157.93548166015626,107.76003276367187C157.93548166015626,107.76003276367187,157.93548166015626,107.76003276367187,157.93548166015626,107.76003276367187Z" fill="#CACACA" fill-opacity="1"/></g><g><path d="M159.87347206640624,108.83672094726563C159.87347206640624,108.83672094726563,159.87347206640624,108.83672094726563,159.87347206640624,108.83672094726563C159.59783706640624,106.53574094726562,159.52520506640624,104.21487094726562,159.65643106640624,101.90115094726562C159.65643106640624,101.90115094726562,159.87347206640624,98.07022094726562,159.87347206640624,98.07022094726562C159.87347206640624,98.07022094726562,159.87347206640624,98.07022094726562,159.87347206640624,98.07022094726562C158.67767106640625,101.01376094726562,158.94793506640625,104.88797094726563,159.87347206640624,108.83672094726563C159.87347206640624,108.83672094726563,159.87347206640624,108.83672094726563,159.87347206640624,108.83672094726563Z" fill="#CACACA" fill-opacity="1"/></g><g><path d="M168.48769931640624,113.57434176171876C168.48769931640624,113.57434176171876,168.48769931640624,115.72772576171874,168.48769931640624,115.72772576171874C168.48579931640626,116.08367576171875,168.19769931640624,116.37188576171874,167.84169931640625,116.37365576171875C167.84169931640625,116.37365576171875,166.76509931640624,116.37371576171876,166.76509931640624,116.37371576171876C166.70789931640624,116.37347576171875,166.65299931640624,116.39611576171875,166.61249931640626,116.43652576171876C166.57209931640625,116.47692576171875,166.54959931640624,116.53186576171875,166.54969931640625,116.58905576171875C166.54969931640625,116.58905576171875,166.54969931640625,134.24610576171875,166.54969931640625,134.24610576171875C166.54789931640624,134.60210576171875,166.25979931640626,134.89030576171876,165.90369931640626,134.89210576171874C165.90369931640626,134.89210576171874,152.76861931640624,134.89210576171874,152.76861931640624,134.89210576171874C152.41192931640626,134.89180576171876,152.12286931640625,134.60280576171874,152.12261931640626,134.24610576171875C152.12261931640626,134.24610576171875,152.12261931640626,116.58905576171875,152.12261931640626,116.58905576171875C152.12224931640625,116.47021576171875,152.02605931640625,116.37402576171876,151.90722931640624,116.37365576171875C151.90722931640624,116.37365576171875,150.61529631640624,116.37371576171876,150.61529631640624,116.37371576171876C150.25860631640626,116.37347576171875,149.96954411240625,116.08435576171875,149.96929997161024,115.72772576171874C149.96929997161024,115.72772576171874,149.96929997161024,113.57434176171876,149.96929997161024,113.57434176171876C149.96905583140625,113.40301576171875,150.03704901640626,113.23852576171875,150.15826431640625,113.11737076171875C150.27941931640626,112.99615546171874,150.44384831640625,112.92816227671875,150.61529631640624,112.92840641692275C150.61529631640624,112.92840641692275,167.84169931640625,112.92840641692275,167.84169931640625,112.92840641692275C168.19809931640626,112.92944401171874,168.48659931640626,113.21807976171876,168.48769931640624,113.57434176171876C168.48769931640624,113.57434176171876,168.48769931640624,113.57434176171876,168.48769931640624,113.57434176171876Z" fill="#F2F2F2" fill-opacity="1"/></g><g><rect x="152.1420135498047" y="116.82596588134766" width="14.427125930786133" height="0.6459906697273254" rx="0" fill="#E6E6E6" fill-opacity="1"/></g><g><path d="M166.5497265625,126.3316064453125C161.7220465625,128.3295264453125,156.8417965625,128.3515064453125,151.9072265625,126.3316064453125C151.9072265625,126.3316064453125,151.9072265625,121.7806964453125,151.9072265625,121.7806964453125C156.6577165625,120.1852414453125,161.7993165625,120.1852414453125,166.5497265625,121.7806964453125C166.5497265625,121.7806964453125,166.5497265625,126.3316064453125,166.5497265625,126.3316064453125C166.5497265625,126.3316064453125,166.5497265625,126.3316064453125,166.5497265625,126.3316064453125Z" fill="#E6E6E6" fill-opacity="1"/></g><g><ellipse cx="97.21751117706299" cy="46.08503437042236" rx="7.837094306945801" ry="7.837094306945801" fill="#2F2E41" fill-opacity="1"/></g><g><path d="M99.40084811523437,38.46380567016602C102.15902811523438,38.46380567016602,104.71491811523438,39.914455670166014,106.12951811523438,42.283325670166015C107.54431811523438,44.65325567016602,107.60881811523437,47.59145567016601,106.29991811523438,50.02035567016601C108.15291811523437,47.701955670166015,108.53691811523437,44.53573567016602,107.29191811523438,41.841615670166014C106.04691811523438,39.147515670166015,103.38671811523437,37.38812007016602,100.42025811523438,37.296872480166016C97.45376811523437,37.205685970166016,94.69045811523438,38.798365670166014,93.28231811523438,41.41088567016602C94.76632811523437,39.54766567016601,97.01894811523438,38.46273567016602,99.40084811523437,38.46380567016602C99.40084811523437,38.46380567016602,99.40084811523437,38.46380567016602,99.40084811523437,38.46380567016602Z" fill="#2F2E41" fill-opacity="1"/></g><g><ellipse cx="82.57268333435059" cy="23.04706988669932" rx="23.021387100219727" ry="23.021387100219727" fill="#2F2E41" fill-opacity="1"/></g><g><path d="M64.50476369140625,8.76329C72.75033369140625,-0.509995,86.86263369140624,-1.5777,96.40953369140625,6.34943C96.22133369140624,6.1705,96.03503369140626,5.99008,95.83943369140624,5.81619C86.33703369140625,-2.63146,71.78573369140625,-1.77628,63.33816369140625,7.72618C54.89056369140625,17.2287,55.74578369140625,31.78,65.24826369140625,40.2276C65.44397369140626,40.4014,65.64495369140624,40.5652,65.84469369140625,40.7312C56.85388169140625,32.1786,56.26117369140625,18.0383,64.50476369140625,8.76329C64.50476369140625,8.76329,64.50476369140625,8.76329,64.50476369140625,8.76329Z" fill="#2F2E41" fill-opacity="1"/></g><g><ellipse cx="82.37781143188477" cy="31.045942306518555" rx="14.827404022216797" ry="14.827404022216797" fill="#FFB8B8" fill-opacity="1"/></g><g><path d="M89.95202642822267,49.898681640625C89.95202642822267,49.898681640625,74.08462642822266,50.611999640625,74.08462642822266,50.611999640625C74.08462642822266,50.611999640625,75.40902642822266,58.817811640624996,66.82472642822266,59.598231640625C58.240426428222655,60.378581640625,50.436526428222656,58.037441640625,47.31497642822266,63.890381640625C44.193416428222655,69.743281640625,45.53891042822266,90.583981640625,45.53891042822266,90.583981640625C45.53891042822266,90.583981640625,51.391816428222654,111.654481640625,56.074126428222655,114.776081640625C60.75642642822265,117.897781640625,101.72692642822265,113.60558164062499,101.72692642822265,113.60558164062499C101.72692642822265,113.60558164062499,118.87342642822266,91.955281640625,118.87342642822266,91.955281640625C118.87342642822266,91.955281640625,118.29272642822265,75.258681640625,118.29272642822265,75.258681640625C117.98942642822266,66.53968164062499,110.02902642822265,59.993581640625,101.45522642822266,61.607081640625C101.28692642822266,61.638781640625,101.11732642822265,61.672881640625,100.94662642822266,61.709481640625C100.94662642822266,61.709481640625,99.06302642822266,60.301681640625,93.89512642822265,57.717711640625C90.73472642822266,56.137661640625,89.95202642822267,49.898681640625,89.95202642822267,49.898681640625C89.95202642822267,49.898681640625,89.95202642822267,49.898681640625,89.95202642822267,49.898681640625Z" fill="#CACACA" fill-opacity="1"/></g><g><path d="M55.50909423828131,59.2080419128418C55.50909423828131,59.2080419128418,59.28033423828125,66.0508119128418,57.71954423828125,75.8056919128418C56.15875223828125,85.5605919128418,62.70745423828125,106.1917919128418,62.70745423828125,106.1917919128418C62.70745423828125,106.1917919128418,67.38979423828125,105.0211919128418,67.38979423828125,105.0211919128418C67.38979423828125,105.0211919128418,64.26825423828124,84.7310919128418,65.04864423828126,80.0486919128418C65.82899423828125,75.36639191284179,66.04439423828126,61.5491619128418,62.14239423828125,59.2079719128418C58.24047423828125,56.866851912841796,55.50909423828131,59.2080419128418,55.50909423828131,59.2080419128418C55.50909423828131,59.2080419128418,55.50909423828131,59.2080419128418,55.50909423828131,59.2080419128418Z" fill="#2F2E41" fill-opacity="1"/></g><g><path d="M100.67221069101562,62.79593301757812C100.67221069101562,62.79593301757812,102.31241204101562,105.99669301757812,102.31241204101562,105.99669301757812C102.31241204101562,105.99669301757812,105.43393204101562,107.94769301757813,105.43393204101562,107.94769301757813C105.43393204101562,107.94769301757813,109.92117204101562,60.539093017578125,107.57998204101563,60.539093017578125C107.57998204101563,60.539093017578125,102.81625204101563,60.539093017578125,102.81625204101563,60.539093017578125C101.63052404101562,60.539093017578125,100.66934204101562,61.50033601757813,100.66934204101562,62.68600301757812C100.66934204101562,62.72268301757813,100.67037964101563,62.75924301757812,100.67221069101562,62.79593301757812C100.67221069101562,62.79593301757812,100.67221069101562,62.79593301757812,100.67221069101562,62.79593301757812Z" fill="#2F2E41" fill-opacity="1"/></g><g><ellipse cx="64.85358667373657" cy="103.2653374671936" rx="1.9509758949279785" ry="1.9509758949279785" fill="#6C63FF" fill-opacity="1"/></g><g><ellipse cx="103.8731461763382" cy="105.21622478961945" rx="1.950973629951477" ry="1.950973629951477" fill="#6C63FF" fill-opacity="1"/></g><g><path d="M69.69636535644531,12.51160717010498C69.69636535644531,12.51160717010498,69.69636535644531,27.33900717010498,69.69636535644531,27.33900717010498C69.69636535644531,27.33900717010498,73.1302653564453,27.33900717010498,73.1302653564453,27.33900717010498C73.1302653564453,27.33900717010498,77.5003853564453,22.65670717010498,77.5003853564453,22.65670717010498C77.5003853564453,22.65670717010498,76.91511535644531,27.33900717010498,76.91511535644531,27.33900717010498C76.91511535644531,27.33900717010498,92.09356535644531,27.33900717010498,92.09356535644531,27.33900717010498C92.09356535644531,27.33900717010498,91.15706535644532,22.65670717010498,91.15706535644532,22.65670717010498C91.15706535644532,22.65670717010498,93.02996535644532,27.33900717010498,93.02996535644532,27.33900717010498C93.02996535644532,27.33900717010498,95.44926535644531,27.33900717010498,95.44926535644531,27.33900717010498C95.44926535644531,27.33900717010498,95.44926535644531,12.51160717010498,95.44926535644531,12.51160717010498C95.44926535644531,12.51160717010498,69.69636535644531,12.51160717010498,69.69636535644531,12.51160717010498C69.69636535644531,12.51160717010498,69.69636535644531,12.51160717010498,69.69636535644531,12.51160717010498Z" fill="#2F2E41" fill-opacity="1"/></g><g><ellipse cx="67.35529780387878" cy="27.924513816833496" rx="1.1705825328826904" ry="2.146071434020996" fill="#FFB8B8" fill-opacity="1"/></g><g><ellipse cx="97.40011286735535" cy="27.924513816833496" rx="1.1705825328826904" ry="2.146071434020996" fill="#FFB8B8" fill-opacity="1"/></g><g><path d="M129.87635694885253,131.0243558203125C129.87635694885253,131.0243558203125,129.87635694885253,132.3313558203125,129.87635694885253,132.3313558203125C129.87735694885254,132.6900658203125,129.81135694885253,133.0457158203125,129.68135694885254,133.3799458203125C129.62335694885255,133.5289958203125,129.55335694885252,133.6730358203125,129.47235694885254,133.8106658203125C128.95035694885254,134.6870158203125,128.00535694885252,135.2236958203125,126.98495694885254,135.2232658203125C126.98495694885254,135.2232658203125,30.82923694885254,135.2232658203125,30.82923694885254,135.2232658203125C29.80918694885254,135.2236958203125,28.86424294885254,134.6870158203125,28.34214794885254,133.8106658203125C28.261001948852538,133.6730358203125,28.191146948852538,133.5289958203125,28.133315948852538,133.3799458203125C28.00309784885254,133.0457158203125,27.93663051485254,132.6900658203125,27.93736293651254,132.3313558203125C27.93736293651254,132.3313558203125,27.93736293651254,131.0243558203125,27.93736293651254,131.0243558203125C27.93693569085254,129.4276158203125,29.23100694885254,128.1328128203125,30.82771694885254,128.1324468203125C30.82771694885254,128.1324468203125,36.37183694885254,128.1324468203125,36.37183694885254,128.1324468203125C36.37183694885254,128.1324468203125,36.37183694885254,127.5230718203125,36.37183694885254,127.5230718203125C36.37171694885254,127.4565432203125,36.42555694885254,127.4025270626125,36.49201694885254,127.4024660275055C36.49201694885254,127.4024660275055,39.38425694885254,127.4024660275055,39.38425694885254,127.4024660275055C39.45075694885254,127.4023439573125,39.50475694885254,127.4561769203125,39.50485694885254,127.5225828203125C39.50485694885254,127.5225828203125,39.50485694885254,128.1324468203125,39.50485694885254,128.1324468203125C39.50485694885254,128.1324468203125,41.31155694885254,128.1324468203125,41.31155694885254,128.1324468203125C41.31155694885254,128.1324468203125,41.31155694885254,127.5230718203125,41.31155694885254,127.5230718203125C41.31135694885254,127.4565432203125,41.36525694885254,127.4025270626125,41.43165694885254,127.4024660275055C41.43165694885254,127.4024660275055,44.32395694885254,127.4024660275055,44.32395694885254,127.4024660275055C44.39045694885254,127.4023439573125,44.44445694885254,127.4561769203125,44.44455694885254,127.5225828203125C44.44455694885254,127.5225828203125,44.44455694885254,128.1324468203125,44.44455694885254,128.1324468203125C44.44455694885254,128.1324468203125,46.25335694885254,128.1324468203125,46.25335694885254,128.1324468203125C46.25335694885254,128.1324468203125,46.25335694885254,127.5230718203125,46.25335694885254,127.5230718203125C46.25325694885254,127.4565432203125,46.30705694885254,127.4025270626125,46.37355694885254,127.4024660275055C46.37355694885254,127.4024660275055,49.26575694885254,127.4024660275055,49.26575694885254,127.4024660275055C49.33225694885254,127.4023439573125,49.386256948852534,127.4561769203125,49.38635694885254,127.5225828203125C49.38635694885254,127.5225828203125,49.38635694885254,128.1324468203125,49.38635694885254,128.1324468203125C49.38635694885254,128.1324468203125,51.19305694885254,128.1324468203125,51.19305694885254,128.1324468203125C51.19305694885254,128.1324468203125,51.19305694885254,127.5230718203125,51.19305694885254,127.5230718203125C51.19285694885254,127.4565432203125,51.246756948852536,127.4025270626125,51.31315694885254,127.4024660275055C51.31315694885254,127.4024660275055,54.20545694885254,127.4024660275055,54.20545694885254,127.4024660275055C54.271956948852534,127.4023439573125,54.325956948852536,127.4561769203125,54.32605694885254,127.5225828203125C54.32605694885254,127.5225828203125,54.32605694885254,128.1324468203125,54.32605694885254,128.1324468203125C54.32605694885254,128.1324468203125,56.13265694885254,128.1324468203125,56.13265694885254,128.1324468203125C56.13265694885254,128.1324468203125,56.13265694885254,127.5230718203125,56.13265694885254,127.5230718203125C56.13255694885254,127.4565432203125,56.186356948852534,127.4025270626125,56.25285694885254,127.4024660275055C56.25285694885254,127.4024660275055,59.14515694885254,127.4024660275055,59.14515694885254,127.4024660275055C59.21155694885254,127.4023439573125,59.26565694885254,127.4561769203125,59.26565694885254,127.5225828203125C59.26565694885254,127.5225828203125,59.26565694885254,128.1324468203125,59.26565694885254,128.1324468203125C59.26565694885254,128.1324468203125,61.074456948852536,128.1324468203125,61.074456948852536,128.1324468203125C61.074456948852536,128.1324468203125,61.074456948852536,127.5230718203125,61.074456948852536,127.5230718203125C61.07435694885254,127.4565432203125,61.12815694885254,127.4025270626125,61.19465694885254,127.4024660275055C61.19465694885254,127.4024660275055,64.08695694885253,127.4024660275055,64.08695694885253,127.4024660275055C64.15345694885254,127.4023439573125,64.20745694885254,127.4561769203125,64.20755694885254,127.5225828203125C64.20755694885254,127.5225828203125,64.20755694885254,128.1324468203125,64.20755694885254,128.1324468203125C64.20755694885254,128.1324468203125,66.01415694885253,128.1324468203125,66.01415694885253,128.1324468203125C66.01415694885253,128.1324468203125,66.01415694885253,127.5230718203125,66.01415694885253,127.5230718203125C66.01405694885254,127.4565432203125,66.06785694885254,127.4025270626125,66.13435694885254,127.4024660275055C66.13435694885254,127.4024660275055,88.78755694885254,127.4024660275055,88.78755694885254,127.4024660275055C88.85405694885253,127.4023439573125,88.90795694885253,127.4561769203125,88.90815694885254,127.5225828203125C88.90815694885254,127.5225828203125,88.90805694885253,128.1324468203125,88.90805694885253,128.1324468203125C88.90805694885253,128.1324468203125,90.71685694885254,128.1324468203125,90.71685694885254,128.1324468203125C90.71685694885254,128.1324468203125,90.71685694885254,127.5230718203125,90.71685694885254,127.5230718203125C90.71675694885255,127.4565432203125,90.77055694885254,127.4025270626125,90.83705694885253,127.4024660275055C90.83705694885253,127.4024660275055,93.72935694885254,127.4024660275055,93.72935694885254,127.4024660275055C93.79565694885254,127.4031374143125,93.84925694885254,127.4566652203125,93.84995694885254,127.5230718203125C93.84995694885254,127.5230718203125,93.84995694885254,128.1324468203125,93.84995694885254,128.1324468203125C93.84995694885254,128.1324468203125,95.65655694885254,128.1324468203125,95.65655694885254,128.1324468203125C95.65655694885254,128.1324468203125,95.65655694885254,127.5230718203125,95.65655694885254,127.5230718203125C95.65645694885254,127.4565432203125,95.71025694885255,127.4025270626125,95.77675694885254,127.4024660275055C95.77675694885254,127.4024660275055,98.66905694885254,127.4024660275055,98.66905694885254,127.4024660275055C98.73555694885253,127.4023439573125,98.78945694885253,127.4561769203125,98.78965694885254,127.5225828203125C98.78965694885254,127.5225828203125,98.78965694885254,128.1324468203125,98.78965694885254,128.1324468203125C98.78965694885254,128.1324468203125,100.59625694885254,128.1324468203125,100.59625694885254,128.1324468203125C100.59625694885254,128.1324468203125,100.59625694885254,127.5230718203125,100.59625694885254,127.5230718203125C100.59615694885254,127.4565432203125,100.64995694885253,127.4025270626125,100.71645694885254,127.4024660275055C100.71645694885254,127.4024660275055,103.60875694885254,127.4024660275055,103.60875694885254,127.4024660275055C103.67515694885253,127.4023439573125,103.72915694885253,127.4561769203125,103.72925694885254,127.5225828203125C103.72925694885254,127.5225828203125,103.72925694885254,128.1324468203125,103.72925694885254,128.1324468203125C103.72925694885254,128.1324468203125,105.53805694885254,128.1324468203125,105.53805694885254,128.1324468203125C105.53805694885254,128.1324468203125,105.53805694885254,127.5230718203125,105.53805694885254,127.5230718203125C105.53795694885254,127.4565432203125,105.59175694885253,127.4025270626125,105.65825694885254,127.4024660275055C105.65825694885254,127.4024660275055,108.55055694885255,127.4024660275055,108.55055694885255,127.4024660275055C108.61645694885254,127.4032594843125,108.66935694885254,127.4570925203125,108.66895694885254,127.5230718203125C108.66895694885254,127.5230718203125,108.66895694885254,128.1324468203125,108.66895694885254,128.1324468203125C108.66895694885254,128.1324468203125,110.47775694885254,128.1324468203125,110.47775694885254,128.1324468203125C110.47775694885254,128.1324468203125,110.47775694885254,127.5230718203125,110.47775694885254,127.5230718203125C110.47765694885254,127.4565432203125,110.53145694885254,127.4025270626125,110.59795694885254,127.4024660275055C110.59795694885254,127.4024660275055,113.49025694885253,127.4024660275055,113.49025694885253,127.4024660275055C113.55675694885254,127.4023439573125,113.61065694885254,127.4561769203125,113.61085694885254,127.5225828203125C113.61085694885254,127.5225828203125,113.61085694885254,128.1324468203125,113.61085694885254,128.1324468203125C113.61085694885254,128.1324468203125,115.41735694885254,128.1324468203125,115.41735694885254,128.1324468203125C115.41735694885254,128.1324468203125,115.41735694885254,127.5230718203125,115.41735694885254,127.5230718203125C115.41725694885254,127.4565432203125,115.47115694885254,127.4025270626125,115.53765694885254,127.4024660275055C115.53765694885254,127.4024660275055,118.42985694885255,127.4024660275055,118.42985694885255,127.4024660275055C118.49635694885254,127.4023439573125,118.55035694885254,127.4561769203125,118.55045694885254,127.5225828203125C118.55045694885254,127.5225828203125,118.55045694885254,128.1324468203125,118.55045694885254,128.1324468203125C118.55045694885254,128.1324468203125,126.98495694885254,128.1324468203125,126.98495694885254,128.1324468203125C128.58135694885254,128.1320188203125,129.87635694885253,129.4260858203125,129.87635694885253,131.0227658203125C129.87635694885253,131.0227658203125,129.87635694885253,131.0243558203125,129.87635694885253,131.0243558203125Z" fill="#3F3D56" fill-opacity="1"/></g><g><rect x="0" y="134.8863525390625" width="209.0968475341797" height="0.4306604862213135" rx="0" fill="#3F3D56" fill-opacity="1"/></g><g><path d="M122.13395583496094,75.9786071803083C122.13395583496094,75.9786071803083,34.05467583496094,75.9786071803083,34.05467583496094,75.9786071803083C32.715745834960934,75.97854614513437,31.630355834960938,77.06399717773438,31.630355834960938,78.40292717773437C31.630355834960938,78.40292717773437,31.630355834960938,127.47910717773438,31.630355834960938,127.47910717773438C31.630355834960938,128.81810717773436,32.71577583496094,129.90350717773438,34.054705834960934,129.90350717773438C34.054705834960934,129.90350717773438,122.13395583496094,129.90350717773438,122.13395583496094,129.90350717773438C123.47285583496094,129.90350717773438,124.55825583496093,128.81810717773436,124.55825583496093,127.47910717773438C124.55825583496093,127.47910717773438,124.55825583496093,78.40298717773437,124.55825583496093,78.40298717773437C124.55825583496093,77.06405717773437,123.47285583496094,75.97866821543437,122.13395583496094,75.97866821543437C122.13395583496094,75.97866821543437,122.13395583496094,75.9786071803083,122.13395583496094,75.9786071803083Z" fill="#3F3D56" fill-opacity="1"/></g><g><ellipse cx="78.16487216949463" cy="93.11229801177979" rx="5.383255958557129" ry="5.383255958557129" fill="#62E4C7" fill-opacity="1"/></g><g><path d="M111.490050890625,57.54791590576172C111.490050890625,57.54791590576172,138.665937890625,30.157264905761718,138.665937890625,30.157264905761718C138.665937890625,30.157264905761718,151.495937890625,30.157264905761718,151.495937890625,30.157264905761718C151.495937890625,30.157264905761718,151.495937890625,29.72661590576172,151.495937890625,29.72661590576172C151.495937890625,29.72661590576172,138.486237890625,29.72661590576172,138.486237890625,29.72661590576172C138.486237890625,29.72661590576172,138.42313789062501,29.79056550576172,138.42313789062501,29.79056550576172C138.42313789062501,29.79056550576172,111.183837890625,57.24521590576172,111.183837890625,57.24521590576172C111.183837890625,57.24521590576172,111.490050890625,57.54791590576172,111.490050890625,57.54791590576172C111.490050890625,57.54791590576172,111.490050890625,57.54791590576172,111.490050890625,57.54791590576172Z" fill="#3F3D56" fill-opacity="1"/></g><g><rect x="167.16688537597656" y="18.91193389892578" width="31.486446380615234" height="2.8057312965393066" rx="0" fill="#62E4C7" fill-opacity="1"/></g><g><path d="M163.3294704296875,23.49167083984375C163.3294704296875,23.49167083984375,156.6639404296875,23.49167083984375,156.6639404296875,23.49167083984375C156.6639404296875,23.49167083984375,156.6639404296875,16.82611083984375,156.6639404296875,16.82611083984375C156.6639404296875,16.82611083984375,163.3294704296875,16.82611083984375,163.3294704296875,16.82611083984375C163.3294704296875,16.82611083984375,163.3294704296875,23.49167083984375,163.3294704296875,23.49167083984375C163.3294704296875,23.49167083984375,163.3294704296875,23.49167083984375,163.3294704296875,23.49167083984375ZM157.0946044296875,23.06100083984375C157.0946044296875,23.06100083984375,162.8988004296875,23.06100083984375,162.8988004296875,23.06100083984375C162.8988004296875,23.06100083984375,162.8988004296875,17.25675983984375,162.8988004296875,17.25675983984375C162.8988004296875,17.25675983984375,157.0946044296875,17.25675983984375,157.0946044296875,17.25675983984375C157.0946044296875,17.25675983984375,157.0946044296875,23.06100083984375,157.0946044296875,23.06100083984375C157.0946044296875,23.06100083984375,157.0946044296875,23.06100083984375,157.0946044296875,23.06100083984375Z" fill="#3F3D56" fill-opacity="1"/></g><g><rect x="167.16688537597656" y="28.26430892944336" width="31.486446380615234" height="2.8057312965393066" rx="0" fill="#62E4C7" fill-opacity="1"/></g><g><path d="M163.3294704296875,32.84410309082031C163.3294704296875,32.84410309082031,156.6639404296875,32.84410309082031,156.6639404296875,32.84410309082031C156.6639404296875,32.84410309082031,156.6639404296875,26.178543090820312,156.6639404296875,26.178543090820312C156.6639404296875,26.178543090820312,163.3294704296875,26.178543090820312,163.3294704296875,26.178543090820312C163.3294704296875,26.178543090820312,163.3294704296875,32.84410309082031,163.3294704296875,32.84410309082031C163.3294704296875,32.84410309082031,163.3294704296875,32.84410309082031,163.3294704296875,32.84410309082031ZM157.0946044296875,32.41343309082031C157.0946044296875,32.41343309082031,162.8988004296875,32.41343309082031,162.8988004296875,32.41343309082031C162.8988004296875,32.41343309082031,162.8988004296875,26.609207090820313,162.8988004296875,26.609207090820313C162.8988004296875,26.609207090820313,157.0946044296875,26.609207090820313,157.0946044296875,26.609207090820313C157.0946044296875,26.609207090820313,157.0946044296875,32.41343309082031,157.0946044296875,32.41343309082031C157.0946044296875,32.41343309082031,157.0946044296875,32.41343309082031,157.0946044296875,32.41343309082031Z" fill="#3F3D56" fill-opacity="1"/></g><g><rect x="167.16688537597656" y="37.61674499511719" width="31.486446380615234" height="2.8057312965393066" rx="0" fill="#62E4C7" fill-opacity="1"/></g><g><path d="M163.3294704296875,42.196535341796874C163.3294704296875,42.196535341796874,156.6639404296875,42.196535341796874,156.6639404296875,42.196535341796874C156.6639404296875,42.196535341796874,156.6639404296875,35.530975341796875,156.6639404296875,35.530975341796875C156.6639404296875,35.530975341796875,163.3294704296875,35.530975341796875,163.3294704296875,35.530975341796875C163.3294704296875,35.530975341796875,163.3294704296875,42.196535341796874,163.3294704296875,42.196535341796874C163.3294704296875,42.196535341796874,163.3294704296875,42.196535341796874,163.3294704296875,42.196535341796874ZM157.0946044296875,41.765865341796875C157.0946044296875,41.765865341796875,162.8988004296875,41.765865341796875,162.8988004296875,41.765865341796875C162.8988004296875,41.765865341796875,162.8988004296875,35.961639341796875,162.8988004296875,35.961639341796875C162.8988004296875,35.961639341796875,157.0946044296875,35.961639341796875,157.0946044296875,35.961639341796875C157.0946044296875,35.961639341796875,157.0946044296875,41.765865341796875,157.0946044296875,41.765865341796875C157.0946044296875,41.765865341796875,157.0946044296875,41.765865341796875,157.0946044296875,41.765865341796875Z" fill="#3F3D56" fill-opacity="1"/></g></g></svg>
