<svg data-name="///&" xmlns="http://www.w3.org/2000/svg" width="259" height="259" viewBox="0 0 259 259"><defs><clipPath id="a"><path d="M23.636 1.4v9.607s-18.519 1.756-21.694 1.13-2.1-4.1.666-5.508 11.411-4 11.411-4V0h9.617z" fill="#55adb4"/></clipPath><clipPath id="b"><path d="M-31.028 1.4v9.607s18.519 1.751 21.694 1.124 2.1-4.1-.666-5.508-11.411-4-11.411-4V0h-9.617z" transform="translate(31.028)" fill="#55adb4"/></clipPath></defs><g data-name="29"><g data-name="8" transform="translate(37.305 45.084)"><rect width="176.93" height="4.263" rx="2.132" transform="translate(5.329 90.278)" fill="#333"/><ellipse cx="92.728" cy="3.73" rx="92.728" ry="3.73" transform="translate(0 161.689)" fill="#f4f5f5"/><g data-name="79"><g data-name="193"><path d="M88.299 155.172v9.607s-18.519 1.756-21.694 1.13-2.1-4.1.666-5.508 11.411-4 11.411-4v-2.629h9.617z" fill="#c4d0e5"/><g data-name="193" clip-path="url(#a)" transform="translate(64.663 153.772)"><path data-name="193" d="M.055 8.595s1.02 2.307 7.318 1.6 16.801-1.6 16.801-1.6v3.809s-15.928 1.539-19.811.769-5.437-2.161-5.437-2.161z" fill="#55adb4"/></g></g><g data-name="193"><path d="M101.702 155.172v9.607s18.519 1.751 21.694 1.124 2.1-4.1-.666-5.508-11.411-4-11.411-4v-2.623h-9.617z" fill="#c4d0e5"/><g data-name="193" clip-path="url(#b)" transform="translate(101.702 153.772)"><path data-name="193" d="M23.582 8.595s-1.019 2.307-7.317 1.6-16.802-1.6-16.802-1.6v3.809s15.927 1.539 19.811.769 5.433-2.161 5.433-2.161z" fill="#55adb4"/></g></g><path d="M75.48 120.226a7.1 7.1 0 0 1 7.095-7.19 7.124 7.124 0 0 1 7.124 7.19l-.325 35.158h-13.43z" fill="#17003a"/><path data-name="392" d="M96.577 120.456a6.737 6.737 0 0 1 6.701-7.42 7.974 7.974 0 0 1 7.957 7.442l2.334 34.906H100.14z" fill="#17003a"/><path d="M74.982 68.715a5.567 5.567 0 0 1 5.547-5.1h23.061a5.567 5.567 0 0 1 5.548 5.1l.849 10.19a5.567 5.567 0 0 1-3.41 5.6L92.06 90.549l-14.517-6.034a5.567 5.567 0 0 1-3.41-5.6z" fill="#17003a"/><path d="M74.261 78.656h18.264l-2.764 41.86H75.385z" fill="#17003a"/><path data-name="391" d="M109.791 78.656H91.522l5.1 41.86h14.38z" fill="#17003a"/><g data-name="108"><path d="M86.219 22.269h11.749l.537 7.392H85.613z" fill="#00a38d"/><path d="M78.53 23.575a.384.384 0 0 1 .38-.361h26.751a.384.384 0 0 1 .383.365l2.286 45.476a.384.384 0 0 1-.337.4l-15.8 1.936-16-1.936a.384.384 0 0 1-.337-.4z" fill="#fff"/><path d="M78.027 22.612s2.931-.273 4.44-.343 4.359 0 4.359 0l-1.7 53.555a33.37 33.37 0 0 1-5.882-.537c-2.41-.537-5.986-1.611-5.986-1.611z" fill="#00a38d"/><path data-name="386" d="M106.23 22.612s-2.928-.273-4.44-.343-4.359 0-4.359 0l1.7 53.555a33.37 33.37 0 0 0 5.882-.537c2.414-.537 5.991-1.612 5.991-1.612z" fill="#00a38d"/><path data-name="390" d="M113.718 28.702a7.82 7.82 0 0 0-7.169-6.116 4.684 4.684 0 0 0-4.9 5.468l3.3 19.219 12.358-2.346z" fill="#00a38d"/><path data-name="191" d="M99.221 23.051l-.459.326 3.124 4.349-2.842 1.912 3.709 3.04-4.032 13.473.536.16 4.138-13.829-3.414-2.8 2.7-1.813z" fill="#2eccac"/></g><g data-name="86"><path d="M119.71 57.65l-29.09 2.686.107.873 6.234 2.614a1.258 1.258 0 0 0 .64.089l26.743-3.284-.108-.88z" fill="#333"/><path d="M119.602 56.777L90.62 60.336l6.234 2.614a1.258 1.258 0 0 0 .64.088l26.743-3.283z" fill="#d8d8d8"/><path d="M125.053 39.888a1.258 1.258 0 0 0-1.408-1.338l-24.867 3.053a1.258 1.258 0 0 0-1.103 1.163l-1.283 18.9a1.258 1.258 0 0 0 1.409 1.339l24.868-3.054a1.258 1.258 0 0 0 1.101-1.163z" fill="#d8d8d8"/><path d="M125.927 39.78a1.258 1.258 0 0 0-1.409-1.338l-24.867 3.054a1.258 1.258 0 0 0-1.102 1.163l-1.284 18.9a1.258 1.258 0 0 0 1.409 1.338l24.868-3.053a1.258 1.258 0 0 0 1.102-1.163z" fill="#f4f5f5"/></g><g data-name="20"><path data-name="67" d="M118.274 61.806s-.07.731.907.617 1.576-.418 1.76-1.086a69.134 69.134 0 0 0 .565-7.065c.088-1.684-1.717-1.07-1.959.038s-1.273 7.496-1.273 7.496z" fill="#ffc2bd"/><path data-name="67 2" d="M120.724 60.991s-.06.629.769.53a1.779 1.779 0 0 0 1.636-1.059 29.366 29.366 0 0 0 .132-5.2.903.903 0 1 0-1.804-.094c-.056 1.092-.733 5.823-.733 5.823z" fill="#ffc2bd"/><path data-name="67" d="M115.875 62.246a1.209 1.209 0 0 0 1.285.476c.978-.119 1.411-.335 1.595-1.002a57.709 57.709 0 0 0 .686-6.652c.09-1.708-1.999-.925-2.132-.112s-1.434 7.29-1.434 7.29z" fill="#ffc2bd"/><path data-name="66" d="M114.416 61.51l-.804.473s.381.82.729.96a2.96 2.96 0 0 0 1.505-.063c.379-.12.762-.995.762-.995s.704-4.69.492-5.566-1.496-.518-1.92.568a31.418 31.418 0 0 0-.764 4.624z" fill="#ffc2bd"/><path data-name="68" d="M115.951 62.538a.28.28 0 0 0 .38-.114l.268-.511.134-.275q.059-.124.101-.224l.067-.176a.9.9 0 0 0 .035-.13l.047-.298.076-.558.086-.696.127-1.15.142-1.4.039-.39a.28.28 0 1 0-.557-.052l-.202 1.986-.118 1.043-.126.995-.066.427-.009.037-.044.117-.126.277-.197.392-.17.32a.28.28 0 0 0 .113.38zM118.087 61.86a.28.28 0 1 0 .459.324 3.3 3.3 0 0 0 .667-1.486l.49-5.282a.28.28 0 1 0-.557-.052l-.49 5.278a2.836 2.836 0 0 1-.569 1.217z" fill="#eba09a"/><path data-name="68 2" d="M120.85 61.602a.28.28 0 0 0 .354-.182l.287-.898.11-.37.041-.163.018-.1.05-.613.048-.744.045-.876.044-1.005.043-1.137a.28.28 0 0 0-.56-.02l-.042 1.134-.058 1.298-.044.826-.034.481-.049.606-.013.065-.087.302-.331 1.043a.28.28 0 0 0 .179.353z" fill="#eba09a"/></g><path d="M68.583 42.164l10.13 1.244-2.385 12.437a5.458 5.458 0 0 1-6.026 4.39 4.771 4.771 0 0 1-4.104-5.634" fill="#eba09a"/><path d="M70.609 28.588a7.237 7.237 0 0 1 7.021-5.984 5.009 5.009 0 0 1 5.017 5.817l-2.943 17.987-11.818-2.348z" fill="#00a38d"/><path data-name="191" d="M85.174 23.052l.455.326-3.125 4.349 2.842 1.912-3.708 3.04 4.031 13.473-.536.16-4.138-13.829 3.414-2.8-2.696-1.813z" fill="#2eccac"/><path d="M59.613 33.645l5.81-.408 9.355 21.193a4.129 4.129 0 0 1-3.488 5.785 6.777 6.777 0 0 1-7.098-5.329z" fill="#ffc2bd"/><g data-name="90"><path data-name="183" d="M58.34 31.43s-4.583-3.933-4.427-4.96a6.845 6.845 0 0 1 2.003-3.85c1.305-1.228 2.187-1.588 2.547-1.467a1.2 1.2 0 0 1 .573.498 1.2 1.2 0 0 1 1.272-.127 2.3 2.3 0 0 1 .815 1.32 1.436 1.436 0 0 1 1.113-.141c.511.211.987 1.568.987 1.568s1.223-.305 1.473.696a1.5 1.5 0 0 1-.497 1.552s.62 3.844.69 4.399.57 2.548.57 2.548l-5.66.999z" fill="#ffc2bd"/><path data-name="184" d="M58.92 22.026a.28.28 0 0 1 .067.39l-.396.55-.368.504-.342.453-.318.4a7.139 7.139 0 0 1-1.22 1.266l-.088.06c-.422.259-.61.545-.607.872a.28.28 0 0 1-.56.013 1.485 1.485 0 0 1 .716-1.262l.152-.1a3.566 3.566 0 0 0 .675-.617l.252-.289.278-.337.304-.385.329-.437.355-.484.383-.533a.28.28 0 0 1 .388-.064z" fill="#eba09a"/><path data-name="185" d="M60.87 23.18a.28.28 0 0 1 .027.398l-.799.912-.651.724-.275.293-.346.353-.188.179-.16.132-.063.05a1.415 1.415 0 0 0-.521.953.28.28 0 1 1-.551-.095 2.034 2.034 0 0 1 .604-1.199l.263-.219.074-.067.176-.17.332-.34.412-.445.493-.543.781-.89a.28.28 0 0 1 .391-.027z" fill="#eba09a"/><path data-name="186" d="M62.726 24.34a.28.28 0 0 1 .325.453l-.717.534-.604.46-.336.266a1.66 1.66 0 0 0-.648.929.28.28 0 0 1-.549-.112 2.2 2.2 0 0 1 .846-1.252l.342-.273.395-.302.689-.515z" fill="#eba09a"/></g><g data-name="107"><path d="M87.9 16.937h8.595l.537 6.983a7.861 7.861 0 0 1-4.738 1.6 8.818 8.818 0 0 1-4.931-1.6z" fill="#eba09a"/><path d="M86.507 6.669a3.071 3.071 0 0 1 3.07-3.162h5.317a3.071 3.071 0 0 1 3.069 3.183l-.338 9.286a2.3 2.3 0 0 1-1.446 2.055l-4.137 1.657-3.857-1.637a2.3 2.3 0 0 1-1.4-2.053z" fill="#ffc2bd"/><path data-name="190" d="M85.82 10.117l-.689-6.61 2.5-.81A4.259 4.259 0 0 1 90.9.747c2.063 0 8.557 1.6 8.557 1.6l-1.175 2.188.976.9-.8 4.685h-1V7.008a21.831 21.831 0 0 1-4.122.605 41.956 41.956 0 0 1-6.012-1.043v1.043l-.424 2.5z" fill="#0d2150"/><path d="M86.615 14.866c1.228 0 1.285-1.995 1.285-3.033a1.761 1.761 0 0 0-1.611-1.88 1.663 1.663 0 0 0-1.75 1.644c0 1.039.849 3.269 2.076 3.269z" fill="#ffc2bd"/><path data-name="63" d="M97.642 14.866c-1.228 0-1.285-1.995-1.285-3.033a1.761 1.761 0 0 1 1.613-1.88 1.663 1.663 0 0 1 1.75 1.644c-.001 1.039-.85 3.269-2.078 3.269z" fill="#ffc2bd"/><g data-name="106" fill="#0d2150"><path d="M87.9 13.176a1.074 1.074 0 0 1-1.074-1.074v-1.611a.537.537 0 0 1 .538-.538h3.762a.537.537 0 0 1 .538.538v1.611a1.074 1.074 0 0 1-1.078 1.074z"/><path d="M91.514 10.981a3.487 3.487 0 0 1 .686-.11 3.6 3.6 0 0 1 .693.11v.538a3.622 3.622 0 0 0-.7-.11 3.432 3.432 0 0 0-.679.11"/><path data-name="385" d="M93.809 13.176a1.074 1.074 0 0 1-1.074-1.074v-1.611a.537.537 0 0 1 .538-.538h3.762a.537.537 0 0 1 .538.538v1.611a1.074 1.074 0 0 1-1.078 1.074z"/></g></g></g><rect width="31.975" height="8.527" rx="2" transform="translate(9.593 81.751)" fill="#f4f5f5"/><rect data-name="289" width="31.975" height="41.568" rx="2" transform="translate(146.021 48.71)" fill="#f4f5f5"/><rect data-name="287" width="31.975" height="8.527" rx="2" transform="translate(9.593 72.158)" fill="#f4f5f5"/><rect data-name="288" width="31.975" height="8.527" rx="2" transform="translate(9.593 62.566)" fill="#f4f5f5"/><path data-name="56" d="M174.265 57.237a.533.533 0 0 1 .1 1.057l-.1.009h-25.58a.533.533 0 0 1-.096-1.057l.096-.009zM174.265 66.296a.533.533 0 0 1 .1 1.057l-.1.009h-25.58a.533.533 0 0 1-.096-1.057l.096-.009z" fill="#d8d8d8"/><path data-name="56 2" d="M174.265 74.823a.533.533 0 0 1 .1 1.057l-.1.009h-25.58a.533.533 0 0 1-.096-1.057l.096-.009z" fill="#d8d8d8"/><path data-name="56 3" d="M174.265 83.35a.533.533 0 0 1 .1 1.057l-.1.009h-25.58a.533.533 0 0 1-.096-1.057l.096-.009z" fill="#d8d8d8"/><path data-name="57" d="M43.317 33.832q-5.222-8.026-12.962-9.859l-.37-.084.082.203a14.727 14.727 0 0 1 1.026 4.628l.01.367c.041 4.18-2.367 6.621-6.381 5.82-3.893-.776-6.211-3.906-5.759-7.207.472-3.443 3.722-5.678 8.545-5.26l.444.043.22.026-.067-.13a20.724 20.724 0 0 0-3.472-4.68l-.33-.327Q16.7 10 7.354 11.103a.533.533 0 1 1-.123-1.057q9.854-1.148 17.81 6.56a21.715 21.715 0 0 1 4.334 5.907l.084.182.23.041q8.555 1.63 14.24 10.084l.282.427a.533.533 0 1 1-.893.58z" fill="#d8d8d8"/><rect width="7.461" height="27.712" rx="3" transform="translate(153.481 123.319)" fill="#f4f5f5"/><path data-name="290" d="M164.442 114.792h1.527a3.5 3.5 0 0 1 3.5 3.5v23.909a3.5 3.5 0 0 1-3.5 3.5h-5.027v-27.409a3.5 3.5 0 0 1 3.5-3.5z" fill="#f4f5f5"/><rect width="21.317" height="20.251" rx="2" transform="translate(150.284 144.636)" fill="#d8d8d8"/><path data-name="58" d="M182.259 48.177a.533.533 0 0 1 .1 1.057l-.1.009h-20.251a.533.533 0 0 1-.096-1.057l.096-.009z" fill="#333"/><path data-name="58" d="M177.996 44.979a.533.533 0 0 1 .524.437l.009.1v30.905a.533.533 0 0 1-1.057.1l-.009-.1V45.512a.533.533 0 0 1 .533-.533z" fill="#333"/></g><path fill="none" d="M0 0h259v259H0z"/></g></svg>
