<svg data-name="11" xmlns="http://www.w3.org/2000/svg" width="285.835" height="223.297" viewBox="0 0 285.835 223.297"><defs><clipPath id="a"><path d="M9.832 25.48c4.358 0 7.336-4.952 7.728-11.209S20.059 0 10.284 0-.315 8.472.074 15.04s6.897 10.387 9.758 10.44z" transform="rotate(-6.02 19.566 201.553)" fill="#ffcbd5"/></clipPath></defs><ellipse cx="142.918" cy="11.263" rx="142.918" ry="11.263" transform="translate(0 200.771)" fill="rgba(237,238,239,0.6)"/><g data-name="49"><path data-name="108" d="M124.526 183.435l14.696-26.727 10.893 5.251-18.481 27.973-2.445 16.833-8.5-.445z" fill="#ffcbd5"/><path data-name="101" d="M129.404 204.726s.485 11.261-.59 12.785-3.759-1.09-5.918-3.571-4.928-7.274-4.855-8.84c-.052-.718.813-2.522 1.414-5.273a49.516 49.516 0 0 0 .546-5.69l-6.54 3.76-1.324-1.325s5.893-8.721 7.282-10.004a30.576 30.576 0 0 1 5.352-3.861s-.965 15.497-.89 17.329a5.967 5.967 0 0 0 2.312 4.204c.966.688 3.21.486 3.21.486z" fill="#221f3a"/></g><path d="M206.888 109.809a1.489 1.489 0 0 1 1.7 1.024l.039.158 17.039 88.951a1.489 1.489 0 0 1-2.885.718l-.039-.158-17.036-88.951a1.489 1.489 0 0 1 1.182-1.742z" fill="#160432"/><path d="M117.106 67.137a1.064 1.064 0 0 0-1.052-.9H72.802a1.064 1.064 0 0 0-1.052 1.227l10.734 69.331a1.064 1.064 0 0 0 1.051.9h43.254a1.064 1.064 0 0 0 1.051-1.226z" fill="#d8d8d8"/><rect width="66.993" height="11.91" rx="1.064" transform="translate(81.135 133.229)" fill="#d8d8d8"/><path d="M79.147 109.809a1.489 1.489 0 0 0-1.7 1.024l-.039.158-17.039 88.951a1.489 1.489 0 0 0 1.182 1.74 1.489 1.489 0 0 0 1.7-1.024l.039-.158 17.039-88.949a1.489 1.489 0 0 0-1.182-1.742z" fill="#160432"/><path data-name="3" d="M142.165 88.771a5.852 5.852 0 0 0-6.185 5.843v1.945a5.852 5.852 0 0 0 5.852 5.852h33.325V90.65z" fill="#ecf2ff"/><g data-name="50"><path data-name="98" d="M115.552 29.246a15.408 15.408 0 0 1 6.3 4.018s7.263 1.9 5.17 11.388c-.008.129-2.606 8.737-1.41 10.503s-.606 6.696.53 8.788 4.692 3.488 3.738 6.453-2.52 7.11-.959 9.081-4.321 8.197-9.397 7.661-8.245 1.746-13.414 1.2-16.03-5.682-17.8-8.72a9.162 9.162 0 0 1-.954-6.277 8.104 8.104 0 0 1-1.663-5.884c.377-3.568 3.777-5.285 3.996-7.362s-1.37-4.42 2.635-7.921 6.526-6.364 7.667-11.791 7.638-13.495 15.561-11.137z" fill="#00a38d"/><path data-name="308" d="M118.996 62.627h6.761a6.72 6.72 0 0 1 6.309 4.403l14.562 39.655a7.494 7.494 0 0 1-4.975 9.783 7.905 7.905 0 0 1-9.815-5.568z" fill="#ecf2ff"/><path d="M125.953 63.522l-29.083.257a.96.96 0 0 0-.951.987l1.014 35.644c1.5 4.45 1.5 14.42 1.5 14.42h28.668a89.939 89.939 0 0 1 3.158-9.38c3.05-6.081 6.424-9.797 6.424-17.642 0-7.186-10.73-24.286-10.73-24.286z" fill="#ecf2ff"/><path d="M131.346 83.71a.56.56 0 0 0-.56.56c0 4.664-.859 7.072-3.118 10.164l-1.451 1.949-.5.7a27.315 27.315 0 0 0-1.267 1.971.56.56 0 0 0 .2.765.56.56 0 0 0 .765-.2c.245-.422.5-.835.776-1.249.287-.434.581-.854.933-1.334l1.45-1.947c2.391-3.27 3.332-5.907 3.332-10.819a.56.56 0 0 0-.56-.56z" fill="#aec1e6"/><path d="M105.535 72.312a6.979 6.979 0 0 0-6.152-8.74 9.826 9.826 0 0 0-10.355 7.324l-5.373 20.738a6.244 6.244 0 0 0 6.342 7.805 11.574 11.574 0 0 0 10.634-8.605z" fill="#ecf2ff"/><path d="M118.996 49.657h-9.4l-.357 17.933 8.7 23.687 2.4-23.687z" fill="#fcb3c1"/><g data-name="100"><path d="M120.189 58.901c4.295-.76 6.367-6.16 5.661-12.396s-.026-14.503-9.66-12.797-8.97 10.199-7.44 16.605 8.61 9.035 11.439 8.588z" fill="#ffcbd5"/><g data-name="100" clip-path="url(#a)" transform="rotate(-4.01 503.796 -1794.41)"><path data-name="100" d="M-.497 15.635a13.8 13.8 0 0 1-5.312-3.792 6.327 6.327 0 0 0-5.109-2.446 3.714 3.714 0 0 1-3.075-1.537c-.752-1.332 4.181-9.272 4.181-9.272S-3.134-4.394-.497-.396s1.5 14.879 1.5 14.879z" fill="#fcb3c1"/></g></g><path data-name="99" d="M109.445 48.79s1.907-4.338 5.53-6.41a11.668 11.668 0 0 0 4.856-5.057s2.049 3.538 4.376 4.868 2.59 1.499 2.59 1.499-.68-11.23-9.92-10.165-10.4 8.11-9.819 10.829a9.416 9.416 0 0 0 2.387 4.436z" fill="#00a38d"/><path d="M108.176 53.261a2.9 2.9 0 0 0 1.785-3.653c-.416-1.668-1.525-3.11-3.358-2.654s-2.632 1.658-2.216 3.326 2.388 3.33 3.789 2.981z" fill="#ffcbd5"/><path data-name="104" d="M120.981 63.035a.56.56 0 0 0-.758-.233.56.56 0 0 0-.272.652l.043.1 4.955 9.237-2.986 2.8 3.011 3.7-7.28 13.523a.56.56 0 0 0 .134.695l.094.063a.56.56 0 0 0 .695-.134l.063-.094 7.635-14.176-2.823-3.467 2.849-2.675z" fill="#aec1e6"/><path data-name="105" d="M108.636 62.78a.56.56 0 0 0-.679.2l-.055.1-4.847 11.425 4.976 3.725-3.916 4.71 14.5 13.81a.56.56 0 0 0 .786-.015.56.56 0 0 0 .054-.708l-.074-.086-13.738-13.09 4-4.809-5.217-3.907 4.507-10.622a.56.56 0 0 0-.2-.679z" fill="#aec1e6"/><g data-name="48"><path data-name="6" d="M138.555 91.097s2.768-.742 3.325-.083a29.27 29.27 0 0 1 2.729 3.69c.36.623.637 1.537-.143 1.746s-1.498-.716-1.498-.716l-2.296-3.202-.764.205z" fill="#faa1b2"/><path data-name="5" d="M136.347 90.997a9.06 9.06 0 0 1 2.955-.403c1.72.595 4.992 6.128 4.168 6.395s-1.655.237-1.944-.245-2.318-3.479-2.318-3.479l-1.53.498z" fill="#fcb3c1"/><path data-name="4" d="M124.93 99.599v-5.912s11.027-3.183 11.758-2.975a8.547 8.547 0 0 1 2.935 1.801c1.324.997 2.328 1.824 2.652 2.144.525.52 1.082.972.607 1.411a2.026 2.026 0 0 1-2.28.094c-.885-.464-4.144-2.1-4.144-2.1l-1.182.317a2.7 2.7 0 0 1-1.063.008 2.935 2.935 0 0 1 .101.89 1.55 1.55 0 0 1-.423.803 28.882 28.882 0 0 1 4.734-.264 1.18 1.18 0 0 1 .799 1.486c-.194.272-1.44.718-4.414 1.62s-10.08.677-10.08.677z" fill="#ffcbd5"/></g><path d="M124.93 90.948l-34.995-2.335a6.545 6.545 0 0 0-6.98 6.535 7 7 0 0 0 7 7h34.975z" fill="#ecf2ff"/><path d="M97.024 80.262a.56.56 0 0 0-.627.327l-.034.108-1.987 9.634 29.994 1.153v10.656a.56.56 0 0 0 .447.548l.113.011a.56.56 0 0 0 .548-.449l.011-.11V90.408l-29.751-1.146 1.721-8.339a.56.56 0 0 0-.327-.627z" fill="#aec1e6"/></g><path d="M99.407 29.785a14.988 14.988 0 0 1-3.461-2.05 1.655 1.655 0 0 1-.061-2.3 1.655 1.655 0 0 1 2.236.539 14.988 14.988 0 0 1 1.286 3.811z" fill="#d8d8d8"/><path data-name="43" d="M98.35 31.81s-4.151 2.1-5.663 2.1-2.737-.942-2.737-2.1 1.225-2.1 2.737-2.1 5.663 2.1 5.663 2.1z" fill="#d8d8d8"/><rect width="199.489" height="8.932" rx="1.064" transform="translate(38.114 101.966)" fill="#edeeef"/><path d="M192.904 71.193a1 1 0 0 0-.969-1.234h-42.884a1 1 0 0 0-.972.766l-6.683 27.774a1 1 0 0 0 .972 1.234h42.884a1 1 0 0 0 .972-.766z" fill="#edeeef"/><rect data-name="5" width="61.782" height="2.233" rx="1.064" transform="translate(124.723 99.733)" fill="#17003a"/><path d="M67.888 110.899h-9.58l-16.3 99.745h2.8z" fill="#edeeef"/><path data-name="6" d="M214.889 110.899h9.58l16.3 99.745h-2.8z" fill="#edeeef"/><g data-name="49"><path data-name="108" d="M116.987 167.064l22.567-8.249 5.82 8.232-25.83 7.627-8.585 11.286-6.013-3.757z" fill="#ffcbd5"/><path data-name="101" d="M111.938 184.56s-4.202 8.409-5.598 9.083-2.3-2.313-2.872-4.997-.653-7.295.033-8.407c.253-.545 1.612-1.51 3.163-3.274a41.28 41.28 0 0 0 2.697-3.928l-6.288.099-.43-1.5s7.825-3.978 9.354-4.352a25.49 25.49 0 0 1 5.462-.653s-6.966 10.91-7.652 12.276a4.975 4.975 0 0 0-.013 4c.427.897 2.144 1.654 2.144 1.654z" fill="#221f3a"/></g><path data-name="109" d="M158.455 116.132s17.959-2.462 17.959 12.593-42.445 47.572-42.445 47.572z" fill="#78e8cf"/><path data-name="107" d="M97.355 111.271s-4.67 23.539 5.984 27.914c7.709 2.742 38.381-5.955 38.381-5.955l-19.833 41.626 21.135 8.555s26.693-50.182 26.693-64.863c0-12.116-72.36-7.277-72.36-7.277z" fill="#78e8cf"/><path d="M169.714 117.849a.7.7 0 0 0-.7.7q0 .676-.039 1.4l-.049.733-.069.756-.042.387-.1.791-.119.814-.139.837-.159.861-.18.885-.2.908-.108.463-.231.944-.252.968-.134.493-.283 1-.3 1.029-.326 1.053-.35 1.078-.368 1.1-.39 1.128-.411 1.152-.433 1.177-.455 1.2-.477 1.228-.247.623-.51 1.266-.529 1.299-.554 1.317-.577 1.343-.6 1.369-.622 1.395-.644 1.421-.667 1.447-1.044 2.22-.725 1.513-.748 1.54-.771 1.566-.797 1.596-.818 1.62-1.271 2.48-.877 1.688-.9 1.715-1.4 2.624-.962 1.784-1.488 2.728-1.543 2.791-1.6 2.854-.794 1.4-20.567-8.325a.7.7 0 0 0-.853.274l-.058.112a.7.7 0 0 0 .274.853l.112.058 21.7 8.785 1.406-2.483 1.078-1.921 1.054-1.893 1.534-2.787 1.479-2.725.956-1.782.931-1.754 1.352-2.58.871-1.686 1.262-2.478 1.209-2.418.776-1.578.753-1.552 1.086-2.278.695-1.485.672-1.459.649-1.433.316-.707.615-1.394.592-1.368.569-1.343.547-1.317.525-1.292.5-1.266q.123-.313.243-.624l.469-1.229.447-1.2.425-1.179.4-1.154.382-1.129.183-.555.35-1.092.167-.537.317-1.056.3-1.032.275-1.008.254-.984.233-.96q.122-.477.222-.94l.192-.913.171-.889.15-.866.13-.843.11-.819.09-.8.069-.774q.088-1.138.088-2.179a.7.7 0 0 0-.7-.7z" fill="#2cd2b6"/><path data-name="57" d="M212.396 79.603q11.195-5.712 14.648-15.574l.16-.478-.278.079a19.333 19.333 0 0 1-6.182.704l-.48-.038c-5.467-.518-8.322-3.997-6.724-9.129 1.548-4.975 5.953-7.573 10.2-6.53 4.43 1.088 6.902 5.638 5.694 11.879l-.12.57-.064.283.179-.07a27.206 27.206 0 0 0 6.585-3.89l.473-.388q10.674-8.901 10.517-21.25a.7.7 0 1 1 1.397-.015q.148 13.022-11.01 22.35a28.506 28.506 0 0 1-8.308 4.843l-.251.087-.086.293q-3.302 10.944-15.122 17.208l-.595.31a.7.7 0 1 1-.64-1.244z" fill="#d8d8d8"/><g data-name="60" transform="translate(141.72)"><path d="M41.975 2a2 2 0 0 0-2-2H2a2 2 0 0 0-2 2v21.185a2 2 0 0 0 2 2h4.338v5.07l6.975-5.07h26.662a2 2 0 0 0 2-2z" fill="#d8d8d8"/><circle cx="4.198" cy="4.198" r="4.198" transform="translate(5.597 8.395)" fill="#edeeef"/><circle data-name="49" cx="4.198" cy="4.198" r="4.198" transform="translate(16.79 8.395)" fill="#edeeef"/><circle data-name="50" cx="4.198" cy="4.198" r="4.198" transform="translate(27.984 8.395)" fill="#edeeef"/></g><g data-name="59"><path d="M172.022 49.805l19.168-10.624a.8.8 0 0 1 1.088.312l6.669 12.032-20.568 11.4-6.669-12.032a.8.8 0 0 1 .312-1.088z" fill="#edeeef"/><path d="M172.95 53.131l12.713-2.128 7.855-9.272 5.584 10.074a.8.8 0 0 1-.312 1.088l-19.168 10.624a.8.8 0 0 1-1.088-.312z" fill="#edeeef"/><path d="M173.66 53.618l.09-.026 12.272-1.932 7.471-9.008a.35.35 0 0 1 .414-.096l.08.05a.35.35 0 0 1 .095.414l-.05.079-7.557 9.107-.216.12-12.4 1.957a.35.35 0 0 1-.2-.665z" fill="#d8d8d8"/></g><g data-name="58" transform="rotate(25 96.313 557.298)"><rect data-name="315" width="24.556" height="29.278" rx="1.35" transform="translate(0 .944)" fill="#d8d8d8"/><path data-name="316" fill="#edeeef" d="M1.889 2.833h20.778v24.556H1.889z"/><rect width="17" height="1.889" rx=".675" transform="translate(3.778 7.556)" fill="#d8d8d8"/><rect data-name="318" width="17" height="1.889" rx=".675" transform="translate(3.778 11.333)" fill="#d8d8d8"/><rect data-name="320" width="17" height="1.889" rx=".675" transform="translate(3.778 15.111)" fill="#d8d8d8"/><rect data-name="317" width="11.333" height="4.722" rx=".675" transform="translate(6.611)" fill="#d8d8d8"/></g><g data-name="58" transform="rotate(-40 90.215 -9.083)"><rect data-name="315" width="19.644" height="23.422" rx="1.08" transform="translate(0 .756)" fill="#d8d8d8"/><path data-name="316" fill="#edeeef" d="M1.511 2.267h16.622v19.644H1.511z"/><rect width="13.6" height="1.511" rx=".54" transform="translate(3.022 6.044)" fill="#d8d8d8"/><rect data-name="318" width="13.6" height="1.511" rx=".54" transform="translate(3.022 9.067)" fill="#d8d8d8"/><rect data-name="320" width="13.6" height="1.511" rx=".54" transform="translate(3.022 12.089)" fill="#d8d8d8"/><rect data-name="317" width="9.067" height="3.778" rx=".54" transform="translate(5.289)" fill="#d8d8d8"/></g></svg>
