<svg data-name="46" xmlns="http://www.w3.org/2000/svg" width="340" height="340" viewBox="0 0 340 340"><defs><clipPath id="a"><path d="M50.511 24.948H0c0-6.6 1.362-10.145 10.769-12.794C15.585 10.8 24.6 8.7 30.015 6.042S35.542 0 35.542 0h14.969z" transform="translate(.112)" fill="#5dc4ba"/></clipPath><clipPath id="b"><path d="M41.684 20.842H0c0-5.517 1.124-8.475 8.887-10.688C12.861 9.021 20.3 7.268 24.77 5.048S29.331 0 29.331 0h12.353z" transform="translate(.247 .305)" fill="#5dc4ba"/></clipPath></defs><g transform="translate(35.185 58.765)"><path d="M239.329 80.1a39.197 39.197 0 0 1 19.863 51.753.98.98 0 0 1-1.791-.797 37.237 37.237 0 0 0-68.035-30.296.98.98 0 0 1-1.79-.797A39.197 39.197 0 0 1 239.329 80.1z" fill="#d8d8d8"/><path d="M276.325 123.02a14.699 14.699 0 0 1 7.449 19.407.98.98 0 1 1-1.79-.797 12.74 12.74 0 0 0-23.276-10.364.98.98 0 1 1-1.79-.797 14.699 14.699 0 0 1 19.407-7.449z" fill="#d8d8d8"/><path d="M64.955 108.41a1.489 1.489 0 0 0-1.7 1.024l-.039.158-17.039 88.951a1.489 1.489 0 0 0 1.182 1.74 1.489 1.489 0 0 0 1.7-1.024l.039-.158 17.039-88.949a1.489 1.489 0 0 0-1.182-1.742z" fill="#160432"/><path d="M168.729 65.738a1.064 1.064 0 0 1 1.052-.9h43.252a1.064 1.064 0 0 1 1.052 1.227l-10.734 69.331a1.064 1.064 0 0 1-1.051.9h-43.254a1.064 1.064 0 0 1-1.051-1.226z" fill="#d8d8d8"/><ellipse cx="142.918" cy="11.263" rx="142.918" ry="11.263" transform="translate(0 199.372)" fill="rgba(237,238,239,0.6)"/><g><path d="M69.843 204.125l-49.4-10.507c1.373-6.454 3.443-9.638 13.194-10.272 4.991-.323 14.245-.501 20.093-1.975s6.663-4.759 6.663-4.759l14.64 3.114z" fill="#ecf2ff"/><g clip-path="url(#a)" transform="rotate(12.04 -791.608 206.434)"><path fill="#5dc4ba" d="M-6.699 19.715h64.015v17.12H-6.699z"/></g></g><g data-name="4"><path d="M151.547 186.722l-36.807 19.55c-2.587-4.872-2.982-8.01 2.835-13.606 2.977-2.864 8.724-7.9 11.63-11.957s1.66-6.597 1.66-6.597l10.907-5.793z" fill="#ecf2ff"/><g data-name="4" clip-path="url(#b)" transform="rotate(-28 429.176 -115.971)"><path fill="#5dc4ba" d="M-5.166 16.812h52.85v14.143h-52.85z"/></g></g><rect width="66.993" height="11.91" rx="1.064" transform="translate(137.707 131.83)" fill="#d8d8d8"/><path d="M192.696 108.41a1.489 1.489 0 0 1 1.7 1.024l.039.158 17.039 88.951a1.489 1.489 0 0 1-2.885.718l-.039-.158-17.036-88.951a1.489 1.489 0 0 1 1.182-1.742z" fill="#160432"/><path data-name="3" d="M157.162 104.961l-53.678 2.805s-3.673.61-5.112 1.68-3.13 2.07-3.13 6.039 30.369 62.436 30.369 62.436l20.412-4.011-21.835-51.42h48.854z" fill="#160432"/><path data-name="2" d="M163.431 105.313l-53.65 14.142-53.813 56.785 20.331 10.873 50.669-48.081s2.988-.1 4.431-.161q30.1-1.222 40.587-5.268c11.239-4.336 12.534-16.775 12.534-16.775z" fill="#17003a"/><path d="M112.521 152.234l14.2-13.472.244-.1 4.428-.161.031.743-4.293.157-14.101 13.373zm-11.9-23.653l8.89-9.382.175-.1 53.651-14.146.184.72-53.544 14.115-8.816 9.304z" fill="#2cd2b6"/><path d="M149.856 57.74c8.963-4.292 34.8-2.648 39.865-.661s-5.156 62.377-5.156 62.377l-41.201-14.143s-2.471-43.282 6.492-47.573z" fill="#00a38d"/><path d="M180.88 61.947a5.054 5.054 0 0 1 4.529-5.027l2.646-.276a5.054 5.054 0 0 1 5.558 4.567l3.142 34.587a5.054 5.054 0 0 1-5.033 5.513h-5.788a5.054 5.054 0 0 1-5.054-5.054z" fill="#00a38d"/><rect data-name="2" width="16.376" height="45.406" rx="5.852" transform="rotate(21 -73.035 426.916)" fill="#00a38d"/><path data-name="3" d="M153.078 62.146a.372.372 0 0 1 .315.338v.086l-3.17 20.933a.372.372 0 0 1-.739-.026v-.086l3.17-20.93a.372.372 0 0 1 .338-.315z" fill="#2cd2b6"/><path data-name="6" d="M86.032 89.402s-4.775 0-5.387 1.3a48.778 48.778 0 0 0-2.8 7.118c-.311 1.158-.363 2.755.978 2.755s2.108-1.8 2.108-1.8l2.313-6.149h1.319z" fill="#f3b3af"/><path data-name="5" d="M89.544 88.288s-3.948-.038-4.931.626c-2.518 1.702-5.39 12.023-3.948 12.098s2.766-.333 3.024-1.233 2.23-6.605 2.23-6.605l2.678.14z" fill="#f6c0bc"/><path data-name="4" d="M107.073 99.271V87.72s-17.113-.394-18.2.251c-1.959 1.176-2.889 2.828-3.946 4.176-1.703 2.17-2.962 3.936-3.344 4.592-.62 1.062-1.321 2.032-.366 2.532a3.377 3.377 0 0 0 3.71-.827c1.221-1.135 5.761-5.173 5.761-5.173h2.04a4.494 4.494 0 0 0 1.714-.446 4.892 4.892 0 0 0 .221 1.476 2.582 2.582 0 0 0 1.028 1.11s-6.543.934-7.735 1.618a1.967 1.967 0 0 0-.646 2.737c.43.355 2.628.535 7.8.7a63.734 63.734 0 0 0 11.963-1.195z" fill="#fad0cd"/><path data-name="3" d="M143.667 84.992a5.852 5.852 0 0 1 6.188 5.844v4.326a5.852 5.852 0 0 1-5.852 5.852h-39.554V87.247z" fill="#00a38d"/><rect width="28.286" height="16.376" rx="5.852" transform="translate(166.737 84.936)" fill="#00a38d"/><path d="M165.248 50.695l10.5-3.722v12.654a12.807 12.807 0 0 1-7.372 2.889 2.908 2.908 0 0 1-3.128-2.889z" fill="#f6c0bc"/><path d="M163.562 55.031c4.096 1.652 10.97-1.251 13.364-6.513a13.98 13.98 0 0 0 .371-9.77c-.978-2.827-3-5.043-6.225-5.27-6.793-.476-7.375 3.575-9.7 8.853s-1.91 11.047 2.19 12.7z" fill="#fad0cd"/><path data-name="8" d="M162.041 32.274s-1.006-4.77 2.09-5.628 5.815 1.379 5.815 1.379 7.808-.793 10.807 2.489 2.302 5.786 2.302 5.786 3.568 1.584 3.406 3.897-3.02 4.02-3.02 4.02.785 2.24-.215 3.072a11.97 11.97 0 0 1-2.998 1.516s-2.672-.388-3.51-.446-2.132 1.793-2.132 1.793l1.21-5.237a11.486 11.486 0 0 0 1.281-1.748c.474-.853.474-1.855-1.28-2.497a2.801 2.801 0 0 1-1.924-2.14s-2.678 1.662-6.96-.49a8.69 8.69 0 0 1-4.872-5.766z" fill="#025c59"/><path d="M175.724 50.968a3.724 3.724 0 0 0 4.216-3.042 2.795 2.795 0 0 0-2.745-2.828 2.795 2.795 0 0 0-3.112 2.417c-.102 1.448-.929 3.272 1.641 3.453z" fill="#fad0cd"/><path data-name="7" d="M170.459 53.716a5.058 5.058 0 0 1 3.038-4.408c3-1.244 5.2-1.95 6.2-2.335 1.889-.728 4.276-3.671 5.447-4.739a1.515 1.515 0 0 1 2.545 1.469c-.487 3.05-.623 5.775-2.185 7.539a25.034 25.034 0 0 1-5.384 3.8l.721 3.529-9.743 1.369z" fill="#fad0cd"/><path d="M186.041 41.423a.35.35 0 0 1 .08.69l-.08.01a.829.829 0 0 0-.632.341l-.286.335c-.169.2-.336.388-.515.589-.5.558-1 1.095-1.513 1.6a19.616 19.616 0 0 1-1.48 1.335 7.388 7.388 0 0 1-1.8 1.124l-.37.145-.756.282-.823.3-3.3 1.13-.949.337c-2 .725-2.976 2.075-2.809 4.049l.14 1.533.19 1.871.307 2.8a.352.352 0 1 1-.7.078l-.189-1.741-.261-2.5-.154-1.63-.031-.356a4.406 4.406 0 0 1 3.267-4.766l2.017-.7 1.795-.613.862-.3.4-.144.75-.283.364-.143a6.759 6.759 0 0 0 1.618-1.02 18.936 18.936 0 0 0 1.427-1.284c.5-.493.995-1.019 1.482-1.566l.257-.291.538-.625a1.515 1.515 0 0 1 1.154-.587z" fill="#e59d98"/><path d="M170.415 58.827l13.393-1.413 8.391 37.572a5.057 5.057 0 0 1-4.145 6.097l-7.707 1.216a5.057 5.057 0 0 1-5.815-4.461z" fill="#00a38d"/><path d="M183.803 57.044a.372.372 0 0 1 .162.722l-.084.019-13.023 1.374 3.823 36.228.039.303.052.296a6.704 6.704 0 0 0 7.588 5.319l.296-.053 3.782-.755a6.704 6.704 0 0 0 5.04-8.028.372.372 0 1 1 .726-.166 7.448 7.448 0 0 1-5.304 8.845l-.428.103-3.672.73a7.448 7.448 0 0 1-8.757-5.844l-.058-.335-.044-.337-3.901-36.969z" fill="#2cd2b6"/><rect width="199.489" height="8.932" rx="1.064" transform="translate(34.241 100.567)" fill="#edeeef"/><path d="M109.721 69.794a1 1 0 0 1 .969-1.234h42.884a1 1 0 0 1 .972.766l6.683 27.774a1 1 0 0 1-.972 1.234h-42.884a1 1 0 0 1-.972-.766z" fill="#edeeef"/><rect data-name="5" width="61.782" height="2.233" rx="1.064" transform="translate(116.12 98.334)" fill="#17003a"/><path d="M203.955 109.5h9.58l16.3 99.745h-2.8z" fill="#edeeef"/><path data-name="6" d="M56.954 109.5h-9.58l-16.3 99.745h2.8z" fill="#edeeef"/><rect width="58.805" height="61.038" rx="1.064" transform="translate(37.962 4.466)" fill="rgba(237,238,239,0.6)"/><rect width="58.805" height="61.038" rx="1.064" transform="translate(34.241)" fill="#edeeef"/><rect width="45.406" height="5.955" rx="1.064" transform="translate(40.94 11.91)" fill="#d8d8d8"/><rect data-name="7" width="34.241" height="5.955" rx="1.064" transform="translate(40.94 25.308)" fill="#d8d8d8"/><rect data-name="8" width="42.429" height="5.955" rx="1.064" transform="translate(40.94 38.707)" fill="#d8d8d8"/><path d="M80.935 27.143a10.42 10.42 0 1 1 14.735.25 10.42 10.42 0 0 1-14.735-.25z" fill="#17003a"/><path data-name="4" d="M94.855 26.027a1.117 1.117 0 0 1 1.459-.082l.123.11 9.611 9.952a1.117 1.117 0 0 1-1.483 1.662l-.123-.11-9.615-9.953a1.117 1.117 0 0 1 .028-1.579z" fill="#160432"/><path data-name="9" d="M202.286 30.723a.7.7 0 0 1 .483-.864 33.877 33.877 0 0 0 8.235-3.728 24.258 24.258 0 0 0 3.524-2.647l.098-.091-.08.044c-4.486 1.889-7.793 1.642-9.734-.872l-.179-.242c-1.01-1.447-.803-3.031.293-4.567l.2-.266-.166-.266a9.631 9.631 0 0 1-1.325-4.896l.003-.376c.069-2.996 2.008-4.516 5.1-4.443a11.4 11.4 0 0 1 1.738.186l.202.04.124-.214a5.157 5.157 0 0 1 3.025-2.208l.278-.076c3.537-.88 6.685 1.416 7.886 5.014l.113.361.425.034c2.732.273 4.435 1.577 4.558 3.862l.008.268a4.481 4.481 0 0 1-1.24 2.952l-.143.155.024.042c1.632 2.747 1.85 5.526.119 7.836l-.18.229c-2.603 3.184-6.397 2.208-9.768-1.294l-.285-.306-.268.242a26.289 26.289 0 0 1-3.26 2.47l-.365.227a35.27 35.27 0 0 1-8.58 3.879.7.7 0 0 1-.863-.483z" fill="#d8d8d8"/></g><path fill="none" d="M0 0h340v340H0z"/></svg>
