<svg data-name="///" xmlns="http://www.w3.org/2000/svg" width="255" height="255" viewBox="0 0 255 255"><defs><clipPath id="a"><path d="M1.4 13.325L.743 7.072 0 .045l.886 8.382z" transform="rotate(6.02 1.139 21.645)" fill="#ffcbd5"/></clipPath></defs><g data-name="40"><g data-name="18"><path d="M211.287 95.697a2.268 2.268 0 0 0-2.268-2.268H160.94a2.268 2.268 0 0 0-2.112 1.44l-6.011 15.335a2.268 2.268 0 0 1-2.112 1.44H61.234a2.268 2.268 0 0 0-2.268 2.268v92.251a2.268 2.268 0 0 0 2.269 2.266h147.784a2.268 2.268 0 0 0 2.268-2.268z" fill="#d8d8d8"/><path data-name="98" d="M158.291 58.567a12.7 12.7 0 0 0-5.138 3.4s-5.96 1.67-4.101 9.462c.013.105 2.271 7.168 1.313 8.64s.592 5.512-.318 7.252-3.816 2.942-2.987 5.374 2.177 5.827.917 7.472 3.678 6.693 7.855 6.18 6.822 1.324 11.08.8 13.133-4.908 14.549-7.44a7.554 7.554 0 0 0 .695-5.186 6.684 6.684 0 0 0 1.286-4.869c-.36-2.939-3.187-4.304-3.397-6.013s1.061-3.664-2.284-6.49-5.47-5.156-6.487-9.614-6.48-11.018-12.983-8.968z" fill="#00a38d"/><path data-name="308" d="M156.169 85.045l-5.202-1.444a5.544 5.544 0 0 0-4.182.499l-29.954 16.684a6.322 6.322 0 0 0-2.285 8.873 7.177 7.177 0 0 0 9.415 2.555l20.294-10.624z" fill="#ecf2ff"/><g data-name="53"><path data-name="42" d="M85.77 80.604a3.783 3.783 0 0 0-2.924-2.28c-.794-.172-1.586-.315-2.497-.53-1.825-.43-4.29-1.835-4.976-1.957-1.03-.181-1.726.502-.884 1.154s4.799 2.492 5.372 3.101a.9.9 0 0 1-.075 1.25z" fill="#fcb3c1"/><path data-name="41" d="M83.604 78.538a7.013 7.013 0 0 0-3.374-.46c-2.38.014-4.668.5-5.756.46-3.341-.123-5.607-.46-6.374-.46-2.2 0-3.289.8-.88 2.09.406.218 15.6 5.193 15.6 5.193l3.142 2.2 3.347-4.744s-4.668-3.737-5.705-4.279z" fill="#ffcbd5"/></g><path data-name="309" d="M115.199 111.035a6.689 6.689 0 0 0 9.336-1.342 6.183 6.183 0 0 0-1.583-8.912L90.857 80.062l-5.912 8.46z" fill="#ecf2ff"/><path d="M152.823 84.359l21.914 3.7a.792.792 0 0 1 .66.8l-.84 29.525c-1.24 3.671-1.234 11.9-1.234 11.9h-23.655a74.2 74.2 0 0 0-2.605-7.74c-2.516-5.017-5.3-8.085-5.3-14.554 0-5.931 11.06-23.631 11.06-23.631z" fill="#ecf2ff"/><path d="M144.523 97.917a.554.554 0 1 1 1.009.459q-.777 1.707-1.366 3.208l-.321.84a20.134 20.134 0 0 0-1.528 6.525 13.98 13.98 0 0 0 2.039 7.49l.337.579 2.156 3.5.374.625a.554.554 0 1 1-.958.557l-.389-.65-2.2-3.571-.056-.094a15.3 15.3 0 0 1-2.411-8.436c0-2.519 1.108-6.184 3.314-11.032z" fill="#aec1e6"/><path d="M168.168 95.574a6.657 6.657 0 0 1 6.043-7.392 6.982 6.982 0 0 1 7.542 6.222l3.065 29.04a6.652 6.652 0 0 1-5.918 7.314 6.713 6.713 0 0 1-7.374-5.91z" fill="#ecf2ff"/><path data-name="307" d="M178.27 116.938a7.175 7.175 0 0 1 6.872 6.917 5.816 5.816 0 0 1-6.381 5.99l-39.783-3.919.203-10.61z" fill="#ecf2ff"/><path d="M185.675 123.856a.554.554 0 0 1-1.107.039 6.621 6.621 0 0 0-6.102-6.37l-.241-.014-38.522-1.597-.192 10.048a.554.554 0 0 1-.464.536l-.1.004a.554.554 0 0 1-.536-.465l-.004-.1.21-11.176 39.654 1.644a7.729 7.729 0 0 1 7.404 7.451z" fill="#aec1e6"/><g data-name="54"><path data-name="91" d="M140.987 126.952a11.426 11.426 0 0 0-3.4-1.613c-4.9-.1-15.82 0-16.9-.5-2.597-1.651 4.109-5.542 8.334-6.657 1.691-.446 5.213.5 6.392.768 1.907.176 6.281.617 6.281.617z" fill="#ffcbd5"/><path data-name="94" d="M127.442 119.525a.317.317 0 0 1 .071.626l-.1.012-.1.021-.139.041-.18.064-.481.194-.821.356-.827.376-1.24.581-.558.266a.317.317 0 1 1-.274-.572l1.367-.649.917-.423.766-.34.478-.2.398-.153.22-.081.186-.058.08-.022.136-.029a.645.645 0 0 1 .101-.01zM128.292 120.492a.317.317 0 0 1 .077.626l-.1.011-.093.021-.131.042-.276.1-.51.2-.672.281-1.3.566-1.062.473-2.206 1a.317.317 0 0 1-.265-.577l1.671-.762 1.668-.746 1.118-.483.72-.3.438-.174.362-.132.193-.064.158-.046.122-.027a.528.528 0 0 1 .088-.009z" fill="#fcb3c1"/><path data-name="94 2" d="M128.291 121.817a.317.317 0 0 1 .073.626l-.1.011-.094.024-.134.046-.281.113-.374.163-.825.382-1.312.635-1.061.53-1.206.614a.317.317 0 0 1-.289-.565l2.078-1.05 1.181-.578.591-.28.347-.159.45-.2.367-.146.2-.073.164-.052.13-.031a.543.543 0 0 1 .095-.01z" fill="#fcb3c1"/></g><path d="M156.169 76.702h7.757l.3 14.795-7.185 19.542-1.98-19.542z" fill="#fcb3c1"/><g data-name="100"><path d="M154.892 83.103c-3.552-.565-5.342-4.987-4.848-10.138s-.19-11.958 7.778-10.693 7.544 8.28 6.376 13.583-6.966 7.575-9.306 7.248z" fill="#ffcbd5"/><g data-name="100" transform="rotate(3 -1154.022 3090.697)" clip-path="url(#a)"><path data-name="100" d="M2.279 7.168V5.174 3.887v-.809-4.876 8.36z" fill="#fcb3c1"/></g></g><path data-name="99" d="M163.6 74.611a12.741 12.741 0 0 0-4.653-5.207 9.626 9.626 0 0 1-4.077-4.102s-1.64 2.948-3.54 4.078-2.114 1.275-2.114 1.275.398-9.274 8.033-8.53 8.699 6.543 8.256 8.793a7.769 7.769 0 0 1-1.904 3.693z" fill="#00a38d"/><path d="M164.712 78.281a2.389 2.389 0 0 1-1.526-2.988c.32-1.381 1.214-2.587 2.732-2.237s2.2 1.33 1.88 2.713-1.926 2.78-3.086 2.512z" fill="#ffcbd5"/><path data-name="103" d="M173.709 97.592a.554.554 0 0 1 .5.5v.1l-.911 9.83a.554.554 0 0 1-1.1 0v-.1l.909-9.83a.554.554 0 0 1 .602-.5z" fill="#aec1e6"/><path data-name="104" d="M154.328 87.626a.693.693 0 0 1 1.262.561l-.042.094-4 7.465 2.491 2.337-2.527 3.098 5.933 11.02a.693.693 0 0 1-.195.883l-.087.055a.693.693 0 0 1-.883-.195l-.058-.083-6.367-11.838 2.291-2.814-2.324-2.18z" fill="#aec1e6"/><path data-name="105" d="M164.625 87.316a.693.693 0 0 1 .861.276l.047.091 4.072 9.6-4.056 3.036 3.213 3.865-12.116 11.538a.693.693 0 0 1-1.03-.919l.075-.084 11.177-10.65-3.315-3.988 4.352-3.261-3.647-8.596a.693.693 0 0 1 .275-.863z" fill="#aec1e6"/><path d="M41.293 127.895a2.268 2.268 0 0 1 2.22-2.733h148.479a2.268 2.268 0 0 1 2.22 1.8l16.5 78.764a2.268 2.268 0 0 1-2.22 2.733H60.016a2.268 2.268 0 0 1-2.22-1.8z" fill="#edeeef"/><path data-name="307" d="M178.27 116.938a7.175 7.175 0 0 1 6.872 6.917 5.816 5.816 0 0 1-6.381 5.99l-39.783-3.919.203-10.61z" fill="#ecf2ff"/><path d="M185.675 123.856a.554.554 0 0 1-1.107.039 6.621 6.621 0 0 0-6.102-6.37l-.241-.014-38.522-1.597-.192 10.048a.554.554 0 0 1-.464.536l-.1.004a.554.554 0 0 1-.536-.465l-.004-.1.21-11.176 39.654 1.644a7.729 7.729 0 0 1 7.404 7.451z" fill="#aec1e6"/><path data-name="95" d="M220.391 90.707a.793.793 0 0 1 .108 1.579l-.108.007H183.52a.793.793 0 0 1-.107-1.579l.107-.007z" fill="#00a38d"/><path data-name="96" d="M201.765 206.708a1.587 1.587 0 0 1 .148 3.167l-.144.007-158.668.167a1.587 1.587 0 0 1-.147-3.166l.144-.007z" fill="#00a38d"/><path data-name="97" d="M34.207 109.145a.793.793 0 0 1 .913.505l.03.1 9.361 43.577a.793.793 0 0 1-1.522.437l-.03-.1-9.361-43.577a.793.793 0 0 1 .609-.942z" fill="#00a38d"/><path data-name="57" d="M185.147 82.9q8.797-3.385 12.148-10.464l.155-.344-.211.038a14.5 14.5 0 0 1-4.667.04l-.355-.065c-4.034-.814-5.893-3.635-4.3-7.337 1.546-3.59 5.034-5.181 8.12-4.071 3.22 1.16 4.707 4.746 3.317 9.306l-.132.419-.07.206.14-.039a20.4 20.4 0 0 0 5.217-2.385l.383-.252q8.653-5.808 9.504-15.031a.527.527 0 1 1 1.049.096q-.914 9.725-9.97 15.809a21.379 21.379 0 0 1-6.576 2.96l-.195.045-.087.213q-3.321 7.905-12.627 11.65l-.47.184a.525.525 0 1 1-.376-.98z" fill="#d8d8d8"/></g><path fill="none" d="M0 0h255v255H0z"/></g></svg>
